%TF.GenerationSoftware,KiCad,Pcbnew,9.0.3*%
%TF.CreationDate,2025-07-25T13:03:31+09:00*%
%TF.ProjectId,NORZ_Z80,4e4f525a-5f5a-4383-902e-6b696361645f,rev?*%
%TF.SameCoordinates,Original*%
%TF.FileFunction,Copper,L1,Top*%
%TF.FilePolarity,Positive*%
%FSLAX46Y46*%
G04 Gerber Fmt 4.6, Leading zero omitted, Abs format (unit mm)*
G04 Created by KiCad (PCBNEW 9.0.3) date 2025-07-25 13:03:31*
%MOMM*%
%LPD*%
G01*
G04 APERTURE LIST*
G04 Aperture macros list*
%AMRoundRect*
0 Rectangle with rounded corners*
0 $1 Rounding radius*
0 $2 $3 $4 $5 $6 $7 $8 $9 X,Y pos of 4 corners*
0 Add a 4 corners polygon primitive as box body*
4,1,4,$2,$3,$4,$5,$6,$7,$8,$9,$2,$3,0*
0 Add four circle primitives for the rounded corners*
1,1,$1+$1,$2,$3*
1,1,$1+$1,$4,$5*
1,1,$1+$1,$6,$7*
1,1,$1+$1,$8,$9*
0 Add four rect primitives between the rounded corners*
20,1,$1+$1,$2,$3,$4,$5,0*
20,1,$1+$1,$4,$5,$6,$7,0*
20,1,$1+$1,$6,$7,$8,$9,0*
20,1,$1+$1,$8,$9,$2,$3,0*%
G04 Aperture macros list end*
%TA.AperFunction,SMDPad,CuDef*%
%ADD10RoundRect,0.225000X-0.225000X-0.250000X0.225000X-0.250000X0.225000X0.250000X-0.225000X0.250000X0*%
%TD*%
%TA.AperFunction,ComponentPad*%
%ADD11RoundRect,0.250000X-0.550000X-0.550000X0.550000X-0.550000X0.550000X0.550000X-0.550000X0.550000X0*%
%TD*%
%TA.AperFunction,ComponentPad*%
%ADD12C,1.600000*%
%TD*%
%TA.AperFunction,SMDPad,CuDef*%
%ADD13R,1.500000X0.350000*%
%TD*%
%TA.AperFunction,SMDPad,CuDef*%
%ADD14R,1.700000X2.000000*%
%TD*%
%TA.AperFunction,ViaPad*%
%ADD15C,0.450000*%
%TD*%
%TA.AperFunction,Conductor*%
%ADD16C,0.200000*%
%TD*%
%TA.AperFunction,Conductor*%
%ADD17C,0.400000*%
%TD*%
%TA.AperFunction,Conductor*%
%ADD18C,0.350000*%
%TD*%
G04 APERTURE END LIST*
D10*
%TO.P,C2,1*%
%TO.N,+5V*%
X26725000Y-28750000D03*
%TO.P,C2,2*%
%TO.N,GND*%
X28275000Y-28750000D03*
%TD*%
%TO.P,C1,1*%
%TO.N,+5V*%
X26725000Y-30250000D03*
%TO.P,C1,2*%
%TO.N,GND*%
X28275000Y-30250000D03*
%TD*%
D11*
%TO.P,U2,1,A_{11}*%
%TO.N,/connecter/A11*%
X20000000Y-3000000D03*
D12*
%TO.P,U2,2,A_{12}*%
%TO.N,/connecter/A12*%
X20000000Y-5540000D03*
%TO.P,U2,3,A_{13}*%
%TO.N,/connecter/A13*%
X20000000Y-8080000D03*
%TO.P,U2,4,A_{14}*%
%TO.N,/connecter/A14*%
X20000000Y-10620000D03*
%TO.P,U2,5,A_{15}*%
%TO.N,/connecter/A15*%
X20000000Y-13160000D03*
%TO.P,U2,6,CLK*%
%TO.N,/connecter/~{CLK}*%
X20000000Y-15700000D03*
%TO.P,U2,7,D_{4}*%
%TO.N,/connecter/D4*%
X20000000Y-18240000D03*
%TO.P,U2,8,D_{3}*%
%TO.N,/connecter/D3*%
X20000000Y-20780000D03*
%TO.P,U2,9,D_{5}*%
%TO.N,/connecter/D5*%
X20000000Y-23320000D03*
%TO.P,U2,10,D_{6}*%
%TO.N,/connecter/D6*%
X20000000Y-25860000D03*
%TO.P,U2,11,V_{CC}*%
%TO.N,+5V*%
X20000000Y-28400000D03*
%TO.P,U2,12,D_{2}*%
%TO.N,/connecter/D2*%
X20000000Y-30940000D03*
%TO.P,U2,13,D_{7}*%
%TO.N,/connecter/D7*%
X20000000Y-33480000D03*
%TO.P,U2,14,D_{0}*%
%TO.N,/connecter/D0*%
X20000000Y-36020000D03*
%TO.P,U2,15,D_{1}*%
%TO.N,/connecter/D1*%
X20000000Y-38560000D03*
%TO.P,U2,16,~{INT}*%
%TO.N,/connecter/~{INT}*%
X20000000Y-41100000D03*
%TO.P,U2,17,~{NMI}*%
%TO.N,/connecter/~{NMI}*%
X20000000Y-43640000D03*
%TO.P,U2,18,~{HALT}*%
%TO.N,/connecter/~{HALT}*%
X20000000Y-46180000D03*
%TO.P,U2,19,~{MREQ}*%
%TO.N,/connecter/~{MREQ}*%
X20000000Y-48720000D03*
%TO.P,U2,20,~{IORQ}*%
%TO.N,/connecter/~{IORQ}*%
X20000000Y-51260000D03*
%TO.P,U2,21,~{RD}*%
%TO.N,/connecter/~{RD}*%
X35240000Y-51260000D03*
%TO.P,U2,22,~{WR}*%
%TO.N,/connecter/~{WR}*%
X35240000Y-48720000D03*
%TO.P,U2,23,~{BUSACK}*%
%TO.N,/connecter/~{BUSAK}*%
X35240000Y-46180000D03*
%TO.P,U2,24,~{WAIT}*%
%TO.N,/connecter/~{WAIT}*%
X35240000Y-43640000D03*
%TO.P,U2,25,~{BUSREQ}*%
%TO.N,/connecter/~{BUSRQ}*%
X35240000Y-41100000D03*
%TO.P,U2,26,~{RESET}*%
%TO.N,/connecter/~{RESET}*%
X35240000Y-38560000D03*
%TO.P,U2,27,~{M1}*%
%TO.N,/connecter/~{M1}*%
X35240000Y-36020000D03*
%TO.P,U2,28,~{RFSH}*%
%TO.N,/connecter/~{RFSH}*%
X35240000Y-33480000D03*
%TO.P,U2,29,GND*%
%TO.N,GND*%
X35240000Y-30940000D03*
%TO.P,U2,30,A_{0}*%
%TO.N,/connecter/A0*%
X35240000Y-28400000D03*
%TO.P,U2,31,A_{1}*%
%TO.N,/connecter/A1*%
X35240000Y-25860000D03*
%TO.P,U2,32,A_{2}*%
%TO.N,/connecter/A2*%
X35240000Y-23320000D03*
%TO.P,U2,33,A_{3}*%
%TO.N,/connecter/A3*%
X35240000Y-20780000D03*
%TO.P,U2,34,A_{4}*%
%TO.N,/connecter/A4*%
X35240000Y-18240000D03*
%TO.P,U2,35,A_{5}*%
%TO.N,/connecter/A5*%
X35240000Y-15700000D03*
%TO.P,U2,36,A_{6}*%
%TO.N,/connecter/A6*%
X35240000Y-13160000D03*
%TO.P,U2,37,A_{7}*%
%TO.N,/connecter/A7*%
X35240000Y-10620000D03*
%TO.P,U2,38,A_{8}*%
%TO.N,/connecter/A8*%
X35240000Y-8080000D03*
%TO.P,U2,39,A_{9}*%
%TO.N,/connecter/A9*%
X35240000Y-5540000D03*
%TO.P,U2,40,A_{10}*%
%TO.N,/connecter/A10*%
X35240000Y-3000000D03*
%TD*%
D13*
%TO.P,U1,1,1*%
%TO.N,/connecter/A11*%
X6300000Y-12750000D03*
%TO.P,U1,2,2*%
%TO.N,/connecter/A12*%
X6300000Y-13250000D03*
%TO.P,U1,3,3*%
%TO.N,/connecter/A13*%
X6300000Y-13750000D03*
%TO.P,U1,4,4*%
%TO.N,/connecter/A14*%
X6300000Y-14250000D03*
%TO.P,U1,5,5*%
%TO.N,/connecter/A15*%
X6300000Y-14750000D03*
%TO.P,U1,6,6*%
%TO.N,/connecter/~{CLK}*%
X6300000Y-15250000D03*
%TO.P,U1,7,7*%
%TO.N,/connecter/D4*%
X6300000Y-15750000D03*
%TO.P,U1,8,8*%
%TO.N,/connecter/D3*%
X6300000Y-16250000D03*
%TO.P,U1,9,9*%
%TO.N,/connecter/D5*%
X6300000Y-16750000D03*
%TO.P,U1,10,10*%
%TO.N,/connecter/D6*%
X6300000Y-17250000D03*
%TO.P,U1,11,11*%
%TO.N,+5V*%
X6300000Y-17750000D03*
%TO.P,U1,12,12*%
%TO.N,/connecter/D2*%
X6300000Y-18250000D03*
%TO.P,U1,13,13*%
%TO.N,/connecter/D7*%
X6300000Y-18750000D03*
%TO.P,U1,14,14*%
%TO.N,/connecter/D0*%
X6300000Y-19250000D03*
%TO.P,U1,15,15*%
%TO.N,/connecter/D1*%
X6300000Y-19750000D03*
%TO.P,U1,16,16*%
%TO.N,/connecter/~{INT}*%
X6300000Y-20250000D03*
%TO.P,U1,17,17*%
%TO.N,/connecter/~{NMI}*%
X6300000Y-20750000D03*
%TO.P,U1,18,18*%
%TO.N,/connecter/~{HALT}*%
X6300000Y-21250000D03*
%TO.P,U1,19,19*%
%TO.N,/connecter/~{MREQ}*%
X6300000Y-21750000D03*
%TO.P,U1,20,20*%
%TO.N,/connecter/~{IORQ}*%
X6300000Y-22250000D03*
%TO.P,U1,21,21*%
%TO.N,/connecter/~{RD}*%
X6300000Y-22750000D03*
%TO.P,U1,22,22*%
%TO.N,/connecter/~{WR}*%
X6300000Y-23250000D03*
%TO.P,U1,23,23*%
%TO.N,/connecter/~{BUSAK}*%
X6300000Y-23750000D03*
%TO.P,U1,24,24*%
%TO.N,/connecter/~{WAIT}*%
X6300000Y-24250000D03*
%TO.P,U1,25,25*%
%TO.N,/connecter/~{BUSRQ}*%
X6300000Y-24750000D03*
%TO.P,U1,26,26*%
%TO.N,/connecter/~{RESET}*%
X6300000Y-25250000D03*
%TO.P,U1,27,27*%
%TO.N,/connecter/~{M1}*%
X6300000Y-25750000D03*
%TO.P,U1,28,28*%
%TO.N,/connecter/~{RFSH}*%
X6300000Y-26250000D03*
%TO.P,U1,29,29*%
%TO.N,GND*%
X6300000Y-26750000D03*
%TO.P,U1,30,30*%
%TO.N,/connecter/A0*%
X6300000Y-27250000D03*
%TO.P,U1,31,31*%
%TO.N,/connecter/A1*%
X6300000Y-27750000D03*
%TO.P,U1,32,32*%
%TO.N,/connecter/A2*%
X6300000Y-28250000D03*
%TO.P,U1,33,33*%
%TO.N,/connecter/A3*%
X6300000Y-28750000D03*
%TO.P,U1,34,34*%
%TO.N,/connecter/A4*%
X6300000Y-29250000D03*
%TO.P,U1,35,35*%
%TO.N,/connecter/A5*%
X6300000Y-29750000D03*
%TO.P,U1,36,36*%
%TO.N,/connecter/A6*%
X6300000Y-30250000D03*
%TO.P,U1,37,37*%
%TO.N,/connecter/A7*%
X6300000Y-30750000D03*
%TO.P,U1,38,38*%
%TO.N,/connecter/A8*%
X6300000Y-31250000D03*
%TO.P,U1,39,39*%
%TO.N,/connecter/A9*%
X6300000Y-31750000D03*
%TO.P,U1,40,40*%
%TO.N,/connecter/A10*%
X6300000Y-32250000D03*
%TO.P,U1,41,41*%
%TO.N,/connecter/Dout0*%
X6300000Y-32750000D03*
%TO.P,U1,42,42*%
%TO.N,/connecter/Dout1*%
X6300000Y-33250000D03*
%TO.P,U1,43,43*%
%TO.N,/connecter/Dout2*%
X6300000Y-33750000D03*
%TO.P,U1,44,44*%
%TO.N,/connecter/Dout3*%
X6300000Y-34250000D03*
%TO.P,U1,45,45*%
%TO.N,/connecter/Dout4*%
X6300000Y-34750000D03*
%TO.P,U1,46,46*%
%TO.N,/connecter/Dout5*%
X6300000Y-35250000D03*
%TO.P,U1,47,47*%
%TO.N,/connecter/Dout6*%
X6300000Y-35750000D03*
%TO.P,U1,48,48*%
%TO.N,/connecter/Dout7*%
X6300000Y-36250000D03*
%TO.P,U1,49,49*%
%TO.N,unconnected-(U1-Pad49)*%
X6300000Y-36750000D03*
%TO.P,U1,50,50*%
%TO.N,unconnected-(U1-Pad50)*%
X6300000Y-37250000D03*
%TO.P,U1,51,51*%
%TO.N,unconnected-(U1-Pad51)*%
X6300000Y-37750000D03*
%TO.P,U1,52,52*%
%TO.N,unconnected-(U1-Pad52)*%
X6300000Y-38250000D03*
%TO.P,U1,53,53*%
%TO.N,unconnected-(U1-Pad53)*%
X6300000Y-38750000D03*
%TO.P,U1,54,54*%
%TO.N,unconnected-(U1-Pad54)*%
X6300000Y-39250000D03*
%TO.P,U1,55,55*%
%TO.N,unconnected-(U1-Pad55)*%
X6300000Y-39750000D03*
%TO.P,U1,56,56*%
%TO.N,unconnected-(U1-Pad56)*%
X6300000Y-40250000D03*
%TO.P,U1,57,57*%
%TO.N,unconnected-(U1-Pad57)*%
X6300000Y-40750000D03*
%TO.P,U1,58,58*%
%TO.N,unconnected-(U1-Pad58)*%
X6300000Y-41250000D03*
%TO.P,U1,59,59*%
%TO.N,unconnected-(U1-Pad59)*%
X6300000Y-41750000D03*
%TO.P,U1,60,60*%
%TO.N,unconnected-(U1-Pad60)*%
X6300000Y-42250000D03*
D14*
%TO.P,U1,61,61*%
%TO.N,GND*%
X3700000Y-43950000D03*
%TO.P,U1,62,62*%
X3700000Y-11050000D03*
%TD*%
D15*
%TO.N,/connecter/~{M1}*%
X9768800Y-27897300D03*
X18547000Y-36167000D03*
%TO.N,/connecter/A8*%
X11450000Y-1059000D03*
X1890400Y-25057600D03*
%TO.N,/connecter/A2*%
X11557100Y-25808900D03*
X16912700Y-21522300D03*
%TO.N,/connecter/~{RD}*%
X2736000Y-20876000D03*
X3194700Y-47717700D03*
%TO.N,/connecter/A6*%
X13342900Y-30243600D03*
%TO.N,/connecter/A5*%
X4710700Y-25744500D03*
X9726600Y-14342400D03*
%TO.N,/connecter/A9*%
X14456400Y-7345400D03*
X10639000Y-30871000D03*
X9076800Y-27710800D03*
X9836000Y-25373000D03*
%TO.N,/connecter/A10*%
X880500Y-9836000D03*
X1890400Y-31916000D03*
%TO.N,/connecter/A1*%
X17949400Y-32634600D03*
X7539600Y-27803800D03*
%TO.N,/connecter/A0*%
X21390000Y-25447900D03*
X11351200Y-26570200D03*
%TO.N,/connecter/~{RFSH}*%
X18417400Y-33380300D03*
X5025000Y-27950000D03*
%TO.N,/connecter/A3*%
X14549900Y-16850100D03*
X11475500Y-24539500D03*
%TO.N,/connecter/A7*%
X5005300Y-24881500D03*
X12578800Y-9847300D03*
%TO.N,/connecter/A4*%
X14603600Y-30611000D03*
%TO.N,/connecter/~{WAIT}*%
X33703800Y-23057800D03*
X18341100Y-20964600D03*
X11245100Y-25209300D03*
%TO.N,/connecter/~{BUSAK}*%
X3816900Y-45535400D03*
X3308200Y-24020000D03*
%TO.N,/connecter/~{BUSRQ}*%
X4596800Y-29369200D03*
X4208000Y-25354400D03*
X7912900Y-24978100D03*
X17051200Y-40007700D03*
%TO.N,/connecter/~{WR}*%
X2908900Y-23250000D03*
X3035200Y-46734400D03*
%TO.N,/connecter/~{RESET}*%
X33847200Y-11890000D03*
X10347100Y-12594500D03*
X8290800Y-25690700D03*
%TO.N,GND*%
X28250000Y-27150000D03*
X4000000Y-26750000D03*
X3685900Y-42542600D03*
X3700000Y-12600000D03*
%TD*%
D16*
%TO.N,GND*%
X3700000Y-12600000D02*
X3700000Y-11050000D01*
%TO.N,/connecter/A8*%
X36357300Y-2586900D02*
X36357300Y-6962700D01*
X36357300Y-6962700D02*
X35240000Y-8080000D01*
X11450000Y-1059000D02*
X34829400Y-1059000D01*
X34829400Y-1059000D02*
X36357300Y-2586900D01*
%TO.N,/connecter/~{RD}*%
X3194700Y-47717700D02*
X5267700Y-47717700D01*
X5267700Y-47717700D02*
X10625300Y-53075300D01*
X10625300Y-53075300D02*
X33424700Y-53075300D01*
X33424700Y-53075300D02*
X35240000Y-51260000D01*
%TO.N,/connecter/~{WR}*%
X35240000Y-48720000D02*
X31245300Y-52714700D01*
X31245300Y-52714700D02*
X14914700Y-52714700D01*
X8934400Y-46734400D02*
X3035200Y-46734400D01*
X14914700Y-52714700D02*
X8934400Y-46734400D01*
%TO.N,/connecter/~{MREQ}*%
X15595000Y-44315000D02*
X20000000Y-48720000D01*
X15595000Y-27419700D02*
X15595000Y-44315000D01*
X9925300Y-21750000D02*
X15595000Y-27419700D01*
X6300000Y-21750000D02*
X9925300Y-21750000D01*
%TO.N,/connecter/~{M1}*%
X9451800Y-28214300D02*
X9768800Y-27897300D01*
X8873100Y-28214300D02*
X9451800Y-28214300D01*
X8588600Y-27929800D02*
X8873100Y-28214300D01*
X8588600Y-27036900D02*
X8588600Y-27929800D01*
X7301700Y-25750000D02*
X8588600Y-27036900D01*
X6300000Y-25750000D02*
X7301700Y-25750000D01*
X19482200Y-37102200D02*
X18547000Y-36167000D01*
X34157800Y-37102200D02*
X19482200Y-37102200D01*
X35240000Y-36020000D02*
X34157800Y-37102200D01*
%TO.N,/connecter/D6*%
X11390000Y-17250000D02*
X20000000Y-25860000D01*
X6300000Y-17250000D02*
X11390000Y-17250000D01*
%TO.N,/connecter/A8*%
X5275700Y-31250000D02*
X6300000Y-31250000D01*
X1890400Y-27864700D02*
X5275700Y-31250000D01*
X1890400Y-25057600D02*
X1890400Y-27864700D01*
%TO.N,/connecter/A2*%
X6300000Y-28250000D02*
X7301700Y-28250000D01*
X7450000Y-28398300D02*
X7301700Y-28250000D01*
X7656200Y-28398300D02*
X7450000Y-28398300D01*
X8262100Y-29004200D02*
X7656200Y-28398300D01*
X9904700Y-29004200D02*
X8262100Y-29004200D01*
X11829000Y-27079900D02*
X9904700Y-29004200D01*
X11829000Y-26080800D02*
X11829000Y-27079900D01*
X11557100Y-25808900D02*
X11829000Y-26080800D01*
X34164500Y-24395500D02*
X35240000Y-23320000D01*
X19542000Y-24395500D02*
X34164500Y-24395500D01*
X16912700Y-21766200D02*
X19542000Y-24395500D01*
X16912700Y-21522300D02*
X16912700Y-21766200D01*
X16912700Y-21522300D02*
X16912700Y-21766200D01*
X16912700Y-21766200D02*
X16912700Y-21522300D01*
%TO.N,/connecter/D0*%
X17400000Y-33420000D02*
X20000000Y-36020000D01*
X17400000Y-26742800D02*
X17400000Y-33420000D01*
X9907200Y-19250000D02*
X17400000Y-26742800D01*
X6300000Y-19250000D02*
X9907200Y-19250000D01*
%TO.N,/connecter/~{RD}*%
X4610000Y-22750000D02*
X2736000Y-20876000D01*
X6300000Y-22750000D02*
X4610000Y-22750000D01*
%TO.N,/connecter/A14*%
X11530000Y-10620000D02*
X20000000Y-10620000D01*
X7900000Y-14250000D02*
X11530000Y-10620000D01*
X6300000Y-14250000D02*
X7900000Y-14250000D01*
%TO.N,/connecter/A6*%
X6300000Y-30250000D02*
X7301700Y-30250000D01*
X13336500Y-30250000D02*
X13342900Y-30243600D01*
X7301700Y-30250000D02*
X13336500Y-30250000D01*
%TO.N,/connecter/D1*%
X16999000Y-35559000D02*
X20000000Y-38560000D01*
X16999000Y-26838200D02*
X16999000Y-35559000D01*
X9910800Y-19750000D02*
X16999000Y-26838200D01*
X6300000Y-19750000D02*
X9910800Y-19750000D01*
%TO.N,/connecter/~{NMI}*%
X16297000Y-39937000D02*
X20000000Y-43640000D01*
X16297000Y-27128900D02*
X16297000Y-39937000D01*
X9918100Y-20750000D02*
X16297000Y-27128900D01*
X6300000Y-20750000D02*
X9918100Y-20750000D01*
%TO.N,/connecter/A5*%
X33750200Y-17189800D02*
X35240000Y-15700000D01*
X26067400Y-17189800D02*
X33750200Y-17189800D01*
X23220000Y-14342400D02*
X26067400Y-17189800D01*
X9726600Y-14342400D02*
X23220000Y-14342400D01*
X6300000Y-29750000D02*
X5298300Y-29750000D01*
X4624100Y-25831100D02*
X4710700Y-25744500D01*
X3631200Y-25831100D02*
X4624100Y-25831100D01*
X3146500Y-26315800D02*
X3631200Y-25831100D01*
X3146500Y-27244800D02*
X3146500Y-26315800D01*
X5298300Y-29396600D02*
X3146500Y-27244800D01*
X5298300Y-29750000D02*
X5298300Y-29396600D01*
%TO.N,/connecter/A9*%
X33769100Y-7010900D02*
X35240000Y-5540000D01*
X14790900Y-7010900D02*
X33769100Y-7010900D01*
X14456400Y-7345400D02*
X14790900Y-7010900D01*
X9076800Y-26132200D02*
X9836000Y-25373000D01*
X9076800Y-27710800D02*
X9076800Y-26132200D01*
X9760000Y-31750000D02*
X10639000Y-30871000D01*
X6300000Y-31750000D02*
X9760000Y-31750000D01*
%TO.N,/connecter/A10*%
X1325500Y-9391000D02*
X880500Y-9836000D01*
X7274100Y-9391000D02*
X1325500Y-9391000D01*
X14759500Y-1905600D02*
X7274100Y-9391000D01*
X34145600Y-1905600D02*
X14759500Y-1905600D01*
X35240000Y-3000000D02*
X34145600Y-1905600D01*
X2576200Y-32250000D02*
X2242200Y-31916000D01*
X6300000Y-32250000D02*
X2576200Y-32250000D01*
X2242200Y-31916000D02*
X1890400Y-31916000D01*
%TO.N,/connecter/~{CLK}*%
X19550000Y-15250000D02*
X20000000Y-15700000D01*
X6300000Y-15250000D02*
X19550000Y-15250000D01*
%TO.N,/connecter/~{HALT}*%
X15946000Y-42126000D02*
X20000000Y-46180000D01*
X15946000Y-27274300D02*
X15946000Y-42126000D01*
X9921700Y-21250000D02*
X15946000Y-27274300D01*
X6300000Y-21250000D02*
X9921700Y-21250000D01*
%TO.N,/connecter/A1*%
X18349700Y-32634600D02*
X17949400Y-32634600D01*
X18921200Y-33206100D02*
X18349700Y-32634600D01*
X18921200Y-33934800D02*
X18921200Y-33206100D01*
X19518100Y-34531700D02*
X18921200Y-33934800D01*
X23601600Y-34531700D02*
X19518100Y-34531700D01*
X27500000Y-30633300D02*
X23601600Y-34531700D01*
X27500000Y-27218200D02*
X27500000Y-30633300D01*
X28858200Y-25860000D02*
X27500000Y-27218200D01*
X35240000Y-25860000D02*
X28858200Y-25860000D01*
X7485800Y-27750000D02*
X7539600Y-27803800D01*
X6300000Y-27750000D02*
X7485800Y-27750000D01*
%TO.N,/connecter/D4*%
X17510000Y-15750000D02*
X20000000Y-18240000D01*
X6300000Y-15750000D02*
X17510000Y-15750000D01*
%TO.N,/connecter/A0*%
X7663600Y-27250000D02*
X6300000Y-27250000D01*
X8236900Y-27823300D02*
X7663600Y-27250000D01*
X8236900Y-28075400D02*
X8236900Y-27823300D01*
X8759300Y-28597800D02*
X8236900Y-28075400D01*
X9811800Y-28597800D02*
X8759300Y-28597800D01*
X11351200Y-27058400D02*
X9811800Y-28597800D01*
X11351200Y-26570200D02*
X11351200Y-27058400D01*
X36300600Y-27339400D02*
X35240000Y-28400000D01*
X36300600Y-25363800D02*
X36300600Y-27339400D01*
X35745100Y-24808300D02*
X36300600Y-25363800D01*
X22029600Y-24808300D02*
X35745100Y-24808300D01*
X21353000Y-25484900D02*
X22029600Y-24808300D01*
X21353000Y-25484900D02*
X21390000Y-25447900D01*
%TO.N,/connecter/~{RFSH}*%
X3760500Y-26250000D02*
X6300000Y-26250000D01*
X3498200Y-26512300D02*
X3760500Y-26250000D01*
X3498200Y-26946300D02*
X3498200Y-26512300D01*
X4501900Y-27950000D02*
X3498200Y-26946300D01*
X5025000Y-27950000D02*
X4501900Y-27950000D01*
X33836600Y-34883400D02*
X35240000Y-33480000D01*
X19372500Y-34883400D02*
X33836600Y-34883400D01*
X18417500Y-33928400D02*
X19372500Y-34883400D01*
X18417500Y-33380300D02*
X18417500Y-33928400D01*
X18417400Y-33380300D02*
X18417500Y-33380300D01*
%TO.N,/connecter/A3*%
X14900700Y-16850100D02*
X14549900Y-16850100D01*
X18817800Y-20767200D02*
X14900700Y-16850100D01*
X18817800Y-21112800D02*
X18817800Y-20767200D01*
X19546700Y-21841700D02*
X18817800Y-21112800D01*
X34178300Y-21841700D02*
X19546700Y-21841700D01*
X35240000Y-20780000D02*
X34178300Y-21841700D01*
X7306400Y-28750000D02*
X6300000Y-28750000D01*
X7916100Y-29359700D02*
X7306400Y-28750000D01*
X10047600Y-29359700D02*
X7916100Y-29359700D01*
X12187200Y-27220100D02*
X10047600Y-29359700D01*
X12187200Y-25251200D02*
X12187200Y-27220100D01*
X11475500Y-24539500D02*
X12187200Y-25251200D01*
%TO.N,/connecter/A12*%
X14960000Y-5540000D02*
X20000000Y-5540000D01*
X7250000Y-13250000D02*
X14960000Y-5540000D01*
X6300000Y-13250000D02*
X7250000Y-13250000D01*
%TO.N,/connecter/D2*%
X20000000Y-30450000D02*
X20000000Y-30940000D01*
X18600000Y-29050000D02*
X20000000Y-30450000D01*
X18600000Y-26950000D02*
X18600000Y-29050000D01*
X9900000Y-18250000D02*
X18600000Y-26950000D01*
X6300000Y-18250000D02*
X9900000Y-18250000D01*
%TO.N,/connecter/D5*%
X13430000Y-16750000D02*
X20000000Y-23320000D01*
X6300000Y-16750000D02*
X13430000Y-16750000D01*
%TO.N,/connecter/A11*%
X16050000Y-3000000D02*
X6300000Y-12750000D01*
X20000000Y-3000000D02*
X16050000Y-3000000D01*
%TO.N,/connecter/A13*%
X13270000Y-8080000D02*
X20000000Y-8080000D01*
X7600000Y-13750000D02*
X13270000Y-8080000D01*
X6300000Y-13750000D02*
X7600000Y-13750000D01*
%TO.N,/connecter/A7*%
X34156500Y-9536500D02*
X35240000Y-10620000D01*
X12889600Y-9536500D02*
X34156500Y-9536500D01*
X12578800Y-9847300D02*
X12889600Y-9536500D01*
X6300000Y-30750000D02*
X5298300Y-30750000D01*
X2443100Y-27894800D02*
X5298300Y-30750000D01*
X2443100Y-26024600D02*
X2443100Y-27894800D01*
X3590000Y-24877700D02*
X2443100Y-26024600D01*
X5001500Y-24877700D02*
X3590000Y-24877700D01*
X5005300Y-24881500D02*
X5001500Y-24877700D01*
%TO.N,/connecter/A4*%
X6300000Y-29250000D02*
X7301700Y-29250000D01*
X13756100Y-29763500D02*
X14603600Y-30611000D01*
X7815200Y-29763500D02*
X13756100Y-29763500D01*
X7301700Y-29250000D02*
X7815200Y-29763500D01*
%TO.N,/connecter/~{WAIT}*%
X18341100Y-21133400D02*
X18341100Y-20964600D01*
X19438700Y-22231000D02*
X18341100Y-21133400D01*
X32877000Y-22231000D02*
X19438700Y-22231000D01*
X33703800Y-23057800D02*
X32877000Y-22231000D01*
X10285800Y-24250000D02*
X6300000Y-24250000D01*
X11245100Y-25209300D02*
X10285800Y-24250000D01*
%TO.N,/connecter/~{INT}*%
X16648000Y-37748000D02*
X20000000Y-41100000D01*
X16648000Y-26983600D02*
X16648000Y-37748000D01*
X9914500Y-20250000D02*
X16648000Y-26983600D01*
X6300000Y-20250000D02*
X9914500Y-20250000D01*
%TO.N,/connecter/~{BUSAK}*%
X12757700Y-45535400D02*
X3816900Y-45535400D01*
X19549300Y-52327000D02*
X12757700Y-45535400D01*
X29093000Y-52327000D02*
X19549300Y-52327000D01*
X35240000Y-46180000D02*
X29093000Y-52327000D01*
X3578200Y-23750000D02*
X6300000Y-23750000D01*
X3308200Y-24020000D02*
X3578200Y-23750000D01*
%TO.N,/connecter/D3*%
X15470000Y-16250000D02*
X6300000Y-16250000D01*
X20000000Y-20780000D02*
X15470000Y-16250000D01*
%TO.N,/connecter/A15*%
X9790000Y-13160000D02*
X20000000Y-13160000D01*
X8200000Y-14750000D02*
X9790000Y-13160000D01*
X6300000Y-14750000D02*
X8200000Y-14750000D01*
%TO.N,/connecter/~{BUSRQ}*%
X3610600Y-25354400D02*
X4208000Y-25354400D01*
X2794800Y-26170200D02*
X3610600Y-25354400D01*
X2794800Y-27567200D02*
X2794800Y-26170200D01*
X4596800Y-29369200D02*
X2794800Y-27567200D01*
X7684800Y-24750000D02*
X7912900Y-24978100D01*
X6300000Y-24750000D02*
X7684800Y-24750000D01*
X34128800Y-42211200D02*
X35240000Y-41100000D01*
X19254700Y-42211200D02*
X34128800Y-42211200D01*
X17051200Y-40007700D02*
X19254700Y-42211200D01*
%TO.N,/connecter/D7*%
X18199000Y-31679000D02*
X20000000Y-33480000D01*
X18199000Y-27045400D02*
X18199000Y-31679000D01*
X9903600Y-18750000D02*
X18199000Y-27045400D01*
X6300000Y-18750000D02*
X9903600Y-18750000D01*
%TO.N,/connecter/~{WR}*%
X6300000Y-23250000D02*
X2908900Y-23250000D01*
%TO.N,/connecter/~{IORQ}*%
X15244000Y-46504000D02*
X20000000Y-51260000D01*
X15244000Y-27565100D02*
X15244000Y-46504000D01*
X9928900Y-22250000D02*
X15244000Y-27565100D01*
X6300000Y-22250000D02*
X9928900Y-22250000D01*
%TO.N,/connecter/~{RESET}*%
X11051600Y-11890000D02*
X10347100Y-12594500D01*
X33847200Y-11890000D02*
X11051600Y-11890000D01*
X7330200Y-25250000D02*
X6300000Y-25250000D01*
X7770900Y-25690700D02*
X7330200Y-25250000D01*
X8290800Y-25690700D02*
X7770900Y-25690700D01*
D17*
%TO.N,GND*%
X28275000Y-27175000D02*
X28250000Y-27150000D01*
X28275000Y-28750000D02*
X28275000Y-27175000D01*
D18*
X6300000Y-26750000D02*
X4000000Y-26750000D01*
D17*
X34550000Y-30250000D02*
X35240000Y-30940000D01*
X28275000Y-30250000D02*
X34550000Y-30250000D01*
X28275000Y-28750000D02*
X28275000Y-30250000D01*
D16*
X3685900Y-42684200D02*
X3685900Y-42542600D01*
X3700000Y-42698300D02*
X3685900Y-42684200D01*
X3700000Y-43950000D02*
X3700000Y-42698300D01*
D18*
%TO.N,+5V*%
X20000000Y-27600000D02*
X20000000Y-28250000D01*
X10150000Y-17750000D02*
X20000000Y-27600000D01*
X6300000Y-17750000D02*
X10150000Y-17750000D01*
D16*
X20000000Y-28250000D02*
X20000000Y-28400000D01*
D17*
X26725000Y-28750000D02*
X26725000Y-30250000D01*
X20000000Y-28400000D02*
X26375000Y-28400000D01*
D16*
X26375000Y-28400000D02*
X26725000Y-28750000D01*
%TD*%
%TA.AperFunction,Conductor*%
%TO.N,GND*%
G36*
X3707573Y-11058157D02*
G01*
X3708918Y-11059502D01*
X4541866Y-12040422D01*
X4544609Y-12048946D01*
X4540521Y-12056913D01*
X4539867Y-12057430D01*
X3803089Y-12597735D01*
X3796170Y-12600000D01*
X3603830Y-12600000D01*
X3596911Y-12597735D01*
X2860132Y-12057430D01*
X2855487Y-12049774D01*
X2857616Y-12041076D01*
X2858133Y-12040422D01*
X3691082Y-11059502D01*
X3699049Y-11055414D01*
X3707573Y-11058157D01*
G37*
%TD.AperFunction*%
%TD*%
%TA.AperFunction,Conductor*%
%TO.N,GND*%
G36*
X3799571Y-12157750D02*
G01*
X3802503Y-12162657D01*
X3916989Y-12543829D01*
X3916087Y-12552739D01*
X3909150Y-12558400D01*
X3908116Y-12558660D01*
X3702332Y-12600525D01*
X3697668Y-12600525D01*
X3491883Y-12558660D01*
X3484459Y-12553653D01*
X3482750Y-12544863D01*
X3483010Y-12543829D01*
X3597497Y-12162657D01*
X3603158Y-12155720D01*
X3608702Y-12154323D01*
X3791298Y-12154323D01*
X3799571Y-12157750D01*
G37*
%TD.AperFunction*%
%TD*%
%TA.AperFunction,Conductor*%
%TO.N,/connecter/A8*%
G36*
X36449259Y-6961600D02*
G01*
X36452686Y-6969873D01*
X36452068Y-6973625D01*
X36027917Y-8226357D01*
X36022018Y-8233094D01*
X36014567Y-8234083D01*
X35247682Y-8082518D01*
X35240230Y-8077552D01*
X35238474Y-8073320D01*
X35086024Y-7305925D01*
X35087773Y-7297142D01*
X35094266Y-7292400D01*
X36255717Y-6958628D01*
X36258949Y-6958173D01*
X36440986Y-6958173D01*
X36449259Y-6961600D01*
G37*
%TD.AperFunction*%
%TD*%
%TA.AperFunction,Conductor*%
%TO.N,/connecter/A8*%
G36*
X11506170Y-842010D02*
G01*
X11535712Y-850883D01*
X11887344Y-956497D01*
X11894280Y-962157D01*
X11895677Y-967701D01*
X11895677Y-1150298D01*
X11892250Y-1158571D01*
X11887343Y-1161503D01*
X11506170Y-1275989D01*
X11497260Y-1275087D01*
X11491599Y-1268150D01*
X11491341Y-1267127D01*
X11449474Y-1061329D01*
X11449474Y-1056668D01*
X11491340Y-850881D01*
X11496346Y-843459D01*
X11505136Y-841750D01*
X11506170Y-842010D01*
G37*
%TD.AperFunction*%
%TD*%
%TA.AperFunction,Conductor*%
%TO.N,/connecter/~{RD}*%
G36*
X3250870Y-47500710D02*
G01*
X3280412Y-47509583D01*
X3632044Y-47615197D01*
X3638980Y-47620857D01*
X3640377Y-47626401D01*
X3640377Y-47808998D01*
X3636950Y-47817271D01*
X3632043Y-47820203D01*
X3250870Y-47934689D01*
X3241960Y-47933787D01*
X3236299Y-47926850D01*
X3236041Y-47925827D01*
X3194174Y-47720029D01*
X3194174Y-47715368D01*
X3236040Y-47509581D01*
X3241046Y-47502159D01*
X3249836Y-47500450D01*
X3250870Y-47500710D01*
G37*
%TD.AperFunction*%
%TD*%
%TA.AperFunction,Conductor*%
%TO.N,/connecter/~{RD}*%
G36*
X35233020Y-51257772D02*
G01*
X35240470Y-51262740D01*
X35242227Y-51266979D01*
X35394078Y-52034551D01*
X35392321Y-52043332D01*
X35386338Y-52047909D01*
X34197087Y-52448892D01*
X34188153Y-52448288D01*
X34185076Y-52446078D01*
X34053921Y-52314923D01*
X34050494Y-52306650D01*
X34051107Y-52302912D01*
X34141591Y-52034551D01*
X34452090Y-51113660D01*
X34457981Y-51106916D01*
X34465446Y-51105921D01*
X35233020Y-51257772D01*
G37*
%TD.AperFunction*%
%TD*%
%TA.AperFunction,Conductor*%
%TO.N,/connecter/~{WR}*%
G36*
X35233020Y-48717772D02*
G01*
X35240470Y-48722740D01*
X35242227Y-48726979D01*
X35394078Y-49494551D01*
X35392321Y-49503332D01*
X35386338Y-49507909D01*
X34197087Y-49908892D01*
X34188153Y-49908288D01*
X34185076Y-49906078D01*
X34053921Y-49774923D01*
X34050494Y-49766650D01*
X34051107Y-49762912D01*
X34141591Y-49494551D01*
X34452090Y-48573660D01*
X34457981Y-48566916D01*
X34465446Y-48565921D01*
X35233020Y-48717772D01*
G37*
%TD.AperFunction*%
%TD*%
%TA.AperFunction,Conductor*%
%TO.N,/connecter/~{WR}*%
G36*
X3091370Y-46517410D02*
G01*
X3120912Y-46526283D01*
X3472544Y-46631897D01*
X3479480Y-46637557D01*
X3480877Y-46643101D01*
X3480877Y-46825698D01*
X3477450Y-46833971D01*
X3472543Y-46836903D01*
X3091370Y-46951389D01*
X3082460Y-46950487D01*
X3076799Y-46943550D01*
X3076541Y-46942527D01*
X3034674Y-46736729D01*
X3034674Y-46732068D01*
X3076540Y-46526281D01*
X3081546Y-46518859D01*
X3090336Y-46517150D01*
X3091370Y-46517410D01*
G37*
%TD.AperFunction*%
%TD*%
%TA.AperFunction,Conductor*%
%TO.N,/connecter/~{MREQ}*%
G36*
X18957087Y-47531107D02*
G01*
X20146338Y-47932090D01*
X20153083Y-47937981D01*
X20154078Y-47945448D01*
X20002227Y-48713020D01*
X19997259Y-48720470D01*
X19993020Y-48722227D01*
X19225448Y-48874078D01*
X19216667Y-48872321D01*
X19212090Y-48866338D01*
X18811107Y-47677087D01*
X18811711Y-47668153D01*
X18813918Y-47665079D01*
X18945077Y-47533920D01*
X18953349Y-47530494D01*
X18957087Y-47531107D01*
G37*
%TD.AperFunction*%
%TD*%
%TA.AperFunction,Conductor*%
%TO.N,/connecter/~{MREQ}*%
G36*
X7057328Y-21578843D02*
G01*
X7061098Y-21579756D01*
X7217910Y-21646961D01*
X7224163Y-21653369D01*
X7225000Y-21657714D01*
X7225000Y-21842285D01*
X7221573Y-21850558D01*
X7217909Y-21853039D01*
X7053527Y-21923488D01*
X7046263Y-21924129D01*
X6347900Y-21761394D01*
X6340620Y-21756179D01*
X6339160Y-21747344D01*
X6344375Y-21740064D01*
X6347893Y-21738606D01*
X7037334Y-21577951D01*
X7040796Y-21577676D01*
X7057328Y-21578843D01*
G37*
%TD.AperFunction*%
%TD*%
%TA.AperFunction,Conductor*%
%TO.N,/connecter/~{M1}*%
G36*
X9591493Y-27778824D02*
G01*
X9592401Y-27779367D01*
X9767522Y-27895279D01*
X9770820Y-27898577D01*
X9886728Y-28073692D01*
X9888437Y-28082483D01*
X9883430Y-28089906D01*
X9882516Y-28090453D01*
X9532033Y-28279027D01*
X9523123Y-28279929D01*
X9518216Y-28276997D01*
X9389102Y-28147883D01*
X9385675Y-28139610D01*
X9387071Y-28134067D01*
X9575647Y-27783582D01*
X9582583Y-27777922D01*
X9591493Y-27778824D01*
G37*
%TD.AperFunction*%
%TD*%
%TA.AperFunction,Conductor*%
%TO.N,/connecter/~{M1}*%
G36*
X7053525Y-25576510D02*
G01*
X7217910Y-25646961D01*
X7224163Y-25653369D01*
X7225000Y-25657714D01*
X7225000Y-25842285D01*
X7221573Y-25850558D01*
X7217909Y-25853039D01*
X7053527Y-25923488D01*
X7046263Y-25924129D01*
X6695034Y-25842285D01*
X6347899Y-25761394D01*
X6340620Y-25756180D01*
X6339160Y-25747345D01*
X6344375Y-25740065D01*
X6347898Y-25738605D01*
X7046265Y-25575870D01*
X7053525Y-25576510D01*
G37*
%TD.AperFunction*%
%TD*%
%TA.AperFunction,Conductor*%
%TO.N,/connecter/~{M1}*%
G36*
X18739606Y-36052369D02*
G01*
X18740153Y-36053283D01*
X18928727Y-36403766D01*
X18929629Y-36412676D01*
X18926697Y-36417583D01*
X18797583Y-36546697D01*
X18789310Y-36550124D01*
X18783766Y-36548727D01*
X18433283Y-36360153D01*
X18427622Y-36353216D01*
X18428524Y-36344306D01*
X18429061Y-36343407D01*
X18544981Y-36168274D01*
X18548274Y-36164981D01*
X18723394Y-36049070D01*
X18732183Y-36047362D01*
X18739606Y-36052369D01*
G37*
%TD.AperFunction*%
%TD*%
%TA.AperFunction,Conductor*%
%TO.N,/connecter/~{M1}*%
G36*
X35233320Y-36018474D02*
G01*
X35240767Y-36023447D01*
X35242518Y-36027682D01*
X35394026Y-36794278D01*
X35392268Y-36803058D01*
X35385988Y-36807729D01*
X34118774Y-37197542D01*
X34109859Y-37196699D01*
X34104151Y-37189799D01*
X34103634Y-37186359D01*
X34103634Y-37003964D01*
X34104156Y-37000510D01*
X34452258Y-35874003D01*
X34457974Y-35867111D01*
X34465713Y-35865982D01*
X35233320Y-36018474D01*
G37*
%TD.AperFunction*%
%TD*%
%TA.AperFunction,Conductor*%
%TO.N,/connecter/D6*%
G36*
X18957087Y-24671107D02*
G01*
X20146338Y-25072090D01*
X20153083Y-25077981D01*
X20154078Y-25085448D01*
X20002227Y-25853020D01*
X19997259Y-25860470D01*
X19993020Y-25862227D01*
X19225448Y-26014078D01*
X19216667Y-26012321D01*
X19212090Y-26006338D01*
X18811107Y-24817087D01*
X18811711Y-24808153D01*
X18813918Y-24805079D01*
X18945077Y-24673920D01*
X18953349Y-24670494D01*
X18957087Y-24671107D01*
G37*
%TD.AperFunction*%
%TD*%
%TA.AperFunction,Conductor*%
%TO.N,/connecter/D6*%
G36*
X7053525Y-17076510D02*
G01*
X7217910Y-17146961D01*
X7224163Y-17153369D01*
X7225000Y-17157714D01*
X7225000Y-17342285D01*
X7221573Y-17350558D01*
X7217909Y-17353039D01*
X7053527Y-17423488D01*
X7046263Y-17424129D01*
X6695034Y-17342285D01*
X6347899Y-17261394D01*
X6340620Y-17256180D01*
X6339160Y-17247345D01*
X6344375Y-17240065D01*
X6347898Y-17238605D01*
X7046265Y-17075870D01*
X7053525Y-17076510D01*
G37*
%TD.AperFunction*%
%TD*%
%TA.AperFunction,Conductor*%
%TO.N,/connecter/A8*%
G36*
X6206553Y-31227991D02*
G01*
X6252099Y-31238605D01*
X6259379Y-31243820D01*
X6260839Y-31252655D01*
X6255624Y-31259935D01*
X6252099Y-31261395D01*
X5553736Y-31424129D01*
X5546472Y-31423488D01*
X5382091Y-31353039D01*
X5375837Y-31346630D01*
X5375000Y-31342285D01*
X5375000Y-31157714D01*
X5378427Y-31149441D01*
X5382086Y-31146962D01*
X5546474Y-31076510D01*
X5553734Y-31075870D01*
X6206553Y-31227991D01*
G37*
%TD.AperFunction*%
%TD*%
%TA.AperFunction,Conductor*%
%TO.N,/connecter/A8*%
G36*
X2098517Y-25098939D02*
G01*
X2105940Y-25103946D01*
X2107649Y-25112736D01*
X2107389Y-25113770D01*
X1992903Y-25494943D01*
X1987242Y-25501880D01*
X1981698Y-25503277D01*
X1799102Y-25503277D01*
X1790829Y-25499850D01*
X1787897Y-25494943D01*
X1673410Y-25113770D01*
X1674312Y-25104860D01*
X1681249Y-25099199D01*
X1682267Y-25098943D01*
X1888070Y-25057074D01*
X1892730Y-25057074D01*
X2098517Y-25098939D01*
G37*
%TD.AperFunction*%
%TD*%
%TA.AperFunction,Conductor*%
%TO.N,/connecter/A2*%
G36*
X7053525Y-28076510D02*
G01*
X7217910Y-28146961D01*
X7224163Y-28153369D01*
X7225000Y-28157714D01*
X7225000Y-28342285D01*
X7221573Y-28350558D01*
X7217909Y-28353039D01*
X7053527Y-28423488D01*
X7046263Y-28424129D01*
X6695034Y-28342285D01*
X6347899Y-28261394D01*
X6340620Y-28256180D01*
X6339160Y-28247345D01*
X6344375Y-28240065D01*
X6347898Y-28238605D01*
X7046265Y-28075870D01*
X7053525Y-28076510D01*
G37*
%TD.AperFunction*%
%TD*%
%TA.AperFunction,Conductor*%
%TO.N,/connecter/A2*%
G36*
X11777061Y-25768634D02*
G01*
X11781376Y-25773977D01*
X11870099Y-25995133D01*
X11922559Y-26125896D01*
X11922459Y-26134850D01*
X11916056Y-26141111D01*
X11911700Y-26141952D01*
X11731721Y-26141952D01*
X11726559Y-26140752D01*
X11714554Y-26134850D01*
X11684240Y-26119946D01*
X11444054Y-26001859D01*
X11438141Y-25995133D01*
X11438716Y-25986197D01*
X11439465Y-25984894D01*
X11554392Y-25811974D01*
X11561822Y-25806982D01*
X11768288Y-25766849D01*
X11777061Y-25768634D01*
G37*
%TD.AperFunction*%
%TD*%
%TA.AperFunction,Conductor*%
%TO.N,/connecter/A2*%
G36*
X35233320Y-23318474D02*
G01*
X35240767Y-23323447D01*
X35242518Y-23327682D01*
X35394015Y-24094223D01*
X35392257Y-24103003D01*
X35385917Y-24107692D01*
X34115938Y-24490949D01*
X34107028Y-24490059D01*
X34101357Y-24483128D01*
X34100858Y-24479748D01*
X34100858Y-24297290D01*
X34101393Y-24293792D01*
X34405396Y-23323447D01*
X34452231Y-23173952D01*
X34457975Y-23167083D01*
X34465676Y-23165975D01*
X35233320Y-23318474D01*
G37*
%TD.AperFunction*%
%TD*%
%TA.AperFunction,Conductor*%
%TO.N,/connecter/A2*%
G36*
X16916741Y-21522549D02*
G01*
X17123728Y-21564251D01*
X17131161Y-21569245D01*
X17133113Y-21576034D01*
X17126212Y-21833505D01*
X17122789Y-21841465D01*
X16994028Y-21970226D01*
X16985755Y-21973653D01*
X16977482Y-21970226D01*
X16976528Y-21969147D01*
X16733325Y-21657188D01*
X16730941Y-21648556D01*
X16735358Y-21640767D01*
X16735991Y-21640306D01*
X16907936Y-21524328D01*
X16916712Y-21522544D01*
X16916741Y-21522549D01*
G37*
%TD.AperFunction*%
%TD*%
%TA.AperFunction,Conductor*%
%TO.N,/connecter/A2*%
G36*
X16916741Y-21522549D02*
G01*
X17123728Y-21564251D01*
X17131161Y-21569245D01*
X17133113Y-21576034D01*
X17126212Y-21833505D01*
X17122789Y-21841465D01*
X16994028Y-21970226D01*
X16985755Y-21973653D01*
X16977482Y-21970226D01*
X16976528Y-21969147D01*
X16733325Y-21657188D01*
X16730941Y-21648556D01*
X16735358Y-21640767D01*
X16735991Y-21640306D01*
X16907936Y-21524328D01*
X16916712Y-21522544D01*
X16916741Y-21522549D01*
G37*
%TD.AperFunction*%
%TD*%
%TA.AperFunction,Conductor*%
%TO.N,/connecter/A2*%
G36*
X16916741Y-21522549D02*
G01*
X17123728Y-21564251D01*
X17131161Y-21569245D01*
X17133113Y-21576034D01*
X17126212Y-21833505D01*
X17122789Y-21841465D01*
X16994028Y-21970226D01*
X16985755Y-21973653D01*
X16977482Y-21970226D01*
X16976528Y-21969147D01*
X16733325Y-21657188D01*
X16730941Y-21648556D01*
X16735358Y-21640767D01*
X16735991Y-21640306D01*
X16907936Y-21524328D01*
X16916712Y-21522544D01*
X16916741Y-21522549D01*
G37*
%TD.AperFunction*%
%TD*%
%TA.AperFunction,Conductor*%
%TO.N,/connecter/D0*%
G36*
X18957081Y-34831104D02*
G01*
X18967858Y-34834738D01*
X18972391Y-34837551D01*
X19159466Y-35024626D01*
X19159469Y-35024630D01*
X19160136Y-35025297D01*
X19230603Y-35095764D01*
X19288660Y-35119812D01*
X19322669Y-35133899D01*
X19322670Y-35133899D01*
X19322672Y-35133900D01*
X19322674Y-35133900D01*
X19853203Y-35133900D01*
X19856941Y-35134513D01*
X20146338Y-35232090D01*
X20153083Y-35237981D01*
X20154078Y-35245448D01*
X20002227Y-36013020D01*
X19997259Y-36020470D01*
X19993020Y-36022227D01*
X19225448Y-36174078D01*
X19216667Y-36172321D01*
X19212090Y-36166338D01*
X18811107Y-34977087D01*
X18811711Y-34968153D01*
X18813918Y-34965079D01*
X18945078Y-34833919D01*
X18953350Y-34830493D01*
X18957081Y-34831104D01*
G37*
%TD.AperFunction*%
%TD*%
%TA.AperFunction,Conductor*%
%TO.N,/connecter/D0*%
G36*
X7057328Y-19078843D02*
G01*
X7061098Y-19079756D01*
X7217910Y-19146961D01*
X7224163Y-19153369D01*
X7225000Y-19157714D01*
X7225000Y-19342285D01*
X7221573Y-19350558D01*
X7217909Y-19353039D01*
X7053527Y-19423488D01*
X7046263Y-19424129D01*
X6347900Y-19261394D01*
X6340620Y-19256179D01*
X6339160Y-19247344D01*
X6344375Y-19240064D01*
X6347893Y-19238606D01*
X7037334Y-19077951D01*
X7040796Y-19077676D01*
X7057328Y-19078843D01*
G37*
%TD.AperFunction*%
%TD*%
%TA.AperFunction,Conductor*%
%TO.N,/connecter/~{RD}*%
G36*
X2928606Y-20761369D02*
G01*
X2929153Y-20762283D01*
X3117727Y-21112766D01*
X3118629Y-21121676D01*
X3115697Y-21126583D01*
X2986583Y-21255697D01*
X2978310Y-21259124D01*
X2972766Y-21257727D01*
X2622283Y-21069153D01*
X2616622Y-21062216D01*
X2617524Y-21053306D01*
X2618061Y-21052407D01*
X2733981Y-20877274D01*
X2737274Y-20873981D01*
X2912394Y-20758070D01*
X2921183Y-20756362D01*
X2928606Y-20761369D01*
G37*
%TD.AperFunction*%
%TD*%
%TA.AperFunction,Conductor*%
%TO.N,/connecter/~{RD}*%
G36*
X6206553Y-22727991D02*
G01*
X6252099Y-22738605D01*
X6259379Y-22743820D01*
X6260839Y-22752655D01*
X6255624Y-22759935D01*
X6252099Y-22761395D01*
X5553736Y-22924129D01*
X5546472Y-22923488D01*
X5382091Y-22853039D01*
X5375837Y-22846630D01*
X5375000Y-22842285D01*
X5375000Y-22657714D01*
X5378427Y-22649441D01*
X5382086Y-22646962D01*
X5546474Y-22576510D01*
X5553734Y-22575870D01*
X6206553Y-22727991D01*
G37*
%TD.AperFunction*%
%TD*%
%TA.AperFunction,Conductor*%
%TO.N,/connecter/A14*%
G36*
X19561259Y-9963358D02*
G01*
X19996640Y-10613490D01*
X19998397Y-10622271D01*
X19996640Y-10626510D01*
X19561259Y-11276641D01*
X19553809Y-11281609D01*
X19546342Y-11280614D01*
X18421876Y-10723223D01*
X18415985Y-10716478D01*
X18415372Y-10712740D01*
X18415372Y-10527259D01*
X18418799Y-10518986D01*
X18421876Y-10516776D01*
X19546342Y-9959384D01*
X19555276Y-9958781D01*
X19561259Y-9963358D01*
G37*
%TD.AperFunction*%
%TD*%
%TA.AperFunction,Conductor*%
%TO.N,/connecter/A14*%
G36*
X7057328Y-14078843D02*
G01*
X7061098Y-14079756D01*
X7217910Y-14146961D01*
X7224163Y-14153369D01*
X7225000Y-14157714D01*
X7225000Y-14342284D01*
X7221573Y-14350557D01*
X7217909Y-14353038D01*
X7061113Y-14420236D01*
X7057328Y-14421153D01*
X7040797Y-14422320D01*
X7037318Y-14422044D01*
X6347900Y-14261394D01*
X6340620Y-14256179D01*
X6339160Y-14247344D01*
X6344375Y-14240064D01*
X6347893Y-14238606D01*
X7037334Y-14077951D01*
X7040796Y-14077676D01*
X7057328Y-14078843D01*
G37*
%TD.AperFunction*%
%TD*%
%TA.AperFunction,Conductor*%
%TO.N,/connecter/A6*%
G36*
X7053525Y-30076510D02*
G01*
X7217910Y-30146961D01*
X7224163Y-30153369D01*
X7225000Y-30157714D01*
X7225000Y-30342285D01*
X7221573Y-30350558D01*
X7217909Y-30353039D01*
X7053527Y-30423488D01*
X7046263Y-30424129D01*
X6695034Y-30342285D01*
X6347899Y-30261394D01*
X6340620Y-30256180D01*
X6339160Y-30247345D01*
X6344375Y-30240065D01*
X6347898Y-30238605D01*
X7046265Y-30075870D01*
X7053525Y-30076510D01*
G37*
%TD.AperFunction*%
%TD*%
%TA.AperFunction,Conductor*%
%TO.N,/connecter/A6*%
G36*
X13295525Y-30027616D02*
G01*
X13301287Y-30034471D01*
X13301597Y-30035667D01*
X13343425Y-30241268D01*
X13343425Y-30245932D01*
X13301523Y-30451899D01*
X13296516Y-30459323D01*
X13287726Y-30461032D01*
X13286857Y-30460821D01*
X12905722Y-30352417D01*
X12898702Y-30346857D01*
X12897223Y-30341163D01*
X12897223Y-30158570D01*
X12900650Y-30150297D01*
X12905393Y-30147415D01*
X13286607Y-30026844D01*
X13295525Y-30027616D01*
G37*
%TD.AperFunction*%
%TD*%
%TA.AperFunction,Conductor*%
%TO.N,/connecter/D1*%
G36*
X18957087Y-37371107D02*
G01*
X20146338Y-37772090D01*
X20153083Y-37777981D01*
X20154078Y-37785448D01*
X20002227Y-38553020D01*
X19997259Y-38560470D01*
X19993020Y-38562227D01*
X19225448Y-38714078D01*
X19216667Y-38712321D01*
X19212090Y-38706338D01*
X18811107Y-37517087D01*
X18811711Y-37508153D01*
X18813918Y-37505079D01*
X18945077Y-37373920D01*
X18953349Y-37370494D01*
X18957087Y-37371107D01*
G37*
%TD.AperFunction*%
%TD*%
%TA.AperFunction,Conductor*%
%TO.N,/connecter/D1*%
G36*
X7057328Y-19578843D02*
G01*
X7061098Y-19579756D01*
X7217910Y-19646961D01*
X7224163Y-19653369D01*
X7225000Y-19657714D01*
X7225000Y-19842284D01*
X7221573Y-19850557D01*
X7217909Y-19853038D01*
X7061113Y-19920236D01*
X7057328Y-19921153D01*
X7040797Y-19922320D01*
X7037318Y-19922044D01*
X6347900Y-19761394D01*
X6340620Y-19756179D01*
X6339160Y-19747344D01*
X6344375Y-19740064D01*
X6347893Y-19738606D01*
X7037334Y-19577951D01*
X7040796Y-19577676D01*
X7057328Y-19578843D01*
G37*
%TD.AperFunction*%
%TD*%
%TA.AperFunction,Conductor*%
%TO.N,/connecter/~{NMI}*%
G36*
X18957087Y-42451107D02*
G01*
X20146338Y-42852090D01*
X20153083Y-42857981D01*
X20154078Y-42865448D01*
X20002227Y-43633020D01*
X19997259Y-43640470D01*
X19993020Y-43642227D01*
X19225448Y-43794078D01*
X19216667Y-43792321D01*
X19212090Y-43786338D01*
X18811107Y-42597087D01*
X18811711Y-42588153D01*
X18813918Y-42585079D01*
X18945077Y-42453920D01*
X18953349Y-42450494D01*
X18957087Y-42451107D01*
G37*
%TD.AperFunction*%
%TD*%
%TA.AperFunction,Conductor*%
%TO.N,/connecter/~{NMI}*%
G36*
X7057328Y-20578843D02*
G01*
X7061098Y-20579756D01*
X7217910Y-20646961D01*
X7224163Y-20653369D01*
X7225000Y-20657714D01*
X7225000Y-20842284D01*
X7221573Y-20850557D01*
X7217909Y-20853038D01*
X7061113Y-20920236D01*
X7057328Y-20921153D01*
X7040797Y-20922320D01*
X7037318Y-20922044D01*
X6347900Y-20761394D01*
X6340620Y-20756179D01*
X6339160Y-20747344D01*
X6344375Y-20740064D01*
X6347893Y-20738606D01*
X7037334Y-20577951D01*
X7040796Y-20577676D01*
X7057328Y-20578843D01*
G37*
%TD.AperFunction*%
%TD*%
%TA.AperFunction,Conductor*%
%TO.N,/connecter/A5*%
G36*
X35233020Y-15697772D02*
G01*
X35240470Y-15702740D01*
X35242227Y-15706979D01*
X35394078Y-16474551D01*
X35392321Y-16483332D01*
X35386338Y-16487909D01*
X34197087Y-16888892D01*
X34188153Y-16888288D01*
X34185076Y-16886078D01*
X34053921Y-16754923D01*
X34050494Y-16746650D01*
X34051107Y-16742912D01*
X34141591Y-16474551D01*
X34452090Y-15553660D01*
X34457981Y-15546916D01*
X34465446Y-15545921D01*
X35233020Y-15697772D01*
G37*
%TD.AperFunction*%
%TD*%
%TA.AperFunction,Conductor*%
%TO.N,/connecter/A5*%
G36*
X9782770Y-14125410D02*
G01*
X9812312Y-14134283D01*
X10163944Y-14239897D01*
X10170880Y-14245557D01*
X10172277Y-14251101D01*
X10172277Y-14433698D01*
X10168850Y-14441971D01*
X10163943Y-14444903D01*
X9782770Y-14559389D01*
X9773860Y-14558487D01*
X9768199Y-14551550D01*
X9767941Y-14550527D01*
X9726074Y-14344729D01*
X9726074Y-14340068D01*
X9767940Y-14134281D01*
X9772946Y-14126859D01*
X9781736Y-14125150D01*
X9782770Y-14125410D01*
G37*
%TD.AperFunction*%
%TD*%
%TA.AperFunction,Conductor*%
%TO.N,/connecter/A5*%
G36*
X6206553Y-29727991D02*
G01*
X6252099Y-29738605D01*
X6259379Y-29743820D01*
X6260839Y-29752655D01*
X6255624Y-29759935D01*
X6252099Y-29761395D01*
X5553736Y-29924129D01*
X5546472Y-29923488D01*
X5382091Y-29853039D01*
X5375837Y-29846630D01*
X5375000Y-29842285D01*
X5375000Y-29657714D01*
X5378427Y-29649441D01*
X5382086Y-29646962D01*
X5546474Y-29576510D01*
X5553734Y-29575870D01*
X6206553Y-29727991D01*
G37*
%TD.AperFunction*%
%TD*%
%TA.AperFunction,Conductor*%
%TO.N,/connecter/A5*%
G36*
X4591777Y-25566446D02*
G01*
X4708961Y-25740434D01*
X4710741Y-25749210D01*
X4710722Y-25749302D01*
X4668889Y-25954931D01*
X4663882Y-25962355D01*
X4656390Y-25964253D01*
X4293378Y-25932046D01*
X4285440Y-25927902D01*
X4282712Y-25920392D01*
X4282712Y-25757986D01*
X4286139Y-25749713D01*
X4291382Y-25746686D01*
X4362587Y-25727607D01*
X4453913Y-25674880D01*
X4528480Y-25600313D01*
X4535617Y-25587950D01*
X4539922Y-25583658D01*
X4576256Y-25562830D01*
X4585137Y-25561690D01*
X4591777Y-25566446D01*
G37*
%TD.AperFunction*%
%TD*%
%TA.AperFunction,Conductor*%
%TO.N,/connecter/A9*%
G36*
X35233020Y-5537772D02*
G01*
X35240470Y-5542740D01*
X35242227Y-5546979D01*
X35394078Y-6314551D01*
X35392321Y-6323332D01*
X35386338Y-6327909D01*
X34197087Y-6728892D01*
X34188153Y-6728288D01*
X34185076Y-6726078D01*
X34053921Y-6594923D01*
X34050494Y-6586650D01*
X34051107Y-6582912D01*
X34141591Y-6314551D01*
X34452090Y-5393660D01*
X34457981Y-5386916D01*
X34465446Y-5385921D01*
X35233020Y-5537772D01*
G37*
%TD.AperFunction*%
%TD*%
%TA.AperFunction,Conductor*%
%TO.N,/connecter/A9*%
G36*
X14706983Y-6965702D02*
G01*
X14836097Y-7094816D01*
X14839524Y-7103089D01*
X14838127Y-7108633D01*
X14649553Y-7459116D01*
X14642616Y-7464777D01*
X14633706Y-7463875D01*
X14632792Y-7463328D01*
X14457677Y-7347420D01*
X14454379Y-7344122D01*
X14338471Y-7169007D01*
X14336762Y-7160216D01*
X14341769Y-7152793D01*
X14342671Y-7152252D01*
X14693167Y-6963671D01*
X14702076Y-6962770D01*
X14706983Y-6965702D01*
G37*
%TD.AperFunction*%
%TD*%
%TA.AperFunction,Conductor*%
%TO.N,/connecter/A9*%
G36*
X9658693Y-25254524D02*
G01*
X9659601Y-25255067D01*
X9834722Y-25370979D01*
X9838020Y-25374277D01*
X9953928Y-25549392D01*
X9955637Y-25558183D01*
X9950630Y-25565606D01*
X9949716Y-25566153D01*
X9599233Y-25754727D01*
X9590323Y-25755629D01*
X9585416Y-25752697D01*
X9456302Y-25623583D01*
X9452875Y-25615310D01*
X9454271Y-25609767D01*
X9642847Y-25259282D01*
X9649783Y-25253622D01*
X9658693Y-25254524D01*
G37*
%TD.AperFunction*%
%TD*%
%TA.AperFunction,Conductor*%
%TO.N,/connecter/A9*%
G36*
X9176371Y-27268550D02*
G01*
X9179303Y-27273457D01*
X9293789Y-27654629D01*
X9292887Y-27663539D01*
X9285950Y-27669200D01*
X9284916Y-27669460D01*
X9079132Y-27711325D01*
X9074468Y-27711325D01*
X8868683Y-27669460D01*
X8861259Y-27664453D01*
X8859550Y-27655663D01*
X8859810Y-27654629D01*
X8974297Y-27273457D01*
X8979958Y-27266520D01*
X8985502Y-27265123D01*
X9168098Y-27265123D01*
X9176371Y-27268550D01*
G37*
%TD.AperFunction*%
%TD*%
%TA.AperFunction,Conductor*%
%TO.N,/connecter/A9*%
G36*
X10461693Y-30752524D02*
G01*
X10462601Y-30753067D01*
X10637722Y-30868979D01*
X10641020Y-30872277D01*
X10756928Y-31047392D01*
X10758637Y-31056183D01*
X10753630Y-31063606D01*
X10752716Y-31064153D01*
X10402233Y-31252727D01*
X10393323Y-31253629D01*
X10388416Y-31250697D01*
X10259302Y-31121583D01*
X10255875Y-31113310D01*
X10257271Y-31107767D01*
X10445847Y-30757282D01*
X10452783Y-30751622D01*
X10461693Y-30752524D01*
G37*
%TD.AperFunction*%
%TD*%
%TA.AperFunction,Conductor*%
%TO.N,/connecter/A9*%
G36*
X7053525Y-31576510D02*
G01*
X7217910Y-31646961D01*
X7224163Y-31653369D01*
X7225000Y-31657714D01*
X7225000Y-31842285D01*
X7221573Y-31850558D01*
X7217909Y-31853039D01*
X7053527Y-31923488D01*
X7046263Y-31924129D01*
X6695034Y-31842285D01*
X6347899Y-31761394D01*
X6340620Y-31756180D01*
X6339160Y-31747345D01*
X6344375Y-31740065D01*
X6347898Y-31738605D01*
X7046265Y-31575870D01*
X7053525Y-31576510D01*
G37*
%TD.AperFunction*%
%TD*%
%TA.AperFunction,Conductor*%
%TO.N,/connecter/A10*%
G36*
X1131083Y-9456302D02*
G01*
X1260197Y-9585416D01*
X1263624Y-9593689D01*
X1262227Y-9599233D01*
X1073653Y-9949716D01*
X1066716Y-9955377D01*
X1057806Y-9954475D01*
X1056892Y-9953928D01*
X881777Y-9838020D01*
X878479Y-9834722D01*
X762571Y-9659607D01*
X760862Y-9650816D01*
X765869Y-9643393D01*
X766771Y-9642852D01*
X1117267Y-9454271D01*
X1126176Y-9453370D01*
X1131083Y-9456302D01*
G37*
%TD.AperFunction*%
%TD*%
%TA.AperFunction,Conductor*%
%TO.N,/connecter/A10*%
G36*
X34123931Y-1810452D02*
G01*
X35386117Y-2212203D01*
X35392961Y-2217978D01*
X35394046Y-2225620D01*
X35242518Y-2992317D01*
X35237552Y-2999769D01*
X35233320Y-3001525D01*
X34465789Y-3154002D01*
X34457006Y-3152253D01*
X34452307Y-3145902D01*
X34408800Y-3001525D01*
X34109185Y-2007252D01*
X34108687Y-2003876D01*
X34108687Y-1821602D01*
X34112114Y-1813329D01*
X34120387Y-1809902D01*
X34123931Y-1810452D01*
G37*
%TD.AperFunction*%
%TD*%
%TA.AperFunction,Conductor*%
%TO.N,/connecter/A10*%
G36*
X6206553Y-32227991D02*
G01*
X6252099Y-32238605D01*
X6259379Y-32243820D01*
X6260839Y-32252655D01*
X6255624Y-32259935D01*
X6252099Y-32261395D01*
X5553736Y-32424129D01*
X5546472Y-32423488D01*
X5382091Y-32353039D01*
X5375837Y-32346630D01*
X5375000Y-32342285D01*
X5375000Y-32157714D01*
X5378427Y-32149441D01*
X5382086Y-32146962D01*
X5546474Y-32076510D01*
X5553734Y-32075870D01*
X6206553Y-32227991D01*
G37*
%TD.AperFunction*%
%TD*%
%TA.AperFunction,Conductor*%
%TO.N,/connecter/A10*%
G36*
X2024597Y-31733536D02*
G01*
X2364812Y-31904399D01*
X2370667Y-31911174D01*
X2370016Y-31920105D01*
X2367834Y-31923127D01*
X2240057Y-32050904D01*
X2234890Y-32053911D01*
X1946392Y-32133345D01*
X1937506Y-32132238D01*
X1932006Y-32125171D01*
X1931820Y-32124395D01*
X1890659Y-31920088D01*
X1892385Y-31911303D01*
X1892429Y-31911237D01*
X1916818Y-31875078D01*
X2009649Y-31737449D01*
X2017115Y-31732507D01*
X2024597Y-31733536D01*
G37*
%TD.AperFunction*%
%TD*%
%TA.AperFunction,Conductor*%
%TO.N,/connecter/~{CLK}*%
G36*
X7053525Y-15076510D02*
G01*
X7217910Y-15146961D01*
X7224163Y-15153369D01*
X7225000Y-15157714D01*
X7225000Y-15342285D01*
X7221573Y-15350558D01*
X7217909Y-15353039D01*
X7053527Y-15423488D01*
X7046263Y-15424129D01*
X6695034Y-15342285D01*
X6347899Y-15261394D01*
X6340620Y-15256180D01*
X6339160Y-15247345D01*
X6344375Y-15240065D01*
X6347898Y-15238605D01*
X7046265Y-15075870D01*
X7053525Y-15076510D01*
G37*
%TD.AperFunction*%
%TD*%
%TA.AperFunction,Conductor*%
%TO.N,/connecter/~{CLK}*%
G36*
X19841385Y-14919311D02*
G01*
X19846180Y-14926622D01*
X20000045Y-15695232D01*
X19998309Y-15704017D01*
X19998294Y-15704039D01*
X19563468Y-16353343D01*
X19556018Y-16358311D01*
X19547237Y-16356554D01*
X19545474Y-16355106D01*
X18543795Y-15353427D01*
X18540368Y-15345154D01*
X18540368Y-15159782D01*
X18543795Y-15151509D01*
X18549994Y-15148267D01*
X19832636Y-14917404D01*
X19841385Y-14919311D01*
G37*
%TD.AperFunction*%
%TD*%
%TA.AperFunction,Conductor*%
%TO.N,/connecter/~{HALT}*%
G36*
X18957087Y-44991107D02*
G01*
X20146338Y-45392090D01*
X20153083Y-45397981D01*
X20154078Y-45405448D01*
X20002227Y-46173020D01*
X19997259Y-46180470D01*
X19993020Y-46182227D01*
X19225448Y-46334078D01*
X19216667Y-46332321D01*
X19212090Y-46326338D01*
X18811107Y-45137087D01*
X18811711Y-45128153D01*
X18813918Y-45125079D01*
X18945077Y-44993920D01*
X18953349Y-44990494D01*
X18957087Y-44991107D01*
G37*
%TD.AperFunction*%
%TD*%
%TA.AperFunction,Conductor*%
%TO.N,/connecter/~{HALT}*%
G36*
X7053525Y-21076510D02*
G01*
X7217910Y-21146961D01*
X7224163Y-21153369D01*
X7225000Y-21157714D01*
X7225000Y-21342285D01*
X7221573Y-21350558D01*
X7217909Y-21353039D01*
X7053527Y-21423488D01*
X7046263Y-21424129D01*
X6695034Y-21342285D01*
X6347899Y-21261394D01*
X6340620Y-21256180D01*
X6339160Y-21247345D01*
X6344375Y-21240065D01*
X6347898Y-21238605D01*
X7046265Y-21075870D01*
X7053525Y-21076510D01*
G37*
%TD.AperFunction*%
%TD*%
%TA.AperFunction,Conductor*%
%TO.N,/connecter/A1*%
G36*
X18006285Y-32419073D02*
G01*
X18321536Y-32544055D01*
X18435947Y-32589415D01*
X18442375Y-32595649D01*
X18442511Y-32604603D01*
X18439908Y-32608564D01*
X18312884Y-32735588D01*
X18308680Y-32738285D01*
X18006130Y-32850515D01*
X17997182Y-32850179D01*
X17991091Y-32843614D01*
X17990591Y-32841856D01*
X17949160Y-32636211D01*
X17949163Y-32631575D01*
X17956381Y-32595976D01*
X17990516Y-32427626D01*
X17995519Y-32420200D01*
X18004308Y-32418485D01*
X18006285Y-32419073D01*
G37*
%TD.AperFunction*%
%TD*%
%TA.AperFunction,Conductor*%
%TO.N,/connecter/A1*%
G36*
X34801259Y-25203358D02*
G01*
X35236640Y-25853490D01*
X35238397Y-25862271D01*
X35236640Y-25866510D01*
X34801259Y-26516641D01*
X34793809Y-26521609D01*
X34786342Y-26520614D01*
X33661876Y-25963223D01*
X33655985Y-25956478D01*
X33655372Y-25952740D01*
X33655372Y-25767259D01*
X33658799Y-25758986D01*
X33661876Y-25756776D01*
X34786342Y-25199384D01*
X34795276Y-25198781D01*
X34801259Y-25203358D01*
G37*
%TD.AperFunction*%
%TD*%
%TA.AperFunction,Conductor*%
%TO.N,/connecter/A1*%
G36*
X7053525Y-27576510D02*
G01*
X7217910Y-27646961D01*
X7224163Y-27653369D01*
X7225000Y-27657714D01*
X7225000Y-27842284D01*
X7221573Y-27850557D01*
X7217909Y-27853038D01*
X7061113Y-27920236D01*
X7057328Y-27921153D01*
X7040797Y-27922320D01*
X7037318Y-27922044D01*
X6347900Y-27761394D01*
X6340620Y-27756179D01*
X6339160Y-27747344D01*
X6344375Y-27740064D01*
X6347893Y-27738606D01*
X7046265Y-27575870D01*
X7053525Y-27576510D01*
G37*
%TD.AperFunction*%
%TD*%
%TA.AperFunction,Conductor*%
%TO.N,/connecter/A1*%
G36*
X7493281Y-27587005D02*
G01*
X7497959Y-27594204D01*
X7539622Y-27798997D01*
X7537913Y-27807787D01*
X7537861Y-27807865D01*
X7420083Y-27982734D01*
X7412619Y-27987682D01*
X7405622Y-27986887D01*
X7104969Y-27853089D01*
X7098804Y-27846595D01*
X7098026Y-27842400D01*
X7098026Y-27659896D01*
X7101453Y-27651623D01*
X7107784Y-27648359D01*
X7484554Y-27584998D01*
X7493281Y-27587005D01*
G37*
%TD.AperFunction*%
%TD*%
%TA.AperFunction,Conductor*%
%TO.N,/connecter/D4*%
G36*
X18957087Y-17051107D02*
G01*
X20146338Y-17452090D01*
X20153083Y-17457981D01*
X20154078Y-17465448D01*
X20002227Y-18233020D01*
X19997259Y-18240470D01*
X19993020Y-18242227D01*
X19225448Y-18394078D01*
X19216667Y-18392321D01*
X19212090Y-18386338D01*
X18811107Y-17197087D01*
X18811711Y-17188153D01*
X18813918Y-17185079D01*
X18945077Y-17053920D01*
X18953349Y-17050494D01*
X18957087Y-17051107D01*
G37*
%TD.AperFunction*%
%TD*%
%TA.AperFunction,Conductor*%
%TO.N,/connecter/D4*%
G36*
X7057328Y-15578843D02*
G01*
X7061098Y-15579756D01*
X7217910Y-15646961D01*
X7224163Y-15653369D01*
X7225000Y-15657714D01*
X7225000Y-15842284D01*
X7221573Y-15850557D01*
X7217909Y-15853038D01*
X7061113Y-15920236D01*
X7057328Y-15921153D01*
X7040797Y-15922320D01*
X7037318Y-15922044D01*
X6347900Y-15761394D01*
X6340620Y-15756179D01*
X6339160Y-15747344D01*
X6344375Y-15740064D01*
X6347893Y-15738606D01*
X7037334Y-15577951D01*
X7040796Y-15577676D01*
X7057328Y-15578843D01*
G37*
%TD.AperFunction*%
%TD*%
%TA.AperFunction,Conductor*%
%TO.N,/connecter/A0*%
G36*
X7053525Y-27076510D02*
G01*
X7217910Y-27146961D01*
X7224163Y-27153369D01*
X7225000Y-27157714D01*
X7225000Y-27342284D01*
X7221573Y-27350557D01*
X7217909Y-27353038D01*
X7061113Y-27420236D01*
X7057328Y-27421153D01*
X7040797Y-27422320D01*
X7037318Y-27422044D01*
X6347900Y-27261394D01*
X6340620Y-27256179D01*
X6339160Y-27247344D01*
X6344375Y-27240064D01*
X6347893Y-27238606D01*
X7046265Y-27075870D01*
X7053525Y-27076510D01*
G37*
%TD.AperFunction*%
%TD*%
%TA.AperFunction,Conductor*%
%TO.N,/connecter/A0*%
G36*
X11559317Y-26611539D02*
G01*
X11566740Y-26616546D01*
X11568449Y-26625336D01*
X11568189Y-26626370D01*
X11453703Y-27007543D01*
X11448042Y-27014480D01*
X11442498Y-27015877D01*
X11259902Y-27015877D01*
X11251629Y-27012450D01*
X11248697Y-27007543D01*
X11134210Y-26626370D01*
X11135112Y-26617460D01*
X11142049Y-26611799D01*
X11143067Y-26611543D01*
X11348870Y-26569674D01*
X11353530Y-26569674D01*
X11559317Y-26611539D01*
G37*
%TD.AperFunction*%
%TD*%
%TA.AperFunction,Conductor*%
%TO.N,/connecter/A0*%
G36*
X36393315Y-27258114D02*
G01*
X36396742Y-27266387D01*
X36396282Y-27269632D01*
X36293447Y-27625585D01*
X36027607Y-28545760D01*
X36022019Y-28552757D01*
X36014099Y-28553991D01*
X35247682Y-28402518D01*
X35240230Y-28397552D01*
X35238474Y-28393320D01*
X35085956Y-27625582D01*
X35087705Y-27616802D01*
X35093834Y-27612172D01*
X36058681Y-27300526D01*
X36198848Y-27255253D01*
X36202444Y-27254687D01*
X36385042Y-27254687D01*
X36393315Y-27258114D01*
G37*
%TD.AperFunction*%
%TD*%
%TA.AperFunction,Conductor*%
%TO.N,/connecter/A0*%
G36*
X21640583Y-25068202D02*
G01*
X21769697Y-25197316D01*
X21773124Y-25205589D01*
X21771727Y-25211133D01*
X21583153Y-25561616D01*
X21576216Y-25567277D01*
X21567306Y-25566375D01*
X21566392Y-25565828D01*
X21391277Y-25449920D01*
X21387979Y-25446622D01*
X21272071Y-25271507D01*
X21270362Y-25262716D01*
X21275369Y-25255293D01*
X21276271Y-25254752D01*
X21626767Y-25066171D01*
X21635676Y-25065270D01*
X21640583Y-25068202D01*
G37*
%TD.AperFunction*%
%TD*%
%TA.AperFunction,Conductor*%
%TO.N,/connecter/~{RFSH}*%
G36*
X6206553Y-26227991D02*
G01*
X6252099Y-26238605D01*
X6259379Y-26243820D01*
X6260839Y-26252655D01*
X6255624Y-26259935D01*
X6252099Y-26261395D01*
X5553736Y-26424129D01*
X5546472Y-26423488D01*
X5382091Y-26353039D01*
X5375837Y-26346630D01*
X5375000Y-26342285D01*
X5375000Y-26157714D01*
X5378427Y-26149441D01*
X5382086Y-26146962D01*
X5546474Y-26076510D01*
X5553734Y-26075870D01*
X6206553Y-26227991D01*
G37*
%TD.AperFunction*%
%TD*%
%TA.AperFunction,Conductor*%
%TO.N,/connecter/~{RFSH}*%
G36*
X4977739Y-27733912D02*
G01*
X4983400Y-27740849D01*
X4983660Y-27741883D01*
X5025525Y-27947668D01*
X5025525Y-27952332D01*
X4983660Y-28158116D01*
X4978653Y-28165540D01*
X4969863Y-28167249D01*
X4968829Y-28166989D01*
X4587657Y-28052503D01*
X4580720Y-28046842D01*
X4579323Y-28041298D01*
X4579323Y-27858701D01*
X4582750Y-27850428D01*
X4587654Y-27847497D01*
X4968829Y-27733010D01*
X4977739Y-27733912D01*
G37*
%TD.AperFunction*%
%TD*%
%TA.AperFunction,Conductor*%
%TO.N,/connecter/~{RFSH}*%
G36*
X35233020Y-33477772D02*
G01*
X35240470Y-33482740D01*
X35242227Y-33486979D01*
X35394078Y-34254551D01*
X35392321Y-34263332D01*
X35386338Y-34267909D01*
X34197087Y-34668892D01*
X34188153Y-34668288D01*
X34185076Y-34666078D01*
X34053921Y-34534923D01*
X34050494Y-34526650D01*
X34051107Y-34522912D01*
X34141591Y-34254551D01*
X34452090Y-33333660D01*
X34457981Y-33326916D01*
X34465446Y-33325921D01*
X35233020Y-33477772D01*
G37*
%TD.AperFunction*%
%TD*%
%TA.AperFunction,Conductor*%
%TO.N,/connecter/~{RFSH}*%
G36*
X18625520Y-33421640D02*
G01*
X18632943Y-33426647D01*
X18634652Y-33435438D01*
X18634393Y-33436468D01*
X18520002Y-33817640D01*
X18514342Y-33824579D01*
X18508796Y-33825977D01*
X18326200Y-33825977D01*
X18317927Y-33822550D01*
X18314995Y-33817645D01*
X18200413Y-33436470D01*
X18201313Y-33427563D01*
X18208250Y-33421899D01*
X18209277Y-33421640D01*
X18415070Y-33379774D01*
X18419730Y-33379774D01*
X18625520Y-33421640D01*
G37*
%TD.AperFunction*%
%TD*%
%TA.AperFunction,Conductor*%
%TO.N,/connecter/A3*%
G36*
X14684106Y-16667662D02*
G01*
X15024061Y-16839193D01*
X15029903Y-16845980D01*
X15029236Y-16854910D01*
X15027063Y-16857912D01*
X14899272Y-16985703D01*
X14894083Y-16988716D01*
X14605875Y-17067475D01*
X14596991Y-17066350D01*
X14591505Y-17059273D01*
X14591324Y-17058515D01*
X14550159Y-16854188D01*
X14551885Y-16845403D01*
X14551929Y-16845336D01*
X14669138Y-16671564D01*
X14676604Y-16666624D01*
X14684106Y-16667662D01*
G37*
%TD.AperFunction*%
%TD*%
%TA.AperFunction,Conductor*%
%TO.N,/connecter/A3*%
G36*
X35233320Y-20778474D02*
G01*
X35240767Y-20783447D01*
X35242518Y-20787682D01*
X35393992Y-21554108D01*
X35392234Y-21562888D01*
X35385771Y-21567613D01*
X34110099Y-21937364D01*
X34101199Y-21936376D01*
X34095605Y-21929384D01*
X34095142Y-21926127D01*
X34095142Y-21743538D01*
X34095706Y-21739949D01*
X34452176Y-20633843D01*
X34457974Y-20627022D01*
X34465591Y-20625958D01*
X35233320Y-20778474D01*
G37*
%TD.AperFunction*%
%TD*%
%TA.AperFunction,Conductor*%
%TO.N,/connecter/A3*%
G36*
X7057328Y-28578843D02*
G01*
X7061098Y-28579756D01*
X7217910Y-28646961D01*
X7224163Y-28653369D01*
X7225000Y-28657714D01*
X7225000Y-28842285D01*
X7221573Y-28850558D01*
X7217909Y-28853039D01*
X7053527Y-28923488D01*
X7046263Y-28924129D01*
X6347900Y-28761394D01*
X6340620Y-28756179D01*
X6339160Y-28747344D01*
X6344375Y-28740064D01*
X6347893Y-28738606D01*
X7037334Y-28577951D01*
X7040796Y-28577676D01*
X7057328Y-28578843D01*
G37*
%TD.AperFunction*%
%TD*%
%TA.AperFunction,Conductor*%
%TO.N,/connecter/A3*%
G36*
X11668106Y-24424869D02*
G01*
X11668653Y-24425783D01*
X11857227Y-24776266D01*
X11858129Y-24785176D01*
X11855197Y-24790083D01*
X11726083Y-24919197D01*
X11717810Y-24922624D01*
X11712266Y-24921227D01*
X11361783Y-24732653D01*
X11356122Y-24725716D01*
X11357024Y-24716806D01*
X11357561Y-24715907D01*
X11473481Y-24540774D01*
X11476774Y-24537481D01*
X11651894Y-24421570D01*
X11660683Y-24419862D01*
X11668106Y-24424869D01*
G37*
%TD.AperFunction*%
%TD*%
%TA.AperFunction,Conductor*%
%TO.N,/connecter/A12*%
G36*
X19561259Y-4883358D02*
G01*
X19996640Y-5533490D01*
X19998397Y-5542271D01*
X19996640Y-5546510D01*
X19561259Y-6196641D01*
X19553809Y-6201609D01*
X19546342Y-6200614D01*
X18421876Y-5643223D01*
X18415985Y-5636478D01*
X18415372Y-5632740D01*
X18415372Y-5447259D01*
X18418799Y-5438986D01*
X18421876Y-5436776D01*
X19546342Y-4879384D01*
X19555276Y-4878781D01*
X19561259Y-4883358D01*
G37*
%TD.AperFunction*%
%TD*%
%TA.AperFunction,Conductor*%
%TO.N,/connecter/A12*%
G36*
X7053525Y-13076510D02*
G01*
X7217910Y-13146961D01*
X7224163Y-13153369D01*
X7225000Y-13157714D01*
X7225000Y-13342285D01*
X7221573Y-13350558D01*
X7217909Y-13353039D01*
X7053527Y-13423488D01*
X7046263Y-13424129D01*
X6695034Y-13342285D01*
X6347899Y-13261394D01*
X6340620Y-13256180D01*
X6339160Y-13247345D01*
X6344375Y-13240065D01*
X6347898Y-13238605D01*
X7046265Y-13075870D01*
X7053525Y-13076510D01*
G37*
%TD.AperFunction*%
%TD*%
%TA.AperFunction,Conductor*%
%TO.N,/connecter/D2*%
G36*
X19258810Y-29564250D02*
G01*
X20433928Y-30268514D01*
X20439262Y-30275707D01*
X20437949Y-30284565D01*
X20437649Y-30285038D01*
X20003403Y-30936660D01*
X19995964Y-30941644D01*
X19995938Y-30941650D01*
X19228311Y-31093512D01*
X19219530Y-31091755D01*
X19214562Y-31084305D01*
X19214374Y-31082919D01*
X19109964Y-29706337D01*
X19112755Y-29697829D01*
X19113344Y-29697193D01*
X19244524Y-29566013D01*
X19252796Y-29562587D01*
X19258810Y-29564250D01*
G37*
%TD.AperFunction*%
%TD*%
%TA.AperFunction,Conductor*%
%TO.N,/connecter/D2*%
G36*
X7053525Y-18076510D02*
G01*
X7217910Y-18146961D01*
X7224163Y-18153369D01*
X7225000Y-18157714D01*
X7225000Y-18342285D01*
X7221573Y-18350558D01*
X7217909Y-18353039D01*
X7053527Y-18423488D01*
X7046263Y-18424129D01*
X6695034Y-18342285D01*
X6347899Y-18261394D01*
X6340620Y-18256180D01*
X6339160Y-18247345D01*
X6344375Y-18240065D01*
X6347898Y-18238605D01*
X7046265Y-18075870D01*
X7053525Y-18076510D01*
G37*
%TD.AperFunction*%
%TD*%
%TA.AperFunction,Conductor*%
%TO.N,/connecter/D5*%
G36*
X18957087Y-22131107D02*
G01*
X18995917Y-22144199D01*
X19000452Y-22147013D01*
X19225666Y-22372226D01*
X19225669Y-22372230D01*
X19226336Y-22372897D01*
X19296803Y-22443364D01*
X19354860Y-22467412D01*
X19388869Y-22481499D01*
X19388870Y-22481499D01*
X19388872Y-22481500D01*
X19388874Y-22481500D01*
X19994376Y-22481500D01*
X19998114Y-22482113D01*
X20146338Y-22532090D01*
X20153083Y-22537981D01*
X20154078Y-22545448D01*
X20002227Y-23313020D01*
X19997259Y-23320470D01*
X19993020Y-23322227D01*
X19225448Y-23474078D01*
X19216667Y-23472321D01*
X19212090Y-23466338D01*
X18811107Y-22277087D01*
X18811711Y-22268153D01*
X18813918Y-22265079D01*
X18945077Y-22133920D01*
X18953349Y-22130494D01*
X18957087Y-22131107D01*
G37*
%TD.AperFunction*%
%TD*%
%TA.AperFunction,Conductor*%
%TO.N,/connecter/D5*%
G36*
X7053525Y-16576510D02*
G01*
X7217910Y-16646961D01*
X7224163Y-16653369D01*
X7225000Y-16657714D01*
X7225000Y-16842284D01*
X7221573Y-16850557D01*
X7217909Y-16853038D01*
X7061113Y-16920236D01*
X7057328Y-16921153D01*
X7040797Y-16922320D01*
X7037318Y-16922044D01*
X6347900Y-16761394D01*
X6340620Y-16756179D01*
X6339160Y-16747344D01*
X6344375Y-16740064D01*
X6347893Y-16738606D01*
X7046265Y-16575870D01*
X7053525Y-16576510D01*
G37*
%TD.AperFunction*%
%TD*%
%TA.AperFunction,Conductor*%
%TO.N,/connecter/A11*%
G36*
X6534721Y-12387234D02*
G01*
X6669454Y-12521967D01*
X6710116Y-12562630D01*
X6713543Y-12570903D01*
X6710116Y-12579176D01*
X6706329Y-12581709D01*
X6310159Y-12746195D01*
X6301205Y-12746202D01*
X6294868Y-12739876D01*
X6231180Y-12583978D01*
X6231224Y-12575023D01*
X6235653Y-12569732D01*
X6520092Y-12385683D01*
X6528900Y-12384067D01*
X6534721Y-12387234D01*
G37*
%TD.AperFunction*%
%TD*%
%TA.AperFunction,Conductor*%
%TO.N,/connecter/A11*%
G36*
X19280247Y-2280237D02*
G01*
X19992709Y-2991721D01*
X19996142Y-2999992D01*
X19992721Y-3008267D01*
X19992709Y-3008279D01*
X19280247Y-3719762D01*
X19271972Y-3723183D01*
X19265158Y-3720988D01*
X18404878Y-3103501D01*
X18400155Y-3095893D01*
X18400000Y-3093996D01*
X18400000Y-2906003D01*
X18403427Y-2897730D01*
X18404872Y-2896502D01*
X19265159Y-2279010D01*
X19273877Y-2276971D01*
X19280247Y-2280237D01*
G37*
%TD.AperFunction*%
%TD*%
%TA.AperFunction,Conductor*%
%TO.N,/connecter/A13*%
G36*
X19561259Y-7423358D02*
G01*
X19996640Y-8073490D01*
X19998397Y-8082271D01*
X19996640Y-8086510D01*
X19561259Y-8736641D01*
X19553809Y-8741609D01*
X19546342Y-8740614D01*
X18421876Y-8183223D01*
X18415985Y-8176478D01*
X18415372Y-8172740D01*
X18415372Y-7987259D01*
X18418799Y-7978986D01*
X18421876Y-7976776D01*
X19546342Y-7419384D01*
X19555276Y-7418781D01*
X19561259Y-7423358D01*
G37*
%TD.AperFunction*%
%TD*%
%TA.AperFunction,Conductor*%
%TO.N,/connecter/A13*%
G36*
X7057328Y-13578843D02*
G01*
X7061098Y-13579756D01*
X7217910Y-13646961D01*
X7224163Y-13653369D01*
X7225000Y-13657714D01*
X7225000Y-13842285D01*
X7221573Y-13850558D01*
X7217909Y-13853039D01*
X7053527Y-13923488D01*
X7046263Y-13924129D01*
X6347900Y-13761394D01*
X6340620Y-13756179D01*
X6339160Y-13747344D01*
X6344375Y-13740064D01*
X6347893Y-13738606D01*
X7037334Y-13577951D01*
X7040796Y-13577676D01*
X7057328Y-13578843D01*
G37*
%TD.AperFunction*%
%TD*%
%TA.AperFunction,Conductor*%
%TO.N,/connecter/A7*%
G36*
X34119323Y-9441177D02*
G01*
X34128736Y-9444084D01*
X35386002Y-9832263D01*
X35392896Y-9837978D01*
X35394028Y-9845710D01*
X35242518Y-10612317D01*
X35237552Y-10619769D01*
X35233320Y-10621525D01*
X34465724Y-10774015D01*
X34456941Y-10772266D01*
X34452263Y-10765985D01*
X34407201Y-10619769D01*
X34104691Y-9638184D01*
X34104172Y-9634738D01*
X34104172Y-9452357D01*
X34107599Y-9444084D01*
X34115872Y-9440657D01*
X34119323Y-9441177D01*
G37*
%TD.AperFunction*%
%TD*%
%TA.AperFunction,Conductor*%
%TO.N,/connecter/A7*%
G36*
X12894478Y-9450252D02*
G01*
X12895739Y-9455536D01*
X12895739Y-9634364D01*
X12894983Y-9638500D01*
X12802978Y-9881930D01*
X12796848Y-9888458D01*
X12789761Y-9889271D01*
X12582584Y-9848247D01*
X12575135Y-9843279D01*
X12461063Y-9671181D01*
X12459348Y-9662392D01*
X12464351Y-9654965D01*
X12465517Y-9654285D01*
X12878756Y-9445096D01*
X12887684Y-9444418D01*
X12894478Y-9450252D01*
G37*
%TD.AperFunction*%
%TD*%
%TA.AperFunction,Conductor*%
%TO.N,/connecter/A7*%
G36*
X6252100Y-30738605D02*
G01*
X6259379Y-30743819D01*
X6260839Y-30752654D01*
X6255624Y-30759934D01*
X6252099Y-30761394D01*
X5562680Y-30922044D01*
X5559201Y-30922320D01*
X5542670Y-30921153D01*
X5538885Y-30920236D01*
X5382091Y-30853038D01*
X5375837Y-30846629D01*
X5375000Y-30842284D01*
X5375000Y-30657714D01*
X5378427Y-30649441D01*
X5382086Y-30646962D01*
X5546474Y-30576510D01*
X5553734Y-30575870D01*
X6252100Y-30738605D01*
G37*
%TD.AperFunction*%
%TD*%
%TA.AperFunction,Conductor*%
%TO.N,/connecter/A7*%
G36*
X4958106Y-24665350D02*
G01*
X4963707Y-24672337D01*
X4963938Y-24673273D01*
X5005825Y-24879168D01*
X5005825Y-24883832D01*
X4963982Y-25089507D01*
X4958975Y-25096931D01*
X4950185Y-25098640D01*
X4949058Y-25098351D01*
X4782264Y-25046677D01*
X4567861Y-24980252D01*
X4560972Y-24974530D01*
X4559623Y-24969076D01*
X4559623Y-24786481D01*
X4563050Y-24778208D01*
X4568054Y-24775247D01*
X4949207Y-24664371D01*
X4958106Y-24665350D01*
G37*
%TD.AperFunction*%
%TD*%
%TA.AperFunction,Conductor*%
%TO.N,/connecter/A4*%
G36*
X7057328Y-29078843D02*
G01*
X7061098Y-29079756D01*
X7217910Y-29146961D01*
X7224163Y-29153369D01*
X7225000Y-29157714D01*
X7225000Y-29342285D01*
X7221573Y-29350558D01*
X7217909Y-29353039D01*
X7053527Y-29423488D01*
X7046263Y-29424129D01*
X6347900Y-29261394D01*
X6340620Y-29256179D01*
X6339160Y-29247344D01*
X6344375Y-29240064D01*
X6347893Y-29238606D01*
X7037334Y-29077951D01*
X7040796Y-29077676D01*
X7057328Y-29078843D01*
G37*
%TD.AperFunction*%
%TD*%
%TA.AperFunction,Conductor*%
%TO.N,/connecter/A4*%
G36*
X14366832Y-30229271D02*
G01*
X14622014Y-30366570D01*
X14717316Y-30417846D01*
X14722977Y-30424783D01*
X14722075Y-30433693D01*
X14721528Y-30434607D01*
X14605620Y-30609722D01*
X14602322Y-30613020D01*
X14427207Y-30728928D01*
X14418416Y-30730637D01*
X14410993Y-30725630D01*
X14410446Y-30724716D01*
X14221872Y-30374233D01*
X14220970Y-30365323D01*
X14223900Y-30360418D01*
X14353017Y-30231301D01*
X14361289Y-30227875D01*
X14366832Y-30229271D01*
G37*
%TD.AperFunction*%
%TD*%
%TA.AperFunction,Conductor*%
%TO.N,/connecter/~{WAIT}*%
G36*
X18558756Y-20924786D02*
G01*
X18563704Y-20932250D01*
X18563759Y-20932559D01*
X18567139Y-20952753D01*
X18567300Y-20954684D01*
X18567300Y-21162630D01*
X18605435Y-21254695D01*
X18605437Y-21254698D01*
X18612984Y-21262245D01*
X18616411Y-21270518D01*
X18612984Y-21278791D01*
X18487271Y-21404503D01*
X18478998Y-21407930D01*
X18470754Y-21404533D01*
X18222904Y-21158440D01*
X18219448Y-21150179D01*
X18221390Y-21143683D01*
X18337688Y-20967978D01*
X18345111Y-20962973D01*
X18345145Y-20962965D01*
X18549980Y-20923006D01*
X18558756Y-20924786D01*
G37*
%TD.AperFunction*%
%TD*%
%TA.AperFunction,Conductor*%
%TO.N,/connecter/~{WAIT}*%
G36*
X33467032Y-22676071D02*
G01*
X33722214Y-22813370D01*
X33817516Y-22864646D01*
X33823177Y-22871583D01*
X33822275Y-22880493D01*
X33821728Y-22881407D01*
X33705820Y-23056522D01*
X33702522Y-23059820D01*
X33527407Y-23175728D01*
X33518616Y-23177437D01*
X33511193Y-23172430D01*
X33510646Y-23171516D01*
X33322072Y-22821033D01*
X33321170Y-22812123D01*
X33324100Y-22807218D01*
X33453217Y-22678101D01*
X33461489Y-22674675D01*
X33467032Y-22676071D01*
G37*
%TD.AperFunction*%
%TD*%
%TA.AperFunction,Conductor*%
%TO.N,/connecter/~{WAIT}*%
G36*
X7053525Y-24076510D02*
G01*
X7217910Y-24146961D01*
X7224163Y-24153369D01*
X7225000Y-24157714D01*
X7225000Y-24342285D01*
X7221573Y-24350558D01*
X7217909Y-24353039D01*
X7053527Y-24423488D01*
X7046263Y-24424129D01*
X6695034Y-24342285D01*
X6347899Y-24261394D01*
X6340620Y-24256180D01*
X6339160Y-24247345D01*
X6344375Y-24240065D01*
X6347898Y-24238605D01*
X7046265Y-24075870D01*
X7053525Y-24076510D01*
G37*
%TD.AperFunction*%
%TD*%
%TA.AperFunction,Conductor*%
%TO.N,/connecter/~{WAIT}*%
G36*
X11008332Y-24827571D02*
G01*
X11263514Y-24964870D01*
X11358816Y-25016146D01*
X11364477Y-25023083D01*
X11363575Y-25031993D01*
X11363028Y-25032907D01*
X11247120Y-25208022D01*
X11243822Y-25211320D01*
X11068707Y-25327228D01*
X11059916Y-25328937D01*
X11052493Y-25323930D01*
X11051946Y-25323016D01*
X10863372Y-24972533D01*
X10862470Y-24963623D01*
X10865400Y-24958718D01*
X10994517Y-24829601D01*
X11002789Y-24826175D01*
X11008332Y-24827571D01*
G37*
%TD.AperFunction*%
%TD*%
%TA.AperFunction,Conductor*%
%TO.N,/connecter/~{INT}*%
G36*
X18957087Y-39911107D02*
G01*
X20146338Y-40312090D01*
X20153083Y-40317981D01*
X20154078Y-40325448D01*
X20002227Y-41093020D01*
X19997259Y-41100470D01*
X19993020Y-41102227D01*
X19225448Y-41254078D01*
X19216667Y-41252321D01*
X19212090Y-41246338D01*
X18811107Y-40057087D01*
X18811711Y-40048153D01*
X18813918Y-40045079D01*
X18945077Y-39913920D01*
X18953349Y-39910494D01*
X18957087Y-39911107D01*
G37*
%TD.AperFunction*%
%TD*%
%TA.AperFunction,Conductor*%
%TO.N,/connecter/~{INT}*%
G36*
X7053525Y-20076510D02*
G01*
X7217910Y-20146961D01*
X7224163Y-20153369D01*
X7225000Y-20157714D01*
X7225000Y-20342285D01*
X7221573Y-20350558D01*
X7217909Y-20353039D01*
X7053527Y-20423488D01*
X7046263Y-20424129D01*
X6695034Y-20342285D01*
X6347899Y-20261394D01*
X6340620Y-20256180D01*
X6339160Y-20247345D01*
X6344375Y-20240065D01*
X6347898Y-20238605D01*
X7046265Y-20075870D01*
X7053525Y-20076510D01*
G37*
%TD.AperFunction*%
%TD*%
%TA.AperFunction,Conductor*%
%TO.N,/connecter/~{BUSAK}*%
G36*
X3873070Y-45318410D02*
G01*
X3902612Y-45327283D01*
X4254244Y-45432897D01*
X4261180Y-45438557D01*
X4262577Y-45444101D01*
X4262577Y-45626698D01*
X4259150Y-45634971D01*
X4254243Y-45637903D01*
X3873070Y-45752389D01*
X3864160Y-45751487D01*
X3858499Y-45744550D01*
X3858241Y-45743527D01*
X3816374Y-45537729D01*
X3816374Y-45533068D01*
X3858240Y-45327281D01*
X3863246Y-45319859D01*
X3872036Y-45318150D01*
X3873070Y-45318410D01*
G37*
%TD.AperFunction*%
%TD*%
%TA.AperFunction,Conductor*%
%TO.N,/connecter/~{BUSAK}*%
G36*
X35233020Y-46177772D02*
G01*
X35240470Y-46182740D01*
X35242227Y-46186979D01*
X35394078Y-46954551D01*
X35392321Y-46963332D01*
X35386338Y-46967909D01*
X34197087Y-47368892D01*
X34188153Y-47368288D01*
X34185076Y-47366078D01*
X34053921Y-47234923D01*
X34050494Y-47226650D01*
X34051107Y-47222912D01*
X34141591Y-46954551D01*
X34452090Y-46033660D01*
X34457981Y-46026916D01*
X34465446Y-46025921D01*
X35233020Y-46177772D01*
G37*
%TD.AperFunction*%
%TD*%
%TA.AperFunction,Conductor*%
%TO.N,/connecter/~{BUSAK}*%
G36*
X6206553Y-23727991D02*
G01*
X6252099Y-23738605D01*
X6259379Y-23743820D01*
X6260839Y-23752655D01*
X6255624Y-23759935D01*
X6252099Y-23761395D01*
X5553736Y-23924129D01*
X5546472Y-23923488D01*
X5382091Y-23853039D01*
X5375837Y-23846630D01*
X5375000Y-23842285D01*
X5375000Y-23657714D01*
X5378427Y-23649441D01*
X5382086Y-23646962D01*
X5546474Y-23576510D01*
X5553734Y-23575870D01*
X6206553Y-23727991D01*
G37*
%TD.AperFunction*%
%TD*%
%TA.AperFunction,Conductor*%
%TO.N,/connecter/~{BUSAK}*%
G36*
X3634991Y-23656471D02*
G01*
X3641220Y-23662905D01*
X3642039Y-23667206D01*
X3642039Y-23847251D01*
X3640814Y-23852462D01*
X3501187Y-24133129D01*
X3494434Y-24139010D01*
X3485501Y-24138393D01*
X3484236Y-24137662D01*
X3311275Y-24022708D01*
X3306281Y-24015276D01*
X3266159Y-23808862D01*
X3267944Y-23800088D01*
X3273343Y-23795750D01*
X3626038Y-23656325D01*
X3634991Y-23656471D01*
G37*
%TD.AperFunction*%
%TD*%
%TA.AperFunction,Conductor*%
%TO.N,/connecter/D3*%
G36*
X7053525Y-16076510D02*
G01*
X7217910Y-16146961D01*
X7224163Y-16153369D01*
X7225000Y-16157714D01*
X7225000Y-16342284D01*
X7221573Y-16350557D01*
X7217909Y-16353038D01*
X7061113Y-16420236D01*
X7057328Y-16421153D01*
X7040797Y-16422320D01*
X7037318Y-16422044D01*
X6347900Y-16261394D01*
X6340620Y-16256179D01*
X6339160Y-16247344D01*
X6344375Y-16240064D01*
X6347893Y-16238606D01*
X7046265Y-16075870D01*
X7053525Y-16076510D01*
G37*
%TD.AperFunction*%
%TD*%
%TA.AperFunction,Conductor*%
%TO.N,/connecter/D3*%
G36*
X18957087Y-19591107D02*
G01*
X20146338Y-19992090D01*
X20153083Y-19997981D01*
X20154078Y-20005448D01*
X20002227Y-20773020D01*
X19997259Y-20780470D01*
X19993020Y-20782227D01*
X19225448Y-20934078D01*
X19216667Y-20932321D01*
X19212090Y-20926338D01*
X18811107Y-19737087D01*
X18811711Y-19728153D01*
X18813918Y-19725079D01*
X18945077Y-19593920D01*
X18953349Y-19590494D01*
X18957087Y-19591107D01*
G37*
%TD.AperFunction*%
%TD*%
%TA.AperFunction,Conductor*%
%TO.N,/connecter/A15*%
G36*
X19561259Y-12503358D02*
G01*
X19996640Y-13153490D01*
X19998397Y-13162271D01*
X19996640Y-13166510D01*
X19561259Y-13816641D01*
X19553809Y-13821609D01*
X19546342Y-13820614D01*
X18421876Y-13263223D01*
X18415985Y-13256478D01*
X18415372Y-13252740D01*
X18415372Y-13067259D01*
X18418799Y-13058986D01*
X18421876Y-13056776D01*
X19546342Y-12499384D01*
X19555276Y-12498781D01*
X19561259Y-12503358D01*
G37*
%TD.AperFunction*%
%TD*%
%TA.AperFunction,Conductor*%
%TO.N,/connecter/A15*%
G36*
X7053525Y-14576510D02*
G01*
X7217910Y-14646961D01*
X7224163Y-14653369D01*
X7225000Y-14657714D01*
X7225000Y-14842284D01*
X7221573Y-14850557D01*
X7217909Y-14853038D01*
X7061113Y-14920236D01*
X7057328Y-14921153D01*
X7040797Y-14922320D01*
X7037318Y-14922044D01*
X6347900Y-14761394D01*
X6340620Y-14756179D01*
X6339160Y-14747344D01*
X6344375Y-14740064D01*
X6347893Y-14738606D01*
X7046265Y-14575870D01*
X7053525Y-14576510D01*
G37*
%TD.AperFunction*%
%TD*%
%TA.AperFunction,Conductor*%
%TO.N,/connecter/~{BUSRQ}*%
G36*
X4160739Y-25138312D02*
G01*
X4166400Y-25145249D01*
X4166660Y-25146283D01*
X4208525Y-25352068D01*
X4208525Y-25356732D01*
X4166660Y-25562516D01*
X4161653Y-25569940D01*
X4152863Y-25571649D01*
X4151829Y-25571389D01*
X3770657Y-25456903D01*
X3763720Y-25451242D01*
X3762323Y-25445698D01*
X3762323Y-25263101D01*
X3765750Y-25254828D01*
X3770654Y-25251897D01*
X4151829Y-25137410D01*
X4160739Y-25138312D01*
G37*
%TD.AperFunction*%
%TD*%
%TA.AperFunction,Conductor*%
%TO.N,/connecter/~{BUSRQ}*%
G36*
X4360032Y-28987471D02*
G01*
X4615214Y-29124770D01*
X4710516Y-29176046D01*
X4716177Y-29182983D01*
X4715275Y-29191893D01*
X4714728Y-29192807D01*
X4598820Y-29367922D01*
X4595522Y-29371220D01*
X4420407Y-29487128D01*
X4411616Y-29488837D01*
X4404193Y-29483830D01*
X4403646Y-29482916D01*
X4215072Y-29132433D01*
X4214170Y-29123523D01*
X4217100Y-29118618D01*
X4346217Y-28989501D01*
X4354489Y-28986075D01*
X4360032Y-28987471D01*
G37*
%TD.AperFunction*%
%TD*%
%TA.AperFunction,Conductor*%
%TO.N,/connecter/~{BUSRQ}*%
G36*
X7576468Y-24654014D02*
G01*
X7884434Y-24737748D01*
X7946305Y-24754571D01*
X7953389Y-24760048D01*
X7954720Y-24768093D01*
X7914833Y-24973296D01*
X7909891Y-24980764D01*
X7909824Y-24980808D01*
X7735674Y-25096553D01*
X7726887Y-25098279D01*
X7719454Y-25093285D01*
X7719381Y-25093174D01*
X7563588Y-24852904D01*
X7561705Y-24846539D01*
X7561705Y-24665305D01*
X7565132Y-24657032D01*
X7573405Y-24653605D01*
X7576468Y-24654014D01*
G37*
%TD.AperFunction*%
%TD*%
%TA.AperFunction,Conductor*%
%TO.N,/connecter/~{BUSRQ}*%
G36*
X7057328Y-24578843D02*
G01*
X7061098Y-24579756D01*
X7217910Y-24646961D01*
X7224163Y-24653369D01*
X7225000Y-24657714D01*
X7225000Y-24842285D01*
X7221573Y-24850558D01*
X7217909Y-24853039D01*
X7053527Y-24923488D01*
X7046263Y-24924129D01*
X6347900Y-24761394D01*
X6340620Y-24756179D01*
X6339160Y-24747344D01*
X6344375Y-24740064D01*
X6347893Y-24738606D01*
X7037334Y-24577951D01*
X7040796Y-24577676D01*
X7057328Y-24578843D01*
G37*
%TD.AperFunction*%
%TD*%
%TA.AperFunction,Conductor*%
%TO.N,/connecter/~{BUSRQ}*%
G36*
X35233320Y-41098474D02*
G01*
X35240767Y-41103447D01*
X35242518Y-41107682D01*
X35394073Y-41874517D01*
X35392315Y-41883297D01*
X35386293Y-41887885D01*
X34131044Y-42306070D01*
X34122112Y-42305434D01*
X34116246Y-42298668D01*
X34115646Y-42294970D01*
X34115646Y-42112868D01*
X34116112Y-42109598D01*
X34181588Y-41884628D01*
X34452376Y-40954221D01*
X34457977Y-40947238D01*
X34465888Y-40946017D01*
X35233320Y-41098474D01*
G37*
%TD.AperFunction*%
%TD*%
%TA.AperFunction,Conductor*%
%TO.N,/connecter/~{BUSRQ}*%
G36*
X17243806Y-39893069D02*
G01*
X17244353Y-39893983D01*
X17432927Y-40244466D01*
X17433829Y-40253376D01*
X17430897Y-40258283D01*
X17301783Y-40387397D01*
X17293510Y-40390824D01*
X17287966Y-40389427D01*
X16937483Y-40200853D01*
X16931822Y-40193916D01*
X16932724Y-40185006D01*
X16933261Y-40184107D01*
X17049181Y-40008974D01*
X17052474Y-40005681D01*
X17227594Y-39889770D01*
X17236383Y-39888062D01*
X17243806Y-39893069D01*
G37*
%TD.AperFunction*%
%TD*%
%TA.AperFunction,Conductor*%
%TO.N,/connecter/D7*%
G36*
X18957087Y-32291107D02*
G01*
X20146338Y-32692090D01*
X20153083Y-32697981D01*
X20154078Y-32705448D01*
X20002227Y-33473020D01*
X19997259Y-33480470D01*
X19993020Y-33482227D01*
X19225448Y-33634078D01*
X19216667Y-33632321D01*
X19212090Y-33626338D01*
X19172313Y-33508365D01*
X19171700Y-33504627D01*
X19171700Y-33156273D01*
X19171699Y-33156269D01*
X19133564Y-33064204D01*
X19133563Y-33064202D01*
X18968021Y-32898660D01*
X18965208Y-32894127D01*
X18811107Y-32437087D01*
X18811711Y-32428153D01*
X18813918Y-32425079D01*
X18945077Y-32293920D01*
X18953349Y-32290494D01*
X18957087Y-32291107D01*
G37*
%TD.AperFunction*%
%TD*%
%TA.AperFunction,Conductor*%
%TO.N,/connecter/D7*%
G36*
X7057328Y-18578843D02*
G01*
X7061098Y-18579756D01*
X7217910Y-18646961D01*
X7224163Y-18653369D01*
X7225000Y-18657714D01*
X7225000Y-18842285D01*
X7221573Y-18850558D01*
X7217909Y-18853039D01*
X7053527Y-18923488D01*
X7046263Y-18924129D01*
X6347900Y-18761394D01*
X6340620Y-18756179D01*
X6339160Y-18747344D01*
X6344375Y-18740064D01*
X6347893Y-18738606D01*
X7037334Y-18577951D01*
X7040796Y-18577676D01*
X7057328Y-18578843D01*
G37*
%TD.AperFunction*%
%TD*%
%TA.AperFunction,Conductor*%
%TO.N,/connecter/~{WR}*%
G36*
X5562666Y-23077951D02*
G01*
X6252100Y-23238605D01*
X6259379Y-23243819D01*
X6260839Y-23252654D01*
X6255624Y-23259934D01*
X6252099Y-23261394D01*
X5562680Y-23422044D01*
X5559201Y-23422320D01*
X5542670Y-23421153D01*
X5538885Y-23420236D01*
X5382091Y-23353038D01*
X5375837Y-23346629D01*
X5375000Y-23342284D01*
X5375000Y-23157714D01*
X5378427Y-23149441D01*
X5382086Y-23146962D01*
X5538904Y-23079755D01*
X5542669Y-23078843D01*
X5559202Y-23077676D01*
X5562666Y-23077951D01*
G37*
%TD.AperFunction*%
%TD*%
%TA.AperFunction,Conductor*%
%TO.N,/connecter/~{WR}*%
G36*
X2965070Y-23033010D02*
G01*
X2994612Y-23041883D01*
X3346244Y-23147497D01*
X3353180Y-23153157D01*
X3354577Y-23158701D01*
X3354577Y-23341298D01*
X3351150Y-23349571D01*
X3346243Y-23352503D01*
X2965070Y-23466989D01*
X2956160Y-23466087D01*
X2950499Y-23459150D01*
X2950241Y-23458127D01*
X2908374Y-23252329D01*
X2908374Y-23247668D01*
X2950240Y-23041881D01*
X2955246Y-23034459D01*
X2964036Y-23032750D01*
X2965070Y-23033010D01*
G37*
%TD.AperFunction*%
%TD*%
%TA.AperFunction,Conductor*%
%TO.N,/connecter/~{IORQ}*%
G36*
X18957087Y-50071107D02*
G01*
X20146338Y-50472090D01*
X20153083Y-50477981D01*
X20154078Y-50485448D01*
X20002227Y-51253020D01*
X19997259Y-51260470D01*
X19993020Y-51262227D01*
X19225448Y-51414078D01*
X19216667Y-51412321D01*
X19212090Y-51406338D01*
X18811107Y-50217087D01*
X18811711Y-50208153D01*
X18813918Y-50205079D01*
X18945077Y-50073920D01*
X18953349Y-50070494D01*
X18957087Y-50071107D01*
G37*
%TD.AperFunction*%
%TD*%
%TA.AperFunction,Conductor*%
%TO.N,/connecter/~{IORQ}*%
G36*
X7057328Y-22078843D02*
G01*
X7061098Y-22079756D01*
X7217910Y-22146961D01*
X7224163Y-22153369D01*
X7225000Y-22157714D01*
X7225000Y-22342285D01*
X7221573Y-22350558D01*
X7217909Y-22353039D01*
X7053527Y-22423488D01*
X7046263Y-22424129D01*
X6347900Y-22261394D01*
X6340620Y-22256179D01*
X6339160Y-22247344D01*
X6344375Y-22240064D01*
X6347893Y-22238606D01*
X7037334Y-22077951D01*
X7040796Y-22077676D01*
X7057328Y-22078843D01*
G37*
%TD.AperFunction*%
%TD*%
%TA.AperFunction,Conductor*%
%TO.N,/connecter/~{RESET}*%
G36*
X10597683Y-12214802D02*
G01*
X10726797Y-12343916D01*
X10730224Y-12352189D01*
X10728827Y-12357733D01*
X10540253Y-12708216D01*
X10533316Y-12713877D01*
X10524406Y-12712975D01*
X10523492Y-12712428D01*
X10348377Y-12596520D01*
X10345079Y-12593222D01*
X10229171Y-12418107D01*
X10227462Y-12409316D01*
X10232469Y-12401893D01*
X10233371Y-12401352D01*
X10583867Y-12212771D01*
X10592776Y-12211870D01*
X10597683Y-12214802D01*
G37*
%TD.AperFunction*%
%TD*%
%TA.AperFunction,Conductor*%
%TO.N,/connecter/~{RESET}*%
G36*
X33799939Y-11673912D02*
G01*
X33805600Y-11680849D01*
X33805860Y-11681883D01*
X33847725Y-11887668D01*
X33847725Y-11892332D01*
X33805860Y-12098116D01*
X33800853Y-12105540D01*
X33792063Y-12107249D01*
X33791029Y-12106989D01*
X33409857Y-11992503D01*
X33402920Y-11986842D01*
X33401523Y-11981298D01*
X33401523Y-11798701D01*
X33404950Y-11790428D01*
X33409854Y-11787497D01*
X33791029Y-11673010D01*
X33799939Y-11673912D01*
G37*
%TD.AperFunction*%
%TD*%
%TA.AperFunction,Conductor*%
%TO.N,/connecter/~{RESET}*%
G36*
X7057328Y-25078843D02*
G01*
X7061098Y-25079756D01*
X7217910Y-25146961D01*
X7224163Y-25153369D01*
X7225000Y-25157714D01*
X7225000Y-25342284D01*
X7221573Y-25350557D01*
X7217909Y-25353038D01*
X7061113Y-25420236D01*
X7057328Y-25421153D01*
X7040797Y-25422320D01*
X7037318Y-25422044D01*
X6347900Y-25261394D01*
X6340620Y-25256179D01*
X6339160Y-25247344D01*
X6344375Y-25240064D01*
X6347893Y-25238606D01*
X7037334Y-25077951D01*
X7040796Y-25077676D01*
X7057328Y-25078843D01*
G37*
%TD.AperFunction*%
%TD*%
%TA.AperFunction,Conductor*%
%TO.N,/connecter/~{RESET}*%
G36*
X8243539Y-25474612D02*
G01*
X8249200Y-25481549D01*
X8249460Y-25482583D01*
X8291325Y-25688368D01*
X8291325Y-25693032D01*
X8249460Y-25898816D01*
X8244453Y-25906240D01*
X8235663Y-25907949D01*
X8234629Y-25907689D01*
X7853457Y-25793203D01*
X7846520Y-25787542D01*
X7845123Y-25781998D01*
X7845123Y-25599401D01*
X7848550Y-25591128D01*
X7853454Y-25588197D01*
X8234629Y-25473710D01*
X8243539Y-25474612D01*
G37*
%TD.AperFunction*%
%TD*%
%TA.AperFunction,Conductor*%
%TO.N,GND*%
G36*
X28475318Y-27828427D02*
G01*
X28477925Y-27832398D01*
X28704650Y-28405746D01*
X28704506Y-28414699D01*
X28700959Y-28419279D01*
X28282189Y-28745401D01*
X28273556Y-28747781D01*
X28267811Y-28745401D01*
X27849040Y-28419279D01*
X27844618Y-28411492D01*
X27845348Y-28405749D01*
X28072075Y-27832398D01*
X28078304Y-27825964D01*
X28082955Y-27825000D01*
X28467045Y-27825000D01*
X28475318Y-27828427D01*
G37*
%TD.AperFunction*%
%TD*%
%TA.AperFunction,Conductor*%
%TO.N,GND*%
G36*
X28465644Y-27110573D02*
G01*
X28470586Y-27118041D01*
X28470801Y-27120170D01*
X28474896Y-27583874D01*
X28471542Y-27592177D01*
X28463299Y-27595677D01*
X28085445Y-27595677D01*
X28077172Y-27592250D01*
X28073820Y-27585299D01*
X28073658Y-27583874D01*
X28030533Y-27204543D01*
X28033003Y-27195937D01*
X28039823Y-27191758D01*
X28250000Y-27149000D01*
X28456871Y-27108788D01*
X28465644Y-27110573D01*
G37*
%TD.AperFunction*%
%TD*%
%TA.AperFunction,Conductor*%
%TO.N,GND*%
G36*
X4435299Y-26573820D02*
G01*
X4443132Y-26578159D01*
X4445677Y-26585445D01*
X4445677Y-26914554D01*
X4442250Y-26922827D01*
X4435299Y-26926179D01*
X4054545Y-26969466D01*
X4045937Y-26966996D01*
X4041758Y-26960174D01*
X4032477Y-26914554D01*
X3999474Y-26752329D01*
X3999474Y-26747670D01*
X4041758Y-26539824D01*
X4046765Y-26532402D01*
X4054542Y-26530533D01*
X4435299Y-26573820D01*
G37*
%TD.AperFunction*%
%TD*%
%TA.AperFunction,Conductor*%
%TO.N,GND*%
G36*
X33953707Y-30050907D02*
G01*
X35382873Y-30154416D01*
X35390877Y-30158431D01*
X35393697Y-30166930D01*
X35393506Y-30168353D01*
X35241942Y-30935232D01*
X35236976Y-30942684D01*
X35236957Y-30942697D01*
X34584483Y-31378011D01*
X34575699Y-31379752D01*
X34568306Y-31374844D01*
X33943195Y-30452973D01*
X33941179Y-30446407D01*
X33941179Y-30062577D01*
X33944606Y-30054304D01*
X33952879Y-30050877D01*
X33953707Y-30050907D01*
G37*
%TD.AperFunction*%
%TD*%
%TA.AperFunction,Conductor*%
%TO.N,GND*%
G36*
X28606529Y-29803743D02*
G01*
X29167951Y-30046946D01*
X29174180Y-30053379D01*
X29175000Y-30057682D01*
X29175000Y-30442317D01*
X29171573Y-30450590D01*
X29167951Y-30453053D01*
X28606531Y-30696255D01*
X28597577Y-30696399D01*
X28592384Y-30692354D01*
X28278919Y-30256835D01*
X28276867Y-30248118D01*
X28278919Y-30243165D01*
X28592384Y-29807644D01*
X28599998Y-29802932D01*
X28606529Y-29803743D01*
G37*
%TD.AperFunction*%
%TD*%
%TA.AperFunction,Conductor*%
%TO.N,GND*%
G36*
X28475318Y-29328427D02*
G01*
X28477925Y-29332398D01*
X28704650Y-29905746D01*
X28704506Y-29914699D01*
X28700959Y-29919279D01*
X28282189Y-30245401D01*
X28273556Y-30247781D01*
X28267811Y-30245401D01*
X27849040Y-29919279D01*
X27844618Y-29911492D01*
X27845348Y-29905749D01*
X28072075Y-29332398D01*
X28078304Y-29325964D01*
X28082955Y-29325000D01*
X28467045Y-29325000D01*
X28475318Y-29328427D01*
G37*
%TD.AperFunction*%
%TD*%
%TA.AperFunction,Conductor*%
%TO.N,GND*%
G36*
X28282187Y-28754597D02*
G01*
X28530875Y-28948265D01*
X28700959Y-29080720D01*
X28705381Y-29088507D01*
X28704650Y-29094253D01*
X28477925Y-29667602D01*
X28471696Y-29674036D01*
X28467045Y-29675000D01*
X28082955Y-29675000D01*
X28074682Y-29671573D01*
X28072075Y-29667602D01*
X27845349Y-29094253D01*
X27845493Y-29085300D01*
X27849039Y-29080721D01*
X28267811Y-28754597D01*
X28276444Y-28752218D01*
X28282187Y-28754597D01*
G37*
%TD.AperFunction*%
%TD*%
%TA.AperFunction,Conductor*%
%TO.N,GND*%
G36*
X3763893Y-42616622D02*
G01*
X4524623Y-42943788D01*
X4530870Y-42950204D01*
X4530749Y-42959158D01*
X4528970Y-42962050D01*
X3709610Y-43940079D01*
X3701670Y-43944220D01*
X3693127Y-43941534D01*
X3691727Y-43940143D01*
X2862142Y-42964283D01*
X2859394Y-42955760D01*
X2863478Y-42947791D01*
X2868162Y-42945369D01*
X3431109Y-42801842D01*
X3615187Y-42754911D01*
X3615187Y-42754910D01*
X3615190Y-42754910D01*
X3751002Y-42619097D01*
X3759274Y-42615671D01*
X3763893Y-42616622D01*
G37*
%TD.AperFunction*%
%TD*%
%TA.AperFunction,Conductor*%
%TO.N,GND*%
G36*
X3894420Y-42584021D02*
G01*
X3901843Y-42589028D01*
X3903552Y-42597818D01*
X3903396Y-42598486D01*
X3802308Y-42979577D01*
X3796874Y-42986695D01*
X3790999Y-42988277D01*
X3608416Y-42988277D01*
X3600143Y-42984850D01*
X3597323Y-42980298D01*
X3469431Y-42599039D01*
X3470049Y-42590109D01*
X3476803Y-42584228D01*
X3478183Y-42583858D01*
X3683570Y-42542074D01*
X3688230Y-42542074D01*
X3894420Y-42584021D01*
G37*
%TD.AperFunction*%
%TD*%
%TA.AperFunction,Conductor*%
%TO.N,+5V*%
G36*
X19577189Y-26929116D02*
G01*
X20437162Y-27728048D01*
X20440891Y-27736190D01*
X20438935Y-27743108D01*
X20005051Y-28394187D01*
X19997612Y-28399171D01*
X19993024Y-28399173D01*
X19225764Y-28246002D01*
X19218322Y-28241021D01*
X19216412Y-28233381D01*
X19321030Y-27173091D01*
X19324399Y-27165969D01*
X19560954Y-26929414D01*
X19569226Y-26925988D01*
X19577189Y-26929116D01*
G37*
%TD.AperFunction*%
%TD*%
%TA.AperFunction,Conductor*%
%TO.N,+5V*%
G36*
X26925318Y-29328427D02*
G01*
X26927925Y-29332398D01*
X27154650Y-29905746D01*
X27154506Y-29914699D01*
X27150959Y-29919279D01*
X26732189Y-30245401D01*
X26723556Y-30247781D01*
X26717811Y-30245401D01*
X26299040Y-29919279D01*
X26294618Y-29911492D01*
X26295348Y-29905749D01*
X26522075Y-29332398D01*
X26528304Y-29325964D01*
X26532955Y-29325000D01*
X26917045Y-29325000D01*
X26925318Y-29328427D01*
G37*
%TD.AperFunction*%
%TD*%
%TA.AperFunction,Conductor*%
%TO.N,+5V*%
G36*
X26732187Y-28754597D02*
G01*
X26980875Y-28948265D01*
X27150959Y-29080720D01*
X27155381Y-29088507D01*
X27154650Y-29094253D01*
X26927925Y-29667602D01*
X26921696Y-29674036D01*
X26917045Y-29675000D01*
X26532955Y-29675000D01*
X26524682Y-29671573D01*
X26522075Y-29667602D01*
X26295349Y-29094253D01*
X26295493Y-29085300D01*
X26299039Y-29080721D01*
X26717811Y-28754597D01*
X26726444Y-28752218D01*
X26732187Y-28754597D01*
G37*
%TD.AperFunction*%
%TD*%
%TA.AperFunction,Conductor*%
%TO.N,+5V*%
G36*
X20169189Y-27620740D02*
G01*
X21577359Y-28197025D01*
X21583718Y-28203330D01*
X21584628Y-28207853D01*
X21584628Y-28592146D01*
X21581201Y-28600419D01*
X21577359Y-28602974D01*
X20169192Y-29179258D01*
X20160238Y-29179220D01*
X20153933Y-29172861D01*
X20153289Y-29170727D01*
X19999459Y-28402292D01*
X19999459Y-28397707D01*
X20153289Y-27629271D01*
X20158273Y-27621833D01*
X20167058Y-27620097D01*
X20169189Y-27620740D01*
G37*
%TD.AperFunction*%
%TD*%
%TA.AperFunction,Conductor*%
%TO.N,+5V*%
G36*
X25864073Y-28201056D02*
G01*
X26622731Y-28264361D01*
X26738938Y-28274058D01*
X26746897Y-28278160D01*
X26749650Y-28286313D01*
X26726290Y-28744305D01*
X26722446Y-28752393D01*
X26721335Y-28753280D01*
X26294980Y-29053087D01*
X26286241Y-29055042D01*
X26279761Y-29051568D01*
X25854623Y-28603385D01*
X25851412Y-28595333D01*
X25851412Y-28212716D01*
X25854839Y-28204443D01*
X25863112Y-28201016D01*
X25864073Y-28201056D01*
G37*
%TD.AperFunction*%
%TD*%
M02*
