M48
; DRILL file {KiCad 9.0.3} date 2025-07-25T13:03:31+0900
; FORMAT={-:-/ absolute / inch / decimal}
; #@! TF.CreationDate,2025-07-25T13:03:31+09:00
; #@! TF.GenerationSoftware,Kicad,Pcbnew,9.0.3
; #@! TF.FileFunction,Plated,1,2,PTH
FMAT,2
INCH
; #@! TA.AperFunction,Plated,PTH,ViaDrill
T1C0.0118
; #@! TA.AperFunction,Plated,PTH,ComponentDrill
T2C0.0315
%
G90
G05
T1
X0.0347Y-0.3872
X0.0744Y-0.9865
X0.0744Y-1.2565
X0.1077Y-0.8219
X0.1145Y-0.9154
X0.1195Y-1.8399
X0.1258Y-1.8786
X0.1302Y-0.9457
X0.1451Y-1.6749
X0.1457Y-0.4961
X0.1503Y-1.7927
X0.1575Y-1.0531
X0.1657Y-0.9982
X0.181Y-1.1563
X0.1855Y-1.0136
X0.1971Y-0.9796
X0.1978Y-1.1004
X0.2968Y-1.0946
X0.3115Y-0.9834
X0.3264Y-1.0114
X0.3574Y-1.091
X0.3829Y-0.5647
X0.3846Y-1.0983
X0.3872Y-0.9989
X0.4074Y-0.4958
X0.4189Y-1.2154
X0.4427Y-0.9925
X0.4469Y-1.0461
X0.4508Y-0.0417
X0.4518Y-0.9661
X0.455Y-1.0161
X0.4952Y-0.3877
X0.5253Y-1.1907
X0.5691Y-0.2892
X0.5728Y-0.6634
X0.5749Y-1.2052
X0.6659Y-0.8473
X0.6713Y-1.5751
X0.7067Y-1.2848
X0.7221Y-0.8254
X0.7251Y-1.3142
X0.7302Y-1.4239
X0.8421Y-1.0019
X1.1122Y-1.0689
X1.3269Y-0.9078
X1.3326Y-0.4681
T2
X0.7874Y-0.1181
X0.7874Y-0.2181
X0.7874Y-0.3181
X0.7874Y-0.4181
X0.7874Y-0.5181
X0.7874Y-0.6181
X0.7874Y-0.7181
X0.7874Y-0.8181
X0.7874Y-0.9181
X0.7874Y-1.0181
X0.7874Y-1.1181
X0.7874Y-1.2181
X0.7874Y-1.3181
X0.7874Y-1.4181
X0.7874Y-1.5181
X0.7874Y-1.6181
X0.7874Y-1.7181
X0.7874Y-1.8181
X0.7874Y-1.9181
X0.7874Y-2.0181
X1.3874Y-0.1181
X1.3874Y-0.2181
X1.3874Y-0.3181
X1.3874Y-0.4181
X1.3874Y-0.5181
X1.3874Y-0.6181
X1.3874Y-0.7181
X1.3874Y-0.8181
X1.3874Y-0.9181
X1.3874Y-1.0181
X1.3874Y-1.1181
X1.3874Y-1.2181
X1.3874Y-1.3181
X1.3874Y-1.4181
X1.3874Y-1.5181
X1.3874Y-1.6181
X1.3874Y-1.7181
X1.3874Y-1.8181
X1.3874Y-1.9181
X1.3874Y-2.0181
M30
