%TF.GenerationSoftware,KiCad,Pcbnew,9.0.3*%
%TF.CreationDate,2025-07-25T13:03:31+09:00*%
%TF.ProjectId,NORZ_Z80,4e4f525a-5f5a-4383-902e-6b696361645f,rev?*%
%TF.SameCoordinates,Original*%
%TF.FileFunction,Soldermask,Bot*%
%TF.FilePolarity,Negative*%
%FSLAX46Y46*%
G04 Gerber Fmt 4.6, Leading zero omitted, Abs format (unit mm)*
G04 Created by KiCad (PCBNEW 9.0.3) date 2025-07-25 13:03:31*
%MOMM*%
%LPD*%
G01*
G04 APERTURE LIST*
G04 Aperture macros list*
%AMRoundRect*
0 Rectangle with rounded corners*
0 $1 Rounding radius*
0 $2 $3 $4 $5 $6 $7 $8 $9 X,Y pos of 4 corners*
0 Add a 4 corners polygon primitive as box body*
4,1,4,$2,$3,$4,$5,$6,$7,$8,$9,$2,$3,0*
0 Add four circle primitives for the rounded corners*
1,1,$1+$1,$2,$3*
1,1,$1+$1,$4,$5*
1,1,$1+$1,$6,$7*
1,1,$1+$1,$8,$9*
0 Add four rect primitives between the rounded corners*
20,1,$1+$1,$2,$3,$4,$5,0*
20,1,$1+$1,$4,$5,$6,$7,0*
20,1,$1+$1,$6,$7,$8,$9,0*
20,1,$1+$1,$8,$9,$2,$3,0*%
G04 Aperture macros list end*
%ADD10C,3.200000*%
%ADD11C,1.300000*%
%ADD12RoundRect,0.250000X-0.550000X-0.550000X0.550000X-0.550000X0.550000X0.550000X-0.550000X0.550000X0*%
%ADD13C,1.600000*%
G04 APERTURE END LIST*
D10*
%TO.C,H1*%
X4000000Y-4000000D03*
%TD*%
%TO.C,H10*%
X27500000Y-40000000D03*
%TD*%
%TO.C,H9*%
X27500000Y-15000000D03*
%TD*%
D11*
%TO.C,H8*%
X48000000Y-48000000D03*
%TD*%
D10*
%TO.C,H3*%
X51000000Y-4000000D03*
%TD*%
%TO.C,H4*%
X51000000Y-51000000D03*
%TD*%
%TO.C,H2*%
X4000000Y-51000000D03*
%TD*%
D11*
%TO.C,H6*%
X7000000Y-48000000D03*
%TD*%
D12*
%TO.C,U2*%
X20000000Y-3000000D03*
D13*
X20000000Y-5540000D03*
X20000000Y-8080000D03*
X20000000Y-10620000D03*
X20000000Y-13160000D03*
X20000000Y-15700000D03*
X20000000Y-18240000D03*
X20000000Y-20780000D03*
X20000000Y-23320000D03*
X20000000Y-25860000D03*
X20000000Y-28400000D03*
X20000000Y-30940000D03*
X20000000Y-33480000D03*
X20000000Y-36020000D03*
X20000000Y-38560000D03*
X20000000Y-41100000D03*
X20000000Y-43640000D03*
X20000000Y-46180000D03*
X20000000Y-48720000D03*
X20000000Y-51260000D03*
X35240000Y-51260000D03*
X35240000Y-48720000D03*
X35240000Y-46180000D03*
X35240000Y-43640000D03*
X35240000Y-41100000D03*
X35240000Y-38560000D03*
X35240000Y-36020000D03*
X35240000Y-33480000D03*
X35240000Y-30940000D03*
X35240000Y-28400000D03*
X35240000Y-25860000D03*
X35240000Y-23320000D03*
X35240000Y-20780000D03*
X35240000Y-18240000D03*
X35240000Y-15700000D03*
X35240000Y-13160000D03*
X35240000Y-10620000D03*
X35240000Y-8080000D03*
X35240000Y-5540000D03*
X35240000Y-3000000D03*
%TD*%
D11*
%TO.C,H5*%
X7000000Y-7000000D03*
%TD*%
%TO.C,H7*%
X48000000Y-7000000D03*
%TD*%
M02*
