%TF.GenerationSoftware,KiCad,Pcbnew,9.0.3*%
%TF.CreationDate,2026-01-25T21:09:20+09:00*%
%TF.ProjectId,main,6d61696e-2e6b-4696-9361-645f70636258,rev?*%
%TF.SameCoordinates,Original*%
%TF.FileFunction,Soldermask,Top*%
%TF.FilePolarity,Negative*%
%FSLAX46Y46*%
G04 Gerber Fmt 4.6, Leading zero omitted, Abs format (unit mm)*
G04 Created by KiCad (PCBNEW 9.0.3) date 2026-01-25 21:09:20*
%MOMM*%
%LPD*%
G01*
G04 APERTURE LIST*
%ADD10C,1.300000*%
%ADD11R,3.000000X3.000000*%
%ADD12C,3.000000*%
%ADD13C,1.700000*%
%ADD14O,1.700000X1.700000*%
%ADD15R,1.700000X1.700000*%
G04 APERTURE END LIST*
D10*
%TO.C,H6*%
X73000000Y-53000000D03*
%TD*%
%TO.C,H5*%
X7000000Y-7000000D03*
%TD*%
D11*
%TO.C,J2*%
X60000000Y-4000000D03*
D12*
X65080000Y-4000000D03*
%TD*%
D10*
%TO.C,H7*%
X73000000Y-7000000D03*
%TD*%
%TO.C,H8*%
X7000000Y-53000000D03*
%TD*%
D13*
%TO.C,J1*%
X60400000Y-46105000D03*
D14*
X60400000Y-48645000D03*
X57860000Y-46105000D03*
X57860000Y-48645000D03*
X55320000Y-46105000D03*
X55320000Y-48645000D03*
X52780000Y-46105000D03*
X52780000Y-48645000D03*
X50240000Y-46105000D03*
X50240000Y-48645000D03*
X47700000Y-46105000D03*
X47700000Y-48645000D03*
X45160000Y-46105000D03*
X45160000Y-48645000D03*
X42620000Y-46105000D03*
X42620000Y-48645000D03*
X40080000Y-46105000D03*
X40080000Y-48645000D03*
X37540000Y-46105000D03*
X37540000Y-48645000D03*
X35000000Y-46105000D03*
X35000000Y-48645000D03*
X32460000Y-46105000D03*
X32460000Y-48645000D03*
X29920000Y-46105000D03*
X29920000Y-48645000D03*
X27380000Y-46105000D03*
X27380000Y-48645000D03*
X24840000Y-46105000D03*
X24840000Y-48645000D03*
X22300000Y-46105000D03*
X22300000Y-48645000D03*
X19760000Y-46105000D03*
X19760000Y-48645000D03*
X17220000Y-46105000D03*
X17220000Y-48645000D03*
X14680000Y-46105000D03*
X14680000Y-48645000D03*
D15*
X12140000Y-46105000D03*
X12140000Y-48645000D03*
D14*
X9600000Y-46105000D03*
X9600000Y-48645000D03*
D13*
X60400000Y-13085000D03*
D14*
X60400000Y-15625000D03*
X57860000Y-13085000D03*
X57860000Y-15625000D03*
X55320000Y-13085000D03*
X55320000Y-15625000D03*
X52780000Y-13085000D03*
X52780000Y-15625000D03*
X50240000Y-13085000D03*
X50240000Y-15625000D03*
X47700000Y-13085000D03*
X47700000Y-15625000D03*
X45160000Y-13085000D03*
X45160000Y-15625000D03*
X42620000Y-13085000D03*
X42620000Y-15625000D03*
X40080000Y-13085000D03*
X40080000Y-15625000D03*
X37540000Y-13085000D03*
X37540000Y-15625000D03*
X35000000Y-13085000D03*
X35000000Y-15625000D03*
X32460000Y-13085000D03*
X32460000Y-15625000D03*
X29920000Y-13085000D03*
X29920000Y-15625000D03*
X27380000Y-13085000D03*
X27380000Y-15625000D03*
X24840000Y-13085000D03*
X24840000Y-15625000D03*
X22300000Y-13085000D03*
X22300000Y-15625000D03*
D13*
X57860000Y-18165000D03*
D14*
X60400000Y-18165000D03*
X57860000Y-20705000D03*
X60400000Y-20705000D03*
X57860000Y-23245000D03*
X60400000Y-23245000D03*
%TD*%
M02*
