M48
; DRILL file {KiCad 9.0.3} date 2026-01-25T21:09:20+0900
; FORMAT={-:-/ absolute / inch / decimal}
; #@! TF.CreationDate,2026-01-25T21:09:20+09:00
; #@! TF.GenerationSoftware,Kicad,Pcbnew,9.0.3
; #@! TF.FileFunction,Plated,1,2,PTH
FMAT,2
INCH
; #@! TA.AperFunction,Plated,PTH,ViaDrill
T1C0.0118
; #@! TA.AperFunction,Plated,PTH,ComponentDrill
T2C0.0394
; #@! TA.AperFunction,Plated,PTH,ComponentDrill
T3C0.0598
%
G90
G05
T1
X0.9428Y-1.2595
X0.989Y-1.2425
X1.0734Y-1.3969
X1.1921Y-1.4655
X1.2021Y-1.4102
X1.2217Y-1.3638
X1.2854Y-1.4907
X1.3303Y-1.1578
X1.3872Y-1.1757
X1.4102Y-1.1546
X1.49Y-0.9807
X1.5748Y-1.1271
X1.6257Y-1.0424
X1.6697Y-1.2767
X1.6709Y-1.1857
X1.8735Y-0.8851
X1.9811Y-0.9852
X2.0533Y-1.0087
X2.1298Y-1.2792
X2.1596Y-1.2744
X2.2356Y-1.1853
X2.3403Y-1.1027
X2.4476Y-0.5896
X2.505Y-1.959
X2.6808Y-1.7923
X2.6874Y-1.52
X2.7328Y-1.6265
X2.7679Y-1.7782
X2.7695Y-1.9623
X2.781Y-0.8589
X2.8149Y-1.3737
X2.8156Y-1.1475
X2.8254Y-1.2547
X2.8265Y-1.4325
X2.8273Y-1.7499
X2.8291Y-1.0238
X2.8329Y-0.5992
X2.833Y-0.8073
X2.8339Y-1.1701
X2.834Y-1.475
X2.8359Y-1.3555
X2.845Y-1.5011
X2.8455Y-1.966
X2.8461Y-1.1244
X2.8491Y-0.6511
X2.8528Y-1.4407
X2.853Y-1.152
X2.8564Y-1.2748
X2.858Y-0.7185
X2.8588Y-1.2088
X2.861Y-1.3087
X2.8616Y-0.6791
X2.8633Y-1.3893
X2.9109Y-0.5641
X2.9577Y-0.7642
X2.9664Y-1.1748
X2.9679Y-0.8282
X2.9818Y-1.355
X2.9837Y-0.5889
X2.9841Y-1.2138
X3.0043Y-1.1935
X3.0101Y-1.4655
X3.0111Y-0.8976
X3.0115Y-1.085
X3.063Y-0.7972
T2
X0.378Y-1.8152
X0.378Y-1.9152
X0.478Y-1.8152
X0.478Y-1.9152
X0.578Y-1.8152
X0.578Y-1.9152
X0.678Y-1.8152
X0.678Y-1.9152
X0.778Y-1.8152
X0.778Y-1.9152
X0.878Y-0.5152
X0.878Y-0.6152
X0.878Y-1.8152
X0.878Y-1.9152
X0.978Y-0.5152
X0.978Y-0.6152
X0.978Y-1.8152
X0.978Y-1.9152
X1.078Y-0.5152
X1.078Y-0.6152
X1.078Y-1.8152
X1.078Y-1.9152
X1.178Y-0.5152
X1.178Y-0.6152
X1.178Y-1.8152
X1.178Y-1.9152
X1.278Y-0.5152
X1.278Y-0.6152
X1.278Y-1.8152
X1.278Y-1.9152
X1.378Y-0.5152
X1.378Y-0.6152
X1.378Y-1.8152
X1.378Y-1.9152
X1.478Y-0.5152
X1.478Y-0.6152
X1.478Y-1.8152
X1.478Y-1.9152
X1.578Y-0.5152
X1.578Y-0.6152
X1.578Y-1.8152
X1.578Y-1.9152
X1.678Y-0.5152
X1.678Y-0.6152
X1.678Y-1.8152
X1.678Y-1.9152
X1.778Y-0.5152
X1.778Y-0.6152
X1.778Y-1.8152
X1.778Y-1.9152
X1.878Y-0.5152
X1.878Y-0.6152
X1.878Y-1.8152
X1.878Y-1.9152
X1.978Y-0.5152
X1.978Y-0.6152
X1.978Y-1.8152
X1.978Y-1.9152
X2.078Y-0.5152
X2.078Y-0.6152
X2.078Y-1.8152
X2.078Y-1.9152
X2.178Y-0.5152
X2.178Y-0.6152
X2.178Y-1.8152
X2.178Y-1.9152
X2.278Y-0.5152
X2.278Y-0.6152
X2.278Y-0.7152
X2.278Y-0.8152
X2.278Y-0.9152
X2.278Y-1.8152
X2.278Y-1.9152
X2.378Y-0.5152
X2.378Y-0.6152
X2.378Y-0.7152
X2.378Y-0.8152
X2.378Y-0.9152
X2.378Y-1.8152
X2.378Y-1.9152
T3
X2.3622Y-0.1575
X2.5622Y-0.1575
M30
