%TF.GenerationSoftware,KiCad,Pcbnew,9.0.3*%
%TF.CreationDate,2026-01-25T21:09:20+09:00*%
%TF.ProjectId,main,6d61696e-2e6b-4696-9361-645f70636258,rev?*%
%TF.SameCoordinates,Original*%
%TF.FileFunction,Copper,L2,Bot*%
%TF.FilePolarity,Positive*%
%FSLAX46Y46*%
G04 Gerber Fmt 4.6, Leading zero omitted, Abs format (unit mm)*
G04 Created by KiCad (PCBNEW 9.0.3) date 2026-01-25 21:09:20*
%MOMM*%
%LPD*%
G01*
G04 APERTURE LIST*
%TA.AperFunction,ComponentPad*%
%ADD10R,3.000000X3.000000*%
%TD*%
%TA.AperFunction,ComponentPad*%
%ADD11C,3.000000*%
%TD*%
%TA.AperFunction,ComponentPad*%
%ADD12C,1.700000*%
%TD*%
%TA.AperFunction,ComponentPad*%
%ADD13O,1.700000X1.700000*%
%TD*%
%TA.AperFunction,ComponentPad*%
%ADD14R,1.700000X1.700000*%
%TD*%
%TA.AperFunction,SMDPad,CuDef*%
%ADD15R,1.500000X0.350000*%
%TD*%
%TA.AperFunction,SMDPad,CuDef*%
%ADD16R,1.700000X2.000000*%
%TD*%
%TA.AperFunction,ViaPad*%
%ADD17C,0.500000*%
%TD*%
%TA.AperFunction,Conductor*%
%ADD18C,0.150000*%
%TD*%
%TA.AperFunction,Conductor*%
%ADD19C,0.350000*%
%TD*%
G04 APERTURE END LIST*
D10*
%TO.P,J2,1,Pin_1*%
%TO.N,GND*%
X60000000Y-4000000D03*
D11*
%TO.P,J2,2,Pin_2*%
%TO.N,VCC*%
X65080000Y-4000000D03*
%TD*%
D12*
%TO.P,J1,1,D30*%
%TO.N,D30*%
X60400000Y-46105000D03*
D13*
%TO.P,J1,2,D31*%
%TO.N,D31*%
X60400000Y-48645000D03*
%TO.P,J1,3,D28*%
%TO.N,D28*%
X57860000Y-46105000D03*
%TO.P,J1,4,D29*%
%TO.N,D29*%
X57860000Y-48645000D03*
%TO.P,J1,5,D26*%
%TO.N,D26*%
X55320000Y-46105000D03*
%TO.P,J1,6,D27*%
%TO.N,D27*%
X55320000Y-48645000D03*
%TO.P,J1,7,D24*%
%TO.N,D24*%
X52780000Y-46105000D03*
%TO.P,J1,8,D25*%
%TO.N,D25*%
X52780000Y-48645000D03*
%TO.P,J1,9,D22*%
%TO.N,D22*%
X50240000Y-46105000D03*
%TO.P,J1,10,D23*%
%TO.N,D23*%
X50240000Y-48645000D03*
%TO.P,J1,11,D20*%
%TO.N,D20*%
X47700000Y-46105000D03*
%TO.P,J1,12,D21*%
%TO.N,D21*%
X47700000Y-48645000D03*
%TO.P,J1,13,D18*%
%TO.N,D18*%
X45160000Y-46105000D03*
%TO.P,J1,14,D19*%
%TO.N,D19*%
X45160000Y-48645000D03*
%TO.P,J1,15,D16*%
%TO.N,D16*%
X42620000Y-46105000D03*
%TO.P,J1,16,D17*%
%TO.N,D17*%
X42620000Y-48645000D03*
%TO.P,J1,17,D14*%
%TO.N,D14*%
X40080000Y-46105000D03*
%TO.P,J1,18,D15*%
%TO.N,D15*%
X40080000Y-48645000D03*
%TO.P,J1,19,D12*%
%TO.N,D12*%
X37540000Y-46105000D03*
%TO.P,J1,20,D13*%
%TO.N,D13*%
X37540000Y-48645000D03*
%TO.P,J1,21,D10*%
%TO.N,D10*%
X35000000Y-46105000D03*
%TO.P,J1,22,D11*%
%TO.N,D11*%
X35000000Y-48645000D03*
%TO.P,J1,23,D8*%
%TO.N,D8*%
X32460000Y-46105000D03*
%TO.P,J1,24,D9*%
%TO.N,D9*%
X32460000Y-48645000D03*
%TO.P,J1,25,D6*%
%TO.N,D6*%
X29920000Y-46105000D03*
%TO.P,J1,26,D7*%
%TO.N,D7*%
X29920000Y-48645000D03*
%TO.P,J1,27,D4*%
%TO.N,D4*%
X27380000Y-46105000D03*
%TO.P,J1,28,D5*%
%TO.N,D5*%
X27380000Y-48645000D03*
%TO.P,J1,29,D2*%
%TO.N,D2*%
X24840000Y-46105000D03*
%TO.P,J1,30,D3*%
%TO.N,D3*%
X24840000Y-48645000D03*
%TO.P,J1,31,D0*%
%TO.N,D0*%
X22300000Y-46105000D03*
%TO.P,J1,32,D1*%
%TO.N,D1*%
X22300000Y-48645000D03*
%TO.P,J1,33,AREF*%
%TO.N,unconnected-(J1A-AREF-Pad33)*%
X19760000Y-46105000D03*
%TO.P,J1,34,RST*%
%TO.N,RESET*%
X19760000Y-48645000D03*
%TO.P,J1,35,3V3*%
%TO.N,+3.3VA*%
X17220000Y-46105000D03*
%TO.P,J1,36,3V3*%
X17220000Y-48645000D03*
%TO.P,J1,37,5V*%
%TO.N,VCC*%
X14680000Y-46105000D03*
%TO.P,J1,38,5V*%
X14680000Y-48645000D03*
D14*
%TO.P,J1,39,GND*%
%TO.N,GND*%
X12140000Y-46105000D03*
%TO.P,J1,40,GND*%
X12140000Y-48645000D03*
D13*
%TO.P,J1,41,VIN*%
%TO.N,unconnected-(J1A-VIN-Pad41)*%
X9600000Y-46105000D03*
%TO.P,J1,42,VIN*%
%TO.N,unconnected-(J1A-VIN-Pad42)*%
X9600000Y-48645000D03*
D12*
%TO.P,J1,43,D46*%
%TO.N,D46*%
X60400000Y-13085000D03*
D13*
%TO.P,J1,44,D47*%
%TO.N,D47*%
X60400000Y-15625000D03*
%TO.P,J1,45,D44*%
%TO.N,D44*%
X57860000Y-13085000D03*
%TO.P,J1,46,D45*%
%TO.N,D45*%
X57860000Y-15625000D03*
%TO.P,J1,47,D42*%
%TO.N,D42*%
X55320000Y-13085000D03*
%TO.P,J1,48,D43*%
%TO.N,D43*%
X55320000Y-15625000D03*
%TO.P,J1,49,D40*%
%TO.N,D40*%
X52780000Y-13085000D03*
%TO.P,J1,50,D41*%
%TO.N,D41*%
X52780000Y-15625000D03*
%TO.P,J1,51,D38*%
%TO.N,D38*%
X50240000Y-13085000D03*
%TO.P,J1,52,D39*%
%TO.N,D39*%
X50240000Y-15625000D03*
%TO.P,J1,53,D36*%
%TO.N,D36*%
X47700000Y-13085000D03*
%TO.P,J1,54,D37*%
%TO.N,D37*%
X47700000Y-15625000D03*
%TO.P,J1,55,D34*%
%TO.N,D34*%
X45160000Y-13085000D03*
%TO.P,J1,56,D35*%
%TO.N,D35*%
X45160000Y-15625000D03*
%TO.P,J1,57,D32*%
%TO.N,D32*%
X42620000Y-13085000D03*
%TO.P,J1,58,D33*%
%TO.N,D33*%
X42620000Y-15625000D03*
%TO.P,J1,59,A14*%
%TO.N,A14*%
X40080000Y-13085000D03*
%TO.P,J1,60,A15*%
%TO.N,A15*%
X40080000Y-15625000D03*
%TO.P,J1,61,A12*%
%TO.N,A12*%
X37540000Y-13085000D03*
%TO.P,J1,62,A13*%
%TO.N,A13*%
X37540000Y-15625000D03*
%TO.P,J1,63,A10*%
%TO.N,A10*%
X35000000Y-13085000D03*
%TO.P,J1,64,A11*%
%TO.N,A11*%
X35000000Y-15625000D03*
%TO.P,J1,65,A8*%
%TO.N,A8*%
X32460000Y-13085000D03*
%TO.P,J1,66,A9*%
%TO.N,A9*%
X32460000Y-15625000D03*
%TO.P,J1,67,A6*%
%TO.N,A6*%
X29920000Y-13085000D03*
%TO.P,J1,68,A7*%
%TO.N,A7*%
X29920000Y-15625000D03*
%TO.P,J1,69,A4*%
%TO.N,A4*%
X27380000Y-13085000D03*
%TO.P,J1,70,A5*%
%TO.N,A5*%
X27380000Y-15625000D03*
%TO.P,J1,71,A2*%
%TO.N,A2*%
X24840000Y-13085000D03*
%TO.P,J1,72,A3*%
%TO.N,A3*%
X24840000Y-15625000D03*
%TO.P,J1,73,A0*%
%TO.N,A0*%
X22300000Y-13085000D03*
%TO.P,J1,74,A1*%
%TO.N,A1*%
X22300000Y-15625000D03*
D12*
%TO.P,J1,75,D49*%
%TO.N,D49*%
X57860000Y-18165000D03*
D13*
%TO.P,J1,76,D48*%
%TO.N,D48*%
X60400000Y-18165000D03*
%TO.P,J1,77,D51*%
%TO.N,D51*%
X57860000Y-20705000D03*
%TO.P,J1,78,D50*%
%TO.N,D50*%
X60400000Y-20705000D03*
%TO.P,J1,79,D53*%
%TO.N,D53*%
X57860000Y-23245000D03*
%TO.P,J1,80,D52*%
%TO.N,D52*%
X60400000Y-23245000D03*
%TD*%
D15*
%TO.P,U1,1,1*%
%TO.N,D43*%
X73900000Y-15250000D03*
%TO.P,U1,2,2*%
%TO.N,D44*%
X73900000Y-15750000D03*
%TO.P,U1,3,3*%
%TO.N,D45*%
X73900000Y-16250000D03*
%TO.P,U1,4,4*%
%TO.N,D46*%
X73900000Y-16750000D03*
%TO.P,U1,5,5*%
%TO.N,D47*%
X73900000Y-17250000D03*
%TO.P,U1,6,6*%
%TO.N,D27*%
X73900000Y-17750000D03*
%TO.P,U1,7,7*%
%TO.N,D34*%
X73900000Y-18250000D03*
%TO.P,U1,8,8*%
%TO.N,D33*%
X73900000Y-18750000D03*
%TO.P,U1,9,9*%
%TO.N,D35*%
X73900000Y-19250000D03*
%TO.P,U1,10,10*%
%TO.N,D36*%
X73900000Y-19750000D03*
%TO.P,U1,11,11*%
%TO.N,VCC*%
X73900000Y-20250000D03*
%TO.P,U1,12,12*%
%TO.N,D32*%
X73900000Y-20750000D03*
%TO.P,U1,13,13*%
%TO.N,D37*%
X73900000Y-21250000D03*
%TO.P,U1,14,14*%
%TO.N,D30*%
X73900000Y-21750000D03*
%TO.P,U1,15,15*%
%TO.N,D31*%
X73900000Y-22250000D03*
%TO.P,U1,16,16*%
%TO.N,D26*%
X73900000Y-22750000D03*
%TO.P,U1,17,17*%
%TO.N,D25*%
X73900000Y-23250000D03*
%TO.P,U1,18,18*%
%TO.N,D24*%
X73900000Y-23750000D03*
%TO.P,U1,19,19*%
%TO.N,D23*%
X73900000Y-24250000D03*
%TO.P,U1,20,20*%
%TO.N,D22*%
X73900000Y-24750000D03*
%TO.P,U1,21,21*%
%TO.N,D38*%
X73900000Y-25250000D03*
%TO.P,U1,22,22*%
%TO.N,D39*%
X73900000Y-25750000D03*
%TO.P,U1,23,23*%
%TO.N,D17*%
X73900000Y-26250000D03*
%TO.P,U1,24,24*%
%TO.N,D16*%
X73900000Y-26750000D03*
%TO.P,U1,25,25*%
%TO.N,D15*%
X73900000Y-27250000D03*
%TO.P,U1,26,26*%
%TO.N,D14*%
X73900000Y-27750000D03*
%TO.P,U1,27,27*%
%TO.N,D28*%
X73900000Y-28250000D03*
%TO.P,U1,28,28*%
%TO.N,D29*%
X73900000Y-28750000D03*
%TO.P,U1,29,29*%
%TO.N,GND*%
X73900000Y-29250000D03*
%TO.P,U1,30,30*%
%TO.N,A8*%
X73900000Y-29750000D03*
%TO.P,U1,31,31*%
%TO.N,A9*%
X73900000Y-30250000D03*
%TO.P,U1,32,32*%
%TO.N,A10*%
X73900000Y-30750000D03*
%TO.P,U1,33,33*%
%TO.N,A11*%
X73900000Y-31250000D03*
%TO.P,U1,34,34*%
%TO.N,A12*%
X73900000Y-31750000D03*
%TO.P,U1,35,35*%
%TO.N,A13*%
X73900000Y-32250000D03*
%TO.P,U1,36,36*%
%TO.N,A14*%
X73900000Y-32750000D03*
%TO.P,U1,37,37*%
%TO.N,A15*%
X73900000Y-33250000D03*
%TO.P,U1,38,38*%
%TO.N,D40*%
X73900000Y-33750000D03*
%TO.P,U1,39,39*%
%TO.N,D41*%
X73900000Y-34250000D03*
%TO.P,U1,40,40*%
%TO.N,D42*%
X73900000Y-34750000D03*
%TO.P,U1,41,41*%
%TO.N,A0*%
X73900000Y-35250000D03*
%TO.P,U1,42,42*%
%TO.N,A1*%
X73900000Y-35750000D03*
%TO.P,U1,43,43*%
%TO.N,A2*%
X73900000Y-36250000D03*
%TO.P,U1,44,44*%
%TO.N,A3*%
X73900000Y-36750000D03*
%TO.P,U1,45,45*%
%TO.N,A4*%
X73900000Y-37250000D03*
%TO.P,U1,46,46*%
%TO.N,A5*%
X73900000Y-37750000D03*
%TO.P,U1,47,47*%
%TO.N,A6*%
X73900000Y-38250000D03*
%TO.P,U1,48,48*%
%TO.N,A7*%
X73900000Y-38750000D03*
%TO.P,U1,49,49*%
%TO.N,unconnected-(U1-Pad49)*%
X73900000Y-39250000D03*
%TO.P,U1,50,50*%
%TO.N,unconnected-(U1-Pad50)*%
X73900000Y-39750000D03*
%TO.P,U1,51,51*%
%TO.N,unconnected-(U1-Pad51)*%
X73900000Y-40250000D03*
%TO.P,U1,52,52*%
%TO.N,unconnected-(U1-Pad52)*%
X73900000Y-40750000D03*
%TO.P,U1,53,53*%
%TO.N,unconnected-(U1-Pad53)*%
X73900000Y-41250000D03*
%TO.P,U1,54,54*%
%TO.N,unconnected-(U1-Pad54)*%
X73900000Y-41750000D03*
%TO.P,U1,55,55*%
%TO.N,unconnected-(U1-Pad55)*%
X73900000Y-42250000D03*
%TO.P,U1,56,56*%
%TO.N,unconnected-(U1-Pad56)*%
X73900000Y-42750000D03*
%TO.P,U1,57,57*%
%TO.N,unconnected-(U1-Pad57)*%
X73900000Y-43250000D03*
%TO.P,U1,58,58*%
%TO.N,unconnected-(U1-Pad58)*%
X73900000Y-43750000D03*
%TO.P,U1,59,59*%
%TO.N,unconnected-(U1-Pad59)*%
X73900000Y-44250000D03*
%TO.P,U1,60,60*%
%TO.N,unconnected-(U1-Pad60)*%
X73900000Y-44750000D03*
D16*
%TO.P,U1,61,61*%
%TO.N,GND*%
X76500000Y-46450000D03*
%TO.P,U1,62,62*%
X76500000Y-13550000D03*
%TD*%
D17*
%TO.N,A13*%
X41293500Y-26477400D03*
X75796300Y-30829300D03*
%TO.N,A5*%
X30280000Y-37224000D03*
X71983800Y-37466200D03*
%TO.N,A6*%
X32648200Y-37863500D03*
X72262400Y-38127600D03*
%TO.N,A10*%
X75347500Y-29840300D03*
X37845400Y-24909800D03*
%TO.N,D35*%
X47586000Y-22482800D03*
X75124600Y-19409600D03*
%TO.N,D24*%
X68261200Y-38606900D03*
%TO.N,A11*%
X35818500Y-29327900D03*
X71981900Y-29721400D03*
%TO.N,D32*%
X70636900Y-21816100D03*
%TO.N,D47*%
X72685300Y-17250000D03*
%TO.N,VCC*%
X77800000Y-20250000D03*
%TO.N,A12*%
X40000500Y-28629400D03*
X71516700Y-29145300D03*
%TO.N,A1*%
X25119500Y-31560700D03*
X71499400Y-34892300D03*
%TO.N,D28*%
X71814500Y-44448000D03*
%TO.N,D41*%
X54853500Y-32369400D03*
X75738100Y-34416100D03*
%TO.N,D34*%
X75787100Y-14958800D03*
%TO.N,A15*%
X72668400Y-33242100D03*
X42411400Y-32428600D03*
%TO.N,A4*%
X30534400Y-35818400D03*
X71792900Y-36385900D03*
%TO.N,A0*%
X23948200Y-31990900D03*
X72726600Y-35288500D03*
%TO.N,D25*%
X63627900Y-49759400D03*
%TO.N,D44*%
X73936000Y-14328100D03*
%TO.N,D15*%
X72274500Y-49936100D03*
%TO.N,D40*%
X71763900Y-31868200D03*
X56783500Y-30106400D03*
%TO.N,D17*%
X70344800Y-49841200D03*
%TO.N,A9*%
X72614600Y-30703600D03*
X33788700Y-29407900D03*
%TO.N,A14*%
X42441200Y-30115600D03*
X72552500Y-32379300D03*
%TO.N,A8*%
X72467100Y-29261400D03*
X35234300Y-29863000D03*
%TO.N,D16*%
X70304400Y-45165200D03*
%TO.N,D29*%
X59444800Y-28007700D03*
X72290500Y-28560500D03*
%TO.N,D39*%
X76483100Y-22799800D03*
%TO.N,A2*%
X72460500Y-36593600D03*
X27263500Y-35481300D03*
%TO.N,D42*%
X54096300Y-32492400D03*
X72031600Y-34429300D03*
%TO.N,D37*%
X75384100Y-21036200D03*
%TO.N,A3*%
X76308700Y-30314500D03*
%TO.N,D23*%
X68093000Y-45525200D03*
%TO.N,D43*%
X62170200Y-14976500D03*
X71954700Y-15220500D03*
%TO.N,A7*%
X76457600Y-37224000D03*
X31030400Y-34641700D03*
%TO.N,D22*%
X69412500Y-41313000D03*
%TO.N,D33*%
X71957600Y-20505200D03*
%TO.N,D14*%
X50318700Y-25023400D03*
X76491300Y-27558300D03*
%TO.N,D36*%
X72593600Y-18250100D03*
%TO.N,D38*%
X71859500Y-26004100D03*
X52153600Y-25620800D03*
%TO.N,D46*%
X72367800Y-16538900D03*
%TD*%
D18*
%TO.N,D44*%
X73936000Y-14328100D02*
X74328100Y-14328100D01*
X74328100Y-14328100D02*
X75000000Y-15000000D01*
X75000000Y-15000000D02*
X75000000Y-15600000D01*
X75000000Y-15600000D02*
X74850000Y-15750000D01*
X74850000Y-15750000D02*
X73900000Y-15750000D01*
%TO.N,D36*%
X72593600Y-18250100D02*
X71475700Y-19368000D01*
X71475700Y-20748600D02*
X71784000Y-21056900D01*
X71475700Y-19368000D02*
X71475700Y-20748600D01*
X71784000Y-21056900D02*
X72080400Y-21056900D01*
X72080400Y-21056900D02*
X72600000Y-20537300D01*
X72600000Y-20537300D02*
X72600000Y-20200000D01*
X73050000Y-19750000D02*
X73900000Y-19750000D01*
X72600000Y-20200000D02*
X73050000Y-19750000D01*
%TO.N,A8*%
X73900000Y-29750000D02*
X72955700Y-29750000D01*
X72955700Y-29750000D02*
X72467100Y-29261400D01*
%TO.N,A9*%
X73900000Y-30250000D02*
X73068200Y-30250000D01*
X73068200Y-30250000D02*
X72614600Y-30703600D01*
%TO.N,A10*%
X73900000Y-30750000D02*
X75250000Y-30750000D01*
X75250000Y-30750000D02*
X75347500Y-30652500D01*
X75347500Y-30652500D02*
X75347500Y-29840300D01*
%TO.N,A13*%
X73900000Y-32250000D02*
X75150000Y-32250000D01*
X75150000Y-32250000D02*
X75796300Y-31603700D01*
X75796300Y-31603700D02*
X75796300Y-30829300D01*
X37540000Y-15625000D02*
X37540000Y-14548300D01*
X37428400Y-14548300D02*
X37540000Y-14548300D01*
X36420100Y-13540000D02*
X37428400Y-14548300D01*
X36420100Y-12648100D02*
X36420100Y-13540000D01*
X37064200Y-12004000D02*
X36420100Y-12648100D01*
X37990400Y-12004000D02*
X37064200Y-12004000D01*
X39003300Y-13016900D02*
X37990400Y-12004000D01*
X39003300Y-24187200D02*
X39003300Y-13016900D01*
X41293500Y-26477400D02*
X39003300Y-24187200D01*
%TO.N,D45*%
X57860000Y-15625000D02*
X58936700Y-15625000D01*
X58936700Y-15736600D02*
X58936700Y-15625000D01*
X59964500Y-16764400D02*
X58936700Y-15736600D01*
X62296500Y-16764400D02*
X59964500Y-16764400D01*
X62998700Y-16062200D02*
X62296500Y-16764400D01*
X72565300Y-16062200D02*
X62998700Y-16062200D01*
X72753100Y-16250000D02*
X72565300Y-16062200D01*
X73900000Y-16250000D02*
X72753100Y-16250000D01*
%TO.N,A5*%
X27380000Y-15625000D02*
X27380000Y-16701700D01*
X72559100Y-37750000D02*
X73900000Y-37750000D01*
X72275300Y-37466200D02*
X72559100Y-37750000D01*
X71983800Y-37466200D02*
X72275300Y-37466200D01*
X27380000Y-34324000D02*
X27380000Y-16701700D01*
X30280000Y-37224000D02*
X27380000Y-34324000D01*
%TO.N,A6*%
X29920000Y-13085000D02*
X29920000Y-14161700D01*
X72387000Y-38250000D02*
X73900000Y-38250000D01*
X72263500Y-38126500D02*
X72387000Y-38250000D01*
X72263500Y-38126500D02*
X72262400Y-38127600D01*
X30054700Y-14161700D02*
X29920000Y-14161700D01*
X30996700Y-15103700D02*
X30054700Y-14161700D01*
X30996700Y-32510500D02*
X30996700Y-15103700D01*
X32648200Y-34162000D02*
X30996700Y-32510500D01*
X32648200Y-37863500D02*
X32648200Y-34162000D01*
%TO.N,A10*%
X35111500Y-14161700D02*
X35000000Y-14161700D01*
X36270000Y-15320200D02*
X35111500Y-14161700D01*
X36270000Y-23334400D02*
X36270000Y-15320200D01*
X37845400Y-24909800D02*
X36270000Y-23334400D01*
X35000000Y-13085000D02*
X35000000Y-14161700D01*
%TO.N,D35*%
X45160000Y-20056800D02*
X45160000Y-15625000D01*
X47586000Y-22482800D02*
X45160000Y-20056800D01*
X74965000Y-19250000D02*
X73900000Y-19250000D01*
X75124600Y-19409600D02*
X74965000Y-19250000D01*
%TO.N,D24*%
X73900000Y-23750000D02*
X72923300Y-23750000D01*
X68261200Y-28074900D02*
X68261200Y-38606900D01*
X72586100Y-23750000D02*
X68261200Y-28074900D01*
X72923300Y-23750000D02*
X72586100Y-23750000D01*
%TO.N,A11*%
X35000000Y-28509400D02*
X35818500Y-29327900D01*
X35000000Y-15625000D02*
X35000000Y-28509400D01*
X73900000Y-31250000D02*
X72923300Y-31250000D01*
X71981900Y-30745000D02*
X71981900Y-29723000D01*
X72486900Y-31250000D02*
X71981900Y-30745000D01*
X72923300Y-31250000D02*
X72486900Y-31250000D01*
X71981900Y-29723000D02*
X71981900Y-29721400D01*
%TO.N,D32*%
X73900000Y-20750000D02*
X72923300Y-20750000D01*
X71857200Y-21816100D02*
X72923300Y-20750000D01*
X70636900Y-21816100D02*
X71857200Y-21816100D01*
%TO.N,D47*%
X72685300Y-17250000D02*
X73900000Y-17250000D01*
D19*
%TO.N,VCC*%
X73900000Y-20250000D02*
X77800000Y-20250000D01*
D18*
%TO.N,A12*%
X38616700Y-27243400D02*
X40001600Y-28628300D01*
X38616700Y-15103700D02*
X38616700Y-27243400D01*
X37674700Y-14161700D02*
X38616700Y-15103700D01*
X37540000Y-14161700D02*
X37674700Y-14161700D01*
X37540000Y-13085000D02*
X37540000Y-14161700D01*
X73900000Y-31750000D02*
X72923300Y-31750000D01*
X40001600Y-28628300D02*
X40000500Y-28629400D01*
X72560200Y-31750000D02*
X72923300Y-31750000D01*
X71505200Y-30695000D02*
X72560200Y-31750000D01*
X71505200Y-29156800D02*
X71505200Y-30695000D01*
X71516700Y-29145300D02*
X71505200Y-29156800D01*
%TO.N,A1*%
X22300000Y-15625000D02*
X22300000Y-16701700D01*
X73801700Y-35848300D02*
X73900000Y-35750000D01*
X72455400Y-35848300D02*
X73801700Y-35848300D01*
X71499400Y-34892300D02*
X72455400Y-35848300D01*
X24212500Y-32467700D02*
X25119500Y-31560700D01*
X23737200Y-32467700D02*
X24212500Y-32467700D01*
X22300000Y-31030500D02*
X23737200Y-32467700D01*
X22300000Y-16701700D02*
X22300000Y-31030500D01*
%TO.N,D28*%
X73900000Y-28250000D02*
X72923300Y-28250000D01*
X71083500Y-43717000D02*
X71814500Y-44448000D01*
X71083500Y-35960200D02*
X71083500Y-43717000D01*
X71022700Y-35899400D02*
X71083500Y-35960200D01*
X71022700Y-28965200D02*
X71022700Y-35899400D01*
X71904100Y-28083800D02*
X71022700Y-28965200D01*
X72757100Y-28083800D02*
X71904100Y-28083800D01*
X72923300Y-28250000D02*
X72757100Y-28083800D01*
%TO.N,D41*%
X53792200Y-17713900D02*
X52780000Y-16701700D01*
X53792200Y-31308100D02*
X53792200Y-17713900D01*
X54853500Y-32369400D02*
X53792200Y-31308100D01*
X52780000Y-15625000D02*
X52780000Y-16701700D01*
X75572000Y-34250000D02*
X73900000Y-34250000D01*
X75738100Y-34416100D02*
X75572000Y-34250000D01*
%TO.N,D34*%
X75787100Y-17339600D02*
X74876700Y-18250000D01*
X75787100Y-14958800D02*
X75787100Y-17339600D01*
X73900000Y-18250000D02*
X74876700Y-18250000D01*
%TO.N,A15*%
X72668400Y-33242200D02*
X72668400Y-33242100D01*
X72915500Y-33242200D02*
X72668400Y-33242200D01*
X72923300Y-33250000D02*
X72915500Y-33242200D01*
X40080000Y-24515800D02*
X40080000Y-15625000D01*
X41915800Y-26351600D02*
X40080000Y-24515800D01*
X41915800Y-31933000D02*
X41915800Y-26351600D01*
X42411400Y-32428600D02*
X41915800Y-31933000D01*
X73900000Y-33250000D02*
X72923300Y-33250000D01*
%TO.N,D26*%
X55320000Y-46105000D02*
X56396700Y-46105000D01*
X73900000Y-22750000D02*
X72923300Y-22750000D01*
X56396700Y-46239700D02*
X56396700Y-46105000D01*
X57338700Y-47181700D02*
X56396700Y-46239700D01*
X57970100Y-47181700D02*
X57338700Y-47181700D01*
X59130000Y-48341600D02*
X57970100Y-47181700D01*
X59130000Y-48954600D02*
X59130000Y-48341600D01*
X59921100Y-49745700D02*
X59130000Y-48954600D01*
X60891800Y-49745700D02*
X59921100Y-49745700D01*
X67482800Y-43154700D02*
X60891800Y-49745700D01*
X67482800Y-27999900D02*
X67482800Y-43154700D01*
X72732700Y-22750000D02*
X67482800Y-27999900D01*
X72923300Y-22750000D02*
X72732700Y-22750000D01*
%TO.N,A4*%
X27380000Y-13085000D02*
X27380000Y-14161700D01*
X27490200Y-14161700D02*
X27380000Y-14161700D01*
X28650000Y-15321500D02*
X27490200Y-14161700D01*
X28650000Y-33934000D02*
X28650000Y-15321500D01*
X30534400Y-35818400D02*
X28650000Y-33934000D01*
X71792900Y-36600100D02*
X71792900Y-36385900D01*
X72263100Y-37070300D02*
X71792900Y-36600100D01*
X72477300Y-37070300D02*
X72263100Y-37070300D01*
X72657000Y-37250000D02*
X72477300Y-37070300D01*
X73900000Y-37250000D02*
X72657000Y-37250000D01*
%TO.N,A0*%
X23376700Y-31419400D02*
X23948200Y-31990900D01*
X23376700Y-15103700D02*
X23376700Y-31419400D01*
X22434700Y-14161700D02*
X23376700Y-15103700D01*
X22300000Y-14161700D02*
X22434700Y-14161700D01*
X73900000Y-35250000D02*
X72923300Y-35250000D01*
X22300000Y-13085000D02*
X22300000Y-14161700D01*
X72884800Y-35288500D02*
X72923300Y-35250000D01*
X72726600Y-35288500D02*
X72884800Y-35288500D01*
%TO.N,D25*%
X73900000Y-23250000D02*
X72923300Y-23250000D01*
X63627900Y-49316200D02*
X63627900Y-49759400D01*
X67784500Y-45159600D02*
X63627900Y-49316200D01*
X67784500Y-28124900D02*
X67784500Y-45159600D01*
X72659400Y-23250000D02*
X67784500Y-28124900D01*
X72923300Y-23250000D02*
X72659400Y-23250000D01*
%TO.N,D15*%
X73900000Y-27250000D02*
X72923300Y-27250000D01*
X70781800Y-48443400D02*
X72274500Y-49936100D01*
X70781800Y-36085200D02*
X70781800Y-48443400D01*
X70721000Y-36024400D02*
X70781800Y-36085200D01*
X70721000Y-28840200D02*
X70721000Y-36024400D01*
X72311200Y-27250000D02*
X70721000Y-28840200D01*
X72923300Y-27250000D02*
X72311200Y-27250000D01*
%TO.N,D40*%
X52780000Y-13085000D02*
X52780000Y-14161700D01*
X73900000Y-33750000D02*
X72923300Y-33750000D01*
X72500600Y-33750000D02*
X72923300Y-33750000D01*
X71763900Y-33013300D02*
X72500600Y-33750000D01*
X71763900Y-31868200D02*
X71763900Y-33013300D01*
X52891500Y-14161700D02*
X52780000Y-14161700D01*
X54157700Y-15427900D02*
X52891500Y-14161700D01*
X54157700Y-27191100D02*
X54157700Y-15427900D01*
X56783500Y-29816900D02*
X54157700Y-27191100D01*
X56783500Y-29816900D02*
X56783500Y-30106400D01*
%TO.N,D17*%
X73900000Y-26250000D02*
X72923300Y-26250000D01*
X69789100Y-49285500D02*
X70344800Y-49841200D01*
X69789100Y-41612200D02*
X69789100Y-49285500D01*
X69973700Y-41427600D02*
X69789100Y-41612200D01*
X69973700Y-28734100D02*
X69973700Y-41427600D01*
X72457800Y-26250000D02*
X69973700Y-28734100D01*
X72923300Y-26250000D02*
X72457800Y-26250000D01*
%TO.N,D27*%
X55320000Y-48645000D02*
X55320000Y-47568300D01*
X55185400Y-47568300D02*
X55320000Y-47568300D01*
X54210200Y-46593100D02*
X55185400Y-47568300D01*
X54210200Y-35954400D02*
X54210200Y-46593100D01*
X72414600Y-17750000D02*
X54210200Y-35954400D01*
X73900000Y-17750000D02*
X72414600Y-17750000D01*
%TO.N,A9*%
X32460000Y-15625000D02*
X32460000Y-16701700D01*
X32460000Y-28079200D02*
X32460000Y-16701700D01*
X33788700Y-29407900D02*
X32460000Y-28079200D01*
%TO.N,A14*%
X72923200Y-32750000D02*
X73900000Y-32750000D01*
X72552500Y-32379300D02*
X72923200Y-32750000D01*
X40080000Y-13085000D02*
X40080000Y-14161700D01*
X40214700Y-14161700D02*
X40080000Y-14161700D01*
X41156700Y-15103700D02*
X40214700Y-14161700D01*
X41156700Y-24953700D02*
X41156700Y-15103700D01*
X42441200Y-26238200D02*
X41156700Y-24953700D01*
X42441200Y-30115600D02*
X42441200Y-26238200D01*
%TO.N,A8*%
X32460000Y-13085000D02*
X32460000Y-13623300D01*
X33623800Y-28252500D02*
X35234300Y-29863000D01*
X33623800Y-14787100D02*
X33623800Y-28252500D01*
X32460000Y-13623300D02*
X33623800Y-14787100D01*
%TO.N,D16*%
X73900000Y-26750000D02*
X72923300Y-26750000D01*
X70304400Y-28830100D02*
X70304400Y-45165200D01*
X72384500Y-26750000D02*
X70304400Y-28830100D01*
X72923300Y-26750000D02*
X72384500Y-26750000D01*
%TO.N,D29*%
X57860000Y-48645000D02*
X56783300Y-48645000D01*
X72480000Y-28750000D02*
X73900000Y-28750000D01*
X72290500Y-28560500D02*
X72480000Y-28750000D01*
X59444800Y-28452300D02*
X59444800Y-28007700D01*
X53908500Y-33988600D02*
X59444800Y-28452300D01*
X53908500Y-48786000D02*
X53908500Y-33988600D01*
X54847300Y-49724800D02*
X53908500Y-48786000D01*
X55838100Y-49724800D02*
X54847300Y-49724800D01*
X56783300Y-48779600D02*
X55838100Y-49724800D01*
X56783300Y-48645000D02*
X56783300Y-48779600D01*
%TO.N,D39*%
X76483100Y-24143600D02*
X74876700Y-25750000D01*
X76483100Y-22801400D02*
X76483100Y-24143600D01*
X76483100Y-22801400D02*
X76483100Y-22799800D01*
X73900000Y-25750000D02*
X74876700Y-25750000D01*
%TO.N,A2*%
X24840000Y-13085000D02*
X24840000Y-14161700D01*
X72804100Y-36250000D02*
X73900000Y-36250000D01*
X72460500Y-36593600D02*
X72804100Y-36250000D01*
X24950200Y-14161700D02*
X24840000Y-14161700D01*
X26110000Y-15321500D02*
X24950200Y-14161700D01*
X26110000Y-34327800D02*
X26110000Y-15321500D01*
X27263500Y-35481300D02*
X26110000Y-34327800D01*
%TO.N,D42*%
X73900000Y-34750000D02*
X72923300Y-34750000D01*
X55320000Y-13085000D02*
X54243300Y-13085000D01*
X53427900Y-31824000D02*
X54096300Y-32492400D01*
X53427900Y-21655800D02*
X53427900Y-31824000D01*
X51673800Y-19901700D02*
X53427900Y-21655800D01*
X51673800Y-12642800D02*
X51673800Y-19901700D01*
X52312400Y-12004200D02*
X51673800Y-12642800D01*
X53274000Y-12004200D02*
X52312400Y-12004200D01*
X54243300Y-12973500D02*
X53274000Y-12004200D01*
X54243300Y-13085000D02*
X54243300Y-12973500D01*
X72352300Y-34750000D02*
X72031600Y-34429300D01*
X72923300Y-34750000D02*
X72352300Y-34750000D01*
%TO.N,D37*%
X75170300Y-21250000D02*
X75384100Y-21036200D01*
X73900000Y-21250000D02*
X75170300Y-21250000D01*
%TO.N,A3*%
X73900000Y-36750000D02*
X74854000Y-36750000D01*
X76308700Y-35295300D02*
X76308700Y-30314500D01*
X74854000Y-36750000D02*
X76308700Y-35295300D01*
%TO.N,D23*%
X73900000Y-24250000D02*
X72923300Y-24250000D01*
X68737900Y-44880300D02*
X68093000Y-45525200D01*
X68737900Y-28024900D02*
X68737900Y-44880300D01*
X72512800Y-24250000D02*
X68737900Y-28024900D01*
X72923300Y-24250000D02*
X72512800Y-24250000D01*
%TO.N,D43*%
X61742000Y-14548300D02*
X62170200Y-14976500D01*
X57338700Y-14548300D02*
X61742000Y-14548300D01*
X56396700Y-15490300D02*
X57338700Y-14548300D01*
X56396700Y-15625000D02*
X56396700Y-15490300D01*
X55320000Y-15625000D02*
X56396700Y-15625000D01*
X71984200Y-15250000D02*
X71954700Y-15220500D01*
X73900000Y-15250000D02*
X71984200Y-15250000D01*
%TO.N,A7*%
X74931600Y-38750000D02*
X76457600Y-37224000D01*
X73900000Y-38750000D02*
X74931600Y-38750000D01*
X29920000Y-33531300D02*
X31030400Y-34641700D01*
X29920000Y-15625000D02*
X29920000Y-33531300D01*
%TO.N,D30*%
X73900000Y-21750000D02*
X72923300Y-21750000D01*
X60400000Y-34229300D02*
X60400000Y-46105000D01*
X72879300Y-21750000D02*
X60400000Y-34229300D01*
X72923300Y-21750000D02*
X72879300Y-21750000D01*
%TO.N,D22*%
X73900000Y-24750000D02*
X72923300Y-24750000D01*
X69412500Y-27777000D02*
X69412500Y-41313000D01*
X72439500Y-24750000D02*
X69412500Y-27777000D01*
X72923300Y-24750000D02*
X72439500Y-24750000D01*
%TO.N,D33*%
X73900000Y-18750000D02*
X72923300Y-18750000D01*
X71957600Y-19715700D02*
X72923300Y-18750000D01*
X71957600Y-20505200D02*
X71957600Y-19715700D01*
%TO.N,+3.3VA*%
X17220000Y-46105000D02*
X17220000Y-48645000D01*
%TO.N,D31*%
X60400000Y-48645000D02*
X60400000Y-47568300D01*
X73900000Y-22250000D02*
X72923300Y-22250000D01*
X60511500Y-47568300D02*
X60400000Y-47568300D01*
X62287500Y-45792300D02*
X60511500Y-47568300D01*
X62287500Y-32768500D02*
X62287500Y-45792300D01*
X72806000Y-22250000D02*
X62287500Y-32768500D01*
X72923300Y-22250000D02*
X72806000Y-22250000D01*
%TO.N,D14*%
X50318700Y-34789600D02*
X50318700Y-25023400D01*
X40080000Y-45028300D02*
X50318700Y-34789600D01*
X76299600Y-27750000D02*
X76491300Y-27558300D01*
X73900000Y-27750000D02*
X76299600Y-27750000D01*
X40080000Y-46105000D02*
X40080000Y-45028300D01*
%TO.N,D38*%
X72613600Y-25250000D02*
X71859500Y-26004100D01*
X73900000Y-25250000D02*
X72613600Y-25250000D01*
X50240000Y-13085000D02*
X50240000Y-14161700D01*
X51316700Y-24783900D02*
X52153600Y-25620800D01*
X51316700Y-15103700D02*
X51316700Y-24783900D01*
X50374700Y-14161700D02*
X51316700Y-15103700D01*
X50240000Y-14161700D02*
X50374700Y-14161700D01*
%TO.N,D46*%
X72578900Y-16750000D02*
X72367800Y-16538900D01*
X73900000Y-16750000D02*
X72578900Y-16750000D01*
D19*
%TO.N,GND*%
X73900000Y-29250000D02*
X77550000Y-29250000D01*
X79324000Y-16374000D02*
X76500000Y-13550000D01*
X79324000Y-27476000D02*
X79324000Y-16374000D01*
X77550000Y-29250000D02*
X79324000Y-27476000D01*
X69550000Y-13550000D02*
X60000000Y-4000000D01*
X76500000Y-13550000D02*
X69550000Y-13550000D01*
X76550000Y-46450000D02*
X76500000Y-46450000D01*
X78542400Y-44457600D02*
X76550000Y-46450000D01*
X79324000Y-43676000D02*
X78542400Y-44457600D01*
X79324000Y-31024000D02*
X79324000Y-43676000D01*
X77550000Y-29250000D02*
X79324000Y-31024000D01*
%TD*%
%TA.AperFunction,Conductor*%
%TO.N,A13*%
G36*
X37428400Y-14473300D02*
G01*
X37428400Y-14623300D01*
X38012235Y-14918251D01*
X37541000Y-15625000D01*
X36833251Y-15152765D01*
X37428400Y-14473300D01*
G37*
%TD.AperFunction*%
%TD*%
%TA.AperFunction,Conductor*%
%TO.N,A13*%
G36*
X40996377Y-26074211D02*
G01*
X40890311Y-26180277D01*
X41085633Y-26616293D01*
X41294207Y-26478107D01*
X41432393Y-26269533D01*
X40996377Y-26074211D01*
G37*
%TD.AperFunction*%
%TD*%
%TA.AperFunction,Conductor*%
%TO.N,D45*%
G36*
X58861700Y-15736600D02*
G01*
X59011700Y-15736600D01*
X58332235Y-16331749D01*
X57860000Y-15624000D01*
X58566749Y-15152765D01*
X58861700Y-15736600D01*
G37*
%TD.AperFunction*%
%TD*%
%TA.AperFunction,Conductor*%
%TO.N,D45*%
G36*
X72975000Y-16175000D02*
G01*
X72975000Y-16325000D01*
X73150000Y-16425000D01*
X73901000Y-16250000D01*
X73150000Y-16075000D01*
X72975000Y-16175000D01*
G37*
%TD.AperFunction*%
%TD*%
%TA.AperFunction,Conductor*%
%TO.N,A5*%
G36*
X27305000Y-17308667D02*
G01*
X27455000Y-17308667D01*
X28086749Y-16097235D01*
X27380000Y-15624000D01*
X26673251Y-16097235D01*
X27305000Y-17308667D01*
G37*
%TD.AperFunction*%
%TD*%
%TA.AperFunction,Conductor*%
%TO.N,A5*%
G36*
X72975000Y-37675000D02*
G01*
X72975000Y-37825000D01*
X73150000Y-37925000D01*
X73901000Y-37750000D01*
X73150000Y-37575000D01*
X72975000Y-37675000D01*
G37*
%TD.AperFunction*%
%TD*%
%TA.AperFunction,Conductor*%
%TO.N,A5*%
G36*
X72366301Y-37663267D02*
G01*
X72472367Y-37557201D01*
X72122693Y-37258333D01*
X71983093Y-37465493D01*
X72032573Y-37711396D01*
X72366301Y-37663267D01*
G37*
%TD.AperFunction*%
%TD*%
%TA.AperFunction,Conductor*%
%TO.N,A5*%
G36*
X29982877Y-36820811D02*
G01*
X29876811Y-36926877D01*
X30072133Y-37362893D01*
X30280707Y-37224707D01*
X30418893Y-37016133D01*
X29982877Y-36820811D01*
G37*
%TD.AperFunction*%
%TD*%
%TA.AperFunction,Conductor*%
%TO.N,A6*%
G36*
X30054700Y-14236700D02*
G01*
X30054700Y-14086700D01*
X30626749Y-13557235D01*
X29919000Y-13085000D01*
X29447765Y-13791749D01*
X30054700Y-14236700D01*
G37*
%TD.AperFunction*%
%TD*%
%TA.AperFunction,Conductor*%
%TO.N,A6*%
G36*
X72975000Y-38175000D02*
G01*
X72975000Y-38325000D01*
X73150000Y-38425000D01*
X73901000Y-38250000D01*
X73150000Y-38075000D01*
X72975000Y-38175000D01*
G37*
%TD.AperFunction*%
%TD*%
%TA.AperFunction,Conductor*%
%TO.N,A6*%
G36*
X72727099Y-38325000D02*
G01*
X72727099Y-38175000D01*
X72401293Y-37919733D01*
X72261400Y-38127600D01*
X72311173Y-38372796D01*
X72727099Y-38325000D01*
G37*
%TD.AperFunction*%
%TD*%
%TA.AperFunction,Conductor*%
%TO.N,A6*%
G36*
X32723200Y-37368304D02*
G01*
X32573200Y-37368304D01*
X32403004Y-37814727D01*
X32648200Y-37864500D01*
X32893396Y-37814727D01*
X32723200Y-37368304D01*
G37*
%TD.AperFunction*%
%TD*%
%TA.AperFunction,Conductor*%
%TO.N,A10*%
G36*
X37548277Y-24506611D02*
G01*
X37442211Y-24612677D01*
X37637533Y-25048693D01*
X37846107Y-24910507D01*
X37984293Y-24701933D01*
X37548277Y-24506611D01*
G37*
%TD.AperFunction*%
%TD*%
%TA.AperFunction,Conductor*%
%TO.N,A10*%
G36*
X35111500Y-14236700D02*
G01*
X35111500Y-14086700D01*
X34527765Y-13791749D01*
X34999000Y-13085000D01*
X35706749Y-13557235D01*
X35111500Y-14236700D01*
G37*
%TD.AperFunction*%
%TD*%
%TA.AperFunction,Conductor*%
%TO.N,D35*%
G36*
X45085000Y-17308667D02*
G01*
X45235000Y-17308667D01*
X45866749Y-16097235D01*
X45160000Y-15624000D01*
X44453251Y-16097235D01*
X45085000Y-17308667D01*
G37*
%TD.AperFunction*%
%TD*%
%TA.AperFunction,Conductor*%
%TO.N,D35*%
G36*
X47288877Y-22079611D02*
G01*
X47182811Y-22185677D01*
X47378133Y-22621693D01*
X47586707Y-22483507D01*
X47724893Y-22274933D01*
X47288877Y-22079611D01*
G37*
%TD.AperFunction*%
%TD*%
%TA.AperFunction,Conductor*%
%TO.N,D35*%
G36*
X74825000Y-19325000D02*
G01*
X74825000Y-19175000D01*
X74650000Y-19075000D01*
X73899000Y-19250000D01*
X74650000Y-19425000D01*
X74825000Y-19325000D01*
G37*
%TD.AperFunction*%
%TD*%
%TA.AperFunction,Conductor*%
%TO.N,D35*%
G36*
X74687440Y-19175000D02*
G01*
X74687440Y-19325000D01*
X74985707Y-19617467D01*
X75125600Y-19409600D01*
X75075827Y-19164404D01*
X74687440Y-19175000D01*
G37*
%TD.AperFunction*%
%TD*%
%TA.AperFunction,Conductor*%
%TO.N,D24*%
G36*
X72975000Y-23675000D02*
G01*
X72975000Y-23825000D01*
X73150000Y-23925000D01*
X73901000Y-23750000D01*
X73150000Y-23575000D01*
X72975000Y-23675000D01*
G37*
%TD.AperFunction*%
%TD*%
%TA.AperFunction,Conductor*%
%TO.N,D24*%
G36*
X68336200Y-38111704D02*
G01*
X68186200Y-38111704D01*
X68016004Y-38558127D01*
X68261200Y-38607900D01*
X68506396Y-38558127D01*
X68336200Y-38111704D01*
G37*
%TD.AperFunction*%
%TD*%
%TA.AperFunction,Conductor*%
%TO.N,A11*%
G36*
X35521377Y-28924711D02*
G01*
X35415311Y-29030777D01*
X35610633Y-29466793D01*
X35819207Y-29328607D01*
X35957393Y-29120033D01*
X35521377Y-28924711D01*
G37*
%TD.AperFunction*%
%TD*%
%TA.AperFunction,Conductor*%
%TO.N,A11*%
G36*
X34925000Y-17308667D02*
G01*
X35075000Y-17308667D01*
X35706749Y-16097235D01*
X35000000Y-15624000D01*
X34293251Y-16097235D01*
X34925000Y-17308667D01*
G37*
%TD.AperFunction*%
%TD*%
%TA.AperFunction,Conductor*%
%TO.N,A11*%
G36*
X72975000Y-31175000D02*
G01*
X72975000Y-31325000D01*
X73150000Y-31425000D01*
X73901000Y-31250000D01*
X73150000Y-31075000D01*
X72975000Y-31175000D01*
G37*
%TD.AperFunction*%
%TD*%
%TA.AperFunction,Conductor*%
%TO.N,A11*%
G36*
X71906900Y-30216596D02*
G01*
X72056900Y-30216596D01*
X72227096Y-29770173D01*
X71981900Y-29720400D01*
X71736704Y-29770173D01*
X71906900Y-30216596D01*
G37*
%TD.AperFunction*%
%TD*%
%TA.AperFunction,Conductor*%
%TO.N,D32*%
G36*
X72975000Y-20675000D02*
G01*
X72975000Y-20825000D01*
X73150000Y-20925000D01*
X73901000Y-20750000D01*
X73150000Y-20575000D01*
X72975000Y-20675000D01*
G37*
%TD.AperFunction*%
%TD*%
%TA.AperFunction,Conductor*%
%TO.N,D32*%
G36*
X71132096Y-21891100D02*
G01*
X71132096Y-21741100D01*
X70685673Y-21570904D01*
X70635900Y-21816100D01*
X70685673Y-22061296D01*
X71132096Y-21891100D01*
G37*
%TD.AperFunction*%
%TD*%
%TA.AperFunction,Conductor*%
%TO.N,D47*%
G36*
X72975000Y-17175000D02*
G01*
X72975000Y-17325000D01*
X73150000Y-17425000D01*
X73901000Y-17250000D01*
X73150000Y-17075000D01*
X72975000Y-17175000D01*
G37*
%TD.AperFunction*%
%TD*%
%TA.AperFunction,Conductor*%
%TO.N,D47*%
G36*
X73180496Y-17325000D02*
G01*
X73180496Y-17175000D01*
X72734073Y-17004804D01*
X72684300Y-17250000D01*
X72734073Y-17495196D01*
X73180496Y-17325000D01*
G37*
%TD.AperFunction*%
%TD*%
%TA.AperFunction,Conductor*%
%TO.N,VCC*%
G36*
X77304804Y-20075000D02*
G01*
X77304804Y-20425000D01*
X77751227Y-20495196D01*
X77801000Y-20250000D01*
X77751227Y-20004804D01*
X77304804Y-20075000D01*
G37*
%TD.AperFunction*%
%TD*%
%TA.AperFunction,Conductor*%
%TO.N,A12*%
G36*
X39704477Y-28225111D02*
G01*
X39598411Y-28331177D01*
X39792633Y-28768293D01*
X40001207Y-28630107D01*
X40139393Y-28421533D01*
X39704477Y-28225111D01*
G37*
%TD.AperFunction*%
%TD*%
%TA.AperFunction,Conductor*%
%TO.N,A12*%
G36*
X37674700Y-14236700D02*
G01*
X37674700Y-14086700D01*
X38246749Y-13557235D01*
X37539000Y-13085000D01*
X37067765Y-13791749D01*
X37674700Y-14236700D01*
G37*
%TD.AperFunction*%
%TD*%
%TA.AperFunction,Conductor*%
%TO.N,A12*%
G36*
X72975000Y-31675000D02*
G01*
X72975000Y-31825000D01*
X73150000Y-31925000D01*
X73901000Y-31750000D01*
X73150000Y-31575000D01*
X72975000Y-31675000D01*
G37*
%TD.AperFunction*%
%TD*%
%TA.AperFunction,Conductor*%
%TO.N,A12*%
G36*
X71430200Y-29640496D02*
G01*
X71580200Y-29640496D01*
X71761896Y-29194073D01*
X71516700Y-29144300D01*
X71271504Y-29194073D01*
X71430200Y-29640496D01*
G37*
%TD.AperFunction*%
%TD*%
%TA.AperFunction,Conductor*%
%TO.N,A1*%
G36*
X22225000Y-17308667D02*
G01*
X22375000Y-17308667D01*
X23006749Y-16097235D01*
X22300000Y-15624000D01*
X21593251Y-16097235D01*
X22225000Y-17308667D01*
G37*
%TD.AperFunction*%
%TD*%
%TA.AperFunction,Conductor*%
%TO.N,A1*%
G36*
X72975000Y-35773300D02*
G01*
X72975000Y-35923300D01*
X73150000Y-35925000D01*
X73901000Y-35750000D01*
X73150000Y-35653739D01*
X72975000Y-35773300D01*
G37*
%TD.AperFunction*%
%TD*%
%TA.AperFunction,Conductor*%
%TO.N,A1*%
G36*
X71796523Y-35295489D02*
G01*
X71902589Y-35189423D01*
X71707267Y-34753407D01*
X71498693Y-34891593D01*
X71360507Y-35100167D01*
X71796523Y-35295489D01*
G37*
%TD.AperFunction*%
%TD*%
%TA.AperFunction,Conductor*%
%TO.N,A1*%
G36*
X24716311Y-31857823D02*
G01*
X24822377Y-31963889D01*
X25258393Y-31768567D01*
X25120207Y-31559993D01*
X24911633Y-31421807D01*
X24716311Y-31857823D01*
G37*
%TD.AperFunction*%
%TD*%
%TA.AperFunction,Conductor*%
%TO.N,D28*%
G36*
X72975000Y-28175000D02*
G01*
X72975000Y-28325000D01*
X73150000Y-28425000D01*
X73901000Y-28250000D01*
X73150000Y-28075000D01*
X72975000Y-28175000D01*
G37*
%TD.AperFunction*%
%TD*%
%TA.AperFunction,Conductor*%
%TO.N,D28*%
G36*
X71517377Y-44044811D02*
G01*
X71411311Y-44150877D01*
X71606633Y-44586893D01*
X71815207Y-44448707D01*
X71953393Y-44240133D01*
X71517377Y-44044811D01*
G37*
%TD.AperFunction*%
%TD*%
%TA.AperFunction,Conductor*%
%TO.N,D41*%
G36*
X54556377Y-31966211D02*
G01*
X54450311Y-32072277D01*
X54645633Y-32508293D01*
X54854207Y-32370107D01*
X54992393Y-32161533D01*
X54556377Y-31966211D01*
G37*
%TD.AperFunction*%
%TD*%
%TA.AperFunction,Conductor*%
%TO.N,D41*%
G36*
X53156157Y-17183923D02*
G01*
X53262223Y-17077857D01*
X53613667Y-15790827D01*
X52779293Y-15624293D01*
X52073251Y-16097235D01*
X53156157Y-17183923D01*
G37*
%TD.AperFunction*%
%TD*%
%TA.AperFunction,Conductor*%
%TO.N,D41*%
G36*
X74825000Y-34325000D02*
G01*
X74825000Y-34175000D01*
X74650000Y-34075000D01*
X73899000Y-34250000D01*
X74650000Y-34425000D01*
X74825000Y-34325000D01*
G37*
%TD.AperFunction*%
%TD*%
%TA.AperFunction,Conductor*%
%TO.N,D41*%
G36*
X75307440Y-34175000D02*
G01*
X75307440Y-34325000D01*
X75530233Y-34554993D01*
X75739100Y-34416100D01*
X75689327Y-34170904D01*
X75307440Y-34175000D01*
G37*
%TD.AperFunction*%
%TD*%
%TA.AperFunction,Conductor*%
%TO.N,D34*%
G36*
X75712100Y-15453996D02*
G01*
X75862100Y-15453996D01*
X76032296Y-15007573D01*
X75787100Y-14957800D01*
X75541904Y-15007573D01*
X75712100Y-15453996D01*
G37*
%TD.AperFunction*%
%TD*%
%TA.AperFunction,Conductor*%
%TO.N,D34*%
G36*
X74825000Y-18325000D02*
G01*
X74825000Y-18175000D01*
X74650000Y-18075000D01*
X73899000Y-18250000D01*
X74650000Y-18425000D01*
X74825000Y-18325000D01*
G37*
%TD.AperFunction*%
%TD*%
%TA.AperFunction,Conductor*%
%TO.N,A15*%
G36*
X40005000Y-17308667D02*
G01*
X40155000Y-17308667D01*
X40786749Y-16097235D01*
X40080000Y-15624000D01*
X39373251Y-16097235D01*
X40005000Y-17308667D01*
G37*
%TD.AperFunction*%
%TD*%
%TA.AperFunction,Conductor*%
%TO.N,A15*%
G36*
X42114277Y-32025411D02*
G01*
X42008211Y-32131477D01*
X42203533Y-32567493D01*
X42412107Y-32429307D01*
X42550293Y-32220733D01*
X42114277Y-32025411D01*
G37*
%TD.AperFunction*%
%TD*%
%TA.AperFunction,Conductor*%
%TO.N,A15*%
G36*
X72975000Y-33175000D02*
G01*
X72975000Y-33325000D01*
X73150000Y-33425000D01*
X73901000Y-33250000D01*
X73150000Y-33075000D01*
X72975000Y-33175000D01*
G37*
%TD.AperFunction*%
%TD*%
%TA.AperFunction,Conductor*%
%TO.N,D26*%
G36*
X56321700Y-46239700D02*
G01*
X56471700Y-46239700D01*
X56026749Y-45632765D01*
X55320000Y-46104000D01*
X55792235Y-46811749D01*
X56321700Y-46239700D01*
G37*
%TD.AperFunction*%
%TD*%
%TA.AperFunction,Conductor*%
%TO.N,D26*%
G36*
X72975000Y-22675000D02*
G01*
X72975000Y-22825000D01*
X73150000Y-22925000D01*
X73901000Y-22750000D01*
X73150000Y-22575000D01*
X72975000Y-22675000D01*
G37*
%TD.AperFunction*%
%TD*%
%TA.AperFunction,Conductor*%
%TO.N,A4*%
G36*
X27490200Y-14236700D02*
G01*
X27490200Y-14086700D01*
X26907765Y-13791749D01*
X27379000Y-13085000D01*
X28086749Y-13557235D01*
X27490200Y-14236700D01*
G37*
%TD.AperFunction*%
%TD*%
%TA.AperFunction,Conductor*%
%TO.N,A4*%
G36*
X30237277Y-35415211D02*
G01*
X30131211Y-35521277D01*
X30326533Y-35957293D01*
X30535107Y-35819107D01*
X30673293Y-35610533D01*
X30237277Y-35415211D01*
G37*
%TD.AperFunction*%
%TD*%
%TA.AperFunction,Conductor*%
%TO.N,A4*%
G36*
X71947639Y-36860905D02*
G01*
X72053705Y-36754839D01*
X72038096Y-36337127D01*
X71792193Y-36385193D01*
X71654007Y-36593767D01*
X71947639Y-36860905D01*
G37*
%TD.AperFunction*%
%TD*%
%TA.AperFunction,Conductor*%
%TO.N,A4*%
G36*
X72975000Y-37175000D02*
G01*
X72975000Y-37325000D01*
X73150000Y-37425000D01*
X73901000Y-37250000D01*
X73150000Y-37075000D01*
X72975000Y-37175000D01*
G37*
%TD.AperFunction*%
%TD*%
%TA.AperFunction,Conductor*%
%TO.N,A0*%
G36*
X23651077Y-31587711D02*
G01*
X23545011Y-31693777D01*
X23740333Y-32129793D01*
X23948907Y-31991607D01*
X24087093Y-31783033D01*
X23651077Y-31587711D01*
G37*
%TD.AperFunction*%
%TD*%
%TA.AperFunction,Conductor*%
%TO.N,A0*%
G36*
X72975000Y-35175000D02*
G01*
X72975000Y-35325000D01*
X73150000Y-35425000D01*
X73901000Y-35250000D01*
X73150000Y-35075000D01*
X72975000Y-35175000D01*
G37*
%TD.AperFunction*%
%TD*%
%TA.AperFunction,Conductor*%
%TO.N,A0*%
G36*
X73221796Y-35325000D02*
G01*
X73221796Y-35175000D01*
X72775373Y-35043304D01*
X72725600Y-35288500D01*
X72865493Y-35496367D01*
X73221796Y-35325000D01*
G37*
%TD.AperFunction*%
%TD*%
%TA.AperFunction,Conductor*%
%TO.N,A0*%
G36*
X22434700Y-14236700D02*
G01*
X22434700Y-14086700D01*
X23006749Y-13557235D01*
X22299000Y-13085000D01*
X21827765Y-13791749D01*
X22434700Y-14236700D01*
G37*
%TD.AperFunction*%
%TD*%
%TA.AperFunction,Conductor*%
%TO.N,D25*%
G36*
X72975000Y-23175000D02*
G01*
X72975000Y-23325000D01*
X73150000Y-23425000D01*
X73901000Y-23250000D01*
X73150000Y-23075000D01*
X72975000Y-23175000D01*
G37*
%TD.AperFunction*%
%TD*%
%TA.AperFunction,Conductor*%
%TO.N,D25*%
G36*
X63717699Y-49332466D02*
G01*
X63611634Y-49226401D01*
X63420033Y-49620507D01*
X63627193Y-49760107D01*
X63873096Y-49710627D01*
X63717699Y-49332466D01*
G37*
%TD.AperFunction*%
%TD*%
%TA.AperFunction,Conductor*%
%TO.N,D15*%
G36*
X72975000Y-27175000D02*
G01*
X72975000Y-27325000D01*
X73150000Y-27425000D01*
X73901000Y-27250000D01*
X73150000Y-27075000D01*
X72975000Y-27175000D01*
G37*
%TD.AperFunction*%
%TD*%
%TA.AperFunction,Conductor*%
%TO.N,D15*%
G36*
X71977377Y-49532911D02*
G01*
X71871311Y-49638977D01*
X72066633Y-50074993D01*
X72275207Y-49936807D01*
X72413393Y-49728233D01*
X71977377Y-49532911D01*
G37*
%TD.AperFunction*%
%TD*%
%TA.AperFunction,Conductor*%
%TO.N,D40*%
G36*
X52891500Y-14236700D02*
G01*
X52891500Y-14086700D01*
X52307765Y-13791749D01*
X52779000Y-13085000D01*
X53486749Y-13557235D01*
X52891500Y-14236700D01*
G37*
%TD.AperFunction*%
%TD*%
%TA.AperFunction,Conductor*%
%TO.N,D40*%
G36*
X72975000Y-33675000D02*
G01*
X72975000Y-33825000D01*
X73150000Y-33925000D01*
X73901000Y-33750000D01*
X73150000Y-33575000D01*
X72975000Y-33675000D01*
G37*
%TD.AperFunction*%
%TD*%
%TA.AperFunction,Conductor*%
%TO.N,D40*%
G36*
X71688900Y-32363396D02*
G01*
X71838900Y-32363396D01*
X72009096Y-31916973D01*
X71763900Y-31867200D01*
X71518704Y-31916973D01*
X71688900Y-32363396D01*
G37*
%TD.AperFunction*%
%TD*%
%TA.AperFunction,Conductor*%
%TO.N,D40*%
G36*
X56691084Y-29618418D02*
G01*
X56585018Y-29724484D01*
X56538304Y-30057627D01*
X56784207Y-30107107D01*
X56991367Y-29967507D01*
X56691084Y-29618418D01*
G37*
%TD.AperFunction*%
%TD*%
%TA.AperFunction,Conductor*%
%TO.N,D17*%
G36*
X72975000Y-26175000D02*
G01*
X72975000Y-26325000D01*
X73150000Y-26425000D01*
X73901000Y-26250000D01*
X73150000Y-26075000D01*
X72975000Y-26175000D01*
G37*
%TD.AperFunction*%
%TD*%
%TA.AperFunction,Conductor*%
%TO.N,D17*%
G36*
X70047677Y-49438011D02*
G01*
X69941611Y-49544077D01*
X70136933Y-49980093D01*
X70345507Y-49841907D01*
X70483693Y-49633333D01*
X70047677Y-49438011D01*
G37*
%TD.AperFunction*%
%TD*%
%TA.AperFunction,Conductor*%
%TO.N,D27*%
G36*
X55185400Y-47493300D02*
G01*
X55185400Y-47643300D01*
X54613251Y-48172765D01*
X55321000Y-48645000D01*
X55792235Y-47938251D01*
X55185400Y-47493300D01*
G37*
%TD.AperFunction*%
%TD*%
%TA.AperFunction,Conductor*%
%TO.N,D27*%
G36*
X72975000Y-17675000D02*
G01*
X72975000Y-17825000D01*
X73150000Y-17925000D01*
X73901000Y-17750000D01*
X73150000Y-17575000D01*
X72975000Y-17675000D01*
G37*
%TD.AperFunction*%
%TD*%
%TA.AperFunction,Conductor*%
%TO.N,A9*%
G36*
X32385000Y-17308667D02*
G01*
X32535000Y-17308667D01*
X33166749Y-16097235D01*
X32460000Y-15624000D01*
X31753251Y-16097235D01*
X32385000Y-17308667D01*
G37*
%TD.AperFunction*%
%TD*%
%TA.AperFunction,Conductor*%
%TO.N,A9*%
G36*
X33491577Y-29004711D02*
G01*
X33385511Y-29110777D01*
X33580833Y-29546793D01*
X33789407Y-29408607D01*
X33927593Y-29200033D01*
X33491577Y-29004711D01*
G37*
%TD.AperFunction*%
%TD*%
%TA.AperFunction,Conductor*%
%TO.N,A14*%
G36*
X72975000Y-32675000D02*
G01*
X72975000Y-32825000D01*
X73150000Y-32925000D01*
X73901000Y-32750000D01*
X73150000Y-32575000D01*
X72975000Y-32675000D01*
G37*
%TD.AperFunction*%
%TD*%
%TA.AperFunction,Conductor*%
%TO.N,A14*%
G36*
X72849623Y-32782489D02*
G01*
X72955689Y-32676423D01*
X72760367Y-32240407D01*
X72551793Y-32378593D01*
X72413607Y-32587167D01*
X72849623Y-32782489D01*
G37*
%TD.AperFunction*%
%TD*%
%TA.AperFunction,Conductor*%
%TO.N,A14*%
G36*
X40214700Y-14236700D02*
G01*
X40214700Y-14086700D01*
X40786749Y-13557235D01*
X40079000Y-13085000D01*
X39607765Y-13791749D01*
X40214700Y-14236700D01*
G37*
%TD.AperFunction*%
%TD*%
%TA.AperFunction,Conductor*%
%TO.N,A14*%
G36*
X42516200Y-29620404D02*
G01*
X42366200Y-29620404D01*
X42196004Y-30066827D01*
X42441200Y-30116600D01*
X42686396Y-30066827D01*
X42516200Y-29620404D01*
G37*
%TD.AperFunction*%
%TD*%
%TA.AperFunction,Conductor*%
%TO.N,A8*%
G36*
X34937177Y-29459811D02*
G01*
X34831111Y-29565877D01*
X35026433Y-30001893D01*
X35235007Y-29863707D01*
X35373193Y-29655133D01*
X34937177Y-29459811D01*
G37*
%TD.AperFunction*%
%TD*%
%TA.AperFunction,Conductor*%
%TO.N,A8*%
G36*
X33265433Y-14534799D02*
G01*
X33371499Y-14428733D01*
X33293667Y-12919173D01*
X32459293Y-13084293D01*
X31987765Y-13791749D01*
X33265433Y-14534799D01*
G37*
%TD.AperFunction*%
%TD*%
%TA.AperFunction,Conductor*%
%TO.N,D16*%
G36*
X72975000Y-26675000D02*
G01*
X72975000Y-26825000D01*
X73150000Y-26925000D01*
X73901000Y-26750000D01*
X73150000Y-26575000D01*
X72975000Y-26675000D01*
G37*
%TD.AperFunction*%
%TD*%
%TA.AperFunction,Conductor*%
%TO.N,D16*%
G36*
X70379400Y-44670004D02*
G01*
X70229400Y-44670004D01*
X70059204Y-45116427D01*
X70304400Y-45166200D01*
X70549596Y-45116427D01*
X70379400Y-44670004D01*
G37*
%TD.AperFunction*%
%TD*%
%TA.AperFunction,Conductor*%
%TO.N,D29*%
G36*
X56708300Y-48779600D02*
G01*
X56858300Y-48779600D01*
X57387765Y-49351749D01*
X57860000Y-48644000D01*
X57153251Y-48172765D01*
X56708300Y-48779600D01*
G37*
%TD.AperFunction*%
%TD*%
%TA.AperFunction,Conductor*%
%TO.N,D29*%
G36*
X72975000Y-28675000D02*
G01*
X72975000Y-28825000D01*
X73150000Y-28925000D01*
X73901000Y-28750000D01*
X73150000Y-28575000D01*
X72975000Y-28675000D01*
G37*
%TD.AperFunction*%
%TD*%
%TA.AperFunction,Conductor*%
%TO.N,D29*%
G36*
X72707203Y-28825000D02*
G01*
X72707203Y-28675000D01*
X72498367Y-28421607D01*
X72289500Y-28560500D01*
X72241727Y-28805696D01*
X72707203Y-28825000D01*
G37*
%TD.AperFunction*%
%TD*%
%TA.AperFunction,Conductor*%
%TO.N,D29*%
G36*
X59355991Y-28435044D02*
G01*
X59462056Y-28541109D01*
X59652667Y-28146593D01*
X59445507Y-28006993D01*
X59199604Y-28056473D01*
X59355991Y-28435044D01*
G37*
%TD.AperFunction*%
%TD*%
%TA.AperFunction,Conductor*%
%TO.N,D39*%
G36*
X76408100Y-23294996D02*
G01*
X76558100Y-23294996D01*
X76728296Y-22848573D01*
X76483100Y-22798800D01*
X76237904Y-22848573D01*
X76408100Y-23294996D01*
G37*
%TD.AperFunction*%
%TD*%
%TA.AperFunction,Conductor*%
%TO.N,D39*%
G36*
X74825000Y-25825000D02*
G01*
X74825000Y-25675000D01*
X74650000Y-25575000D01*
X73899000Y-25750000D01*
X74650000Y-25925000D01*
X74825000Y-25825000D01*
G37*
%TD.AperFunction*%
%TD*%
%TA.AperFunction,Conductor*%
%TO.N,A2*%
G36*
X24950200Y-14236700D02*
G01*
X24950200Y-14086700D01*
X24367765Y-13791749D01*
X24839000Y-13085000D01*
X25546749Y-13557235D01*
X24950200Y-14236700D01*
G37*
%TD.AperFunction*%
%TD*%
%TA.AperFunction,Conductor*%
%TO.N,A2*%
G36*
X72975000Y-36175000D02*
G01*
X72975000Y-36325000D01*
X73150000Y-36425000D01*
X73901000Y-36250000D01*
X73150000Y-36075000D01*
X72975000Y-36175000D01*
G37*
%TD.AperFunction*%
%TD*%
%TA.AperFunction,Conductor*%
%TO.N,A2*%
G36*
X72813373Y-36325000D02*
G01*
X72813373Y-36175000D01*
X72321607Y-36385733D01*
X72459500Y-36593600D01*
X72705696Y-36642373D01*
X72813373Y-36325000D01*
G37*
%TD.AperFunction*%
%TD*%
%TA.AperFunction,Conductor*%
%TO.N,A2*%
G36*
X26966377Y-35078111D02*
G01*
X26860311Y-35184177D01*
X27055633Y-35620193D01*
X27264207Y-35482007D01*
X27402393Y-35273433D01*
X26966377Y-35078111D01*
G37*
%TD.AperFunction*%
%TD*%
%TA.AperFunction,Conductor*%
%TO.N,D42*%
G36*
X72975000Y-34675000D02*
G01*
X72975000Y-34825000D01*
X73150000Y-34925000D01*
X73901000Y-34750000D01*
X73150000Y-34575000D01*
X72975000Y-34675000D01*
G37*
%TD.AperFunction*%
%TD*%
%TA.AperFunction,Conductor*%
%TO.N,D42*%
G36*
X54318300Y-12973500D02*
G01*
X54168300Y-12973500D01*
X54847765Y-12378251D01*
X55320000Y-13086000D01*
X54613251Y-13557235D01*
X54318300Y-12973500D01*
G37*
%TD.AperFunction*%
%TD*%
%TA.AperFunction,Conductor*%
%TO.N,D42*%
G36*
X53799177Y-32089211D02*
G01*
X53693111Y-32195277D01*
X53888433Y-32631293D01*
X54097007Y-32493107D01*
X54235193Y-32284533D01*
X53799177Y-32089211D01*
G37*
%TD.AperFunction*%
%TD*%
%TA.AperFunction,Conductor*%
%TO.N,D42*%
G36*
X72393958Y-34825000D02*
G01*
X72393958Y-34675000D01*
X72276796Y-34380527D01*
X72030600Y-34429300D01*
X71982827Y-34674496D01*
X72393958Y-34825000D01*
G37*
%TD.AperFunction*%
%TD*%
%TA.AperFunction,Conductor*%
%TO.N,D37*%
G36*
X74977463Y-21175000D02*
G01*
X74977463Y-21325000D01*
X75432873Y-21281396D01*
X75385100Y-21036200D01*
X75176233Y-20897307D01*
X74977463Y-21175000D01*
G37*
%TD.AperFunction*%
%TD*%
%TA.AperFunction,Conductor*%
%TO.N,D37*%
G36*
X74825000Y-21325000D02*
G01*
X74825000Y-21175000D01*
X74650000Y-21075000D01*
X73899000Y-21250000D01*
X74650000Y-21425000D01*
X74825000Y-21325000D01*
G37*
%TD.AperFunction*%
%TD*%
%TA.AperFunction,Conductor*%
%TO.N,A3*%
G36*
X74825000Y-36825000D02*
G01*
X74825000Y-36675000D01*
X74650000Y-36575000D01*
X73899000Y-36750000D01*
X74650000Y-36925000D01*
X74825000Y-36825000D01*
G37*
%TD.AperFunction*%
%TD*%
%TA.AperFunction,Conductor*%
%TO.N,A3*%
G36*
X76233700Y-30809696D02*
G01*
X76383700Y-30809696D01*
X76553896Y-30363273D01*
X76308700Y-30313500D01*
X76063504Y-30363273D01*
X76233700Y-30809696D01*
G37*
%TD.AperFunction*%
%TD*%
%TA.AperFunction,Conductor*%
%TO.N,D23*%
G36*
X72975000Y-24175000D02*
G01*
X72975000Y-24325000D01*
X73150000Y-24425000D01*
X73901000Y-24250000D01*
X73150000Y-24075000D01*
X72975000Y-24175000D01*
G37*
%TD.AperFunction*%
%TD*%
%TA.AperFunction,Conductor*%
%TO.N,D23*%
G36*
X68496189Y-45228077D02*
G01*
X68390123Y-45122011D01*
X67954107Y-45317333D01*
X68092293Y-45525907D01*
X68300867Y-45664093D01*
X68496189Y-45228077D01*
G37*
%TD.AperFunction*%
%TD*%
%TA.AperFunction,Conductor*%
%TO.N,D43*%
G36*
X61873077Y-14573311D02*
G01*
X61767011Y-14679377D01*
X61962333Y-15115393D01*
X62170907Y-14977207D01*
X62309093Y-14768633D01*
X61873077Y-14573311D01*
G37*
%TD.AperFunction*%
%TD*%
%TA.AperFunction,Conductor*%
%TO.N,D43*%
G36*
X56471700Y-15490300D02*
G01*
X56321700Y-15490300D01*
X55792235Y-14918251D01*
X55320000Y-15626000D01*
X56026749Y-16097235D01*
X56471700Y-15490300D01*
G37*
%TD.AperFunction*%
%TD*%
%TA.AperFunction,Conductor*%
%TO.N,D43*%
G36*
X72975000Y-15175000D02*
G01*
X72975000Y-15325000D01*
X73150000Y-15425000D01*
X73901000Y-15250000D01*
X73150000Y-15075000D01*
X72975000Y-15175000D01*
G37*
%TD.AperFunction*%
%TD*%
%TA.AperFunction,Conductor*%
%TO.N,D43*%
G36*
X72449896Y-15325000D02*
G01*
X72449896Y-15175000D01*
X72093593Y-15012633D01*
X71953700Y-15220500D01*
X72003473Y-15465696D01*
X72449896Y-15325000D01*
G37*
%TD.AperFunction*%
%TD*%
%TA.AperFunction,Conductor*%
%TO.N,A7*%
G36*
X76054411Y-37521123D02*
G01*
X76160477Y-37627189D01*
X76596493Y-37431867D01*
X76458307Y-37223293D01*
X76249733Y-37085107D01*
X76054411Y-37521123D01*
G37*
%TD.AperFunction*%
%TD*%
%TA.AperFunction,Conductor*%
%TO.N,A7*%
G36*
X74825000Y-38825000D02*
G01*
X74825000Y-38675000D01*
X74650000Y-38575000D01*
X73899000Y-38750000D01*
X74650000Y-38925000D01*
X74825000Y-38825000D01*
G37*
%TD.AperFunction*%
%TD*%
%TA.AperFunction,Conductor*%
%TO.N,A7*%
G36*
X30733277Y-34238511D02*
G01*
X30627211Y-34344577D01*
X30822533Y-34780593D01*
X31031107Y-34642407D01*
X31169293Y-34433833D01*
X30733277Y-34238511D01*
G37*
%TD.AperFunction*%
%TD*%
%TA.AperFunction,Conductor*%
%TO.N,A7*%
G36*
X29845000Y-17308667D02*
G01*
X29995000Y-17308667D01*
X30626749Y-16097235D01*
X29920000Y-15624000D01*
X29213251Y-16097235D01*
X29845000Y-17308667D01*
G37*
%TD.AperFunction*%
%TD*%
%TA.AperFunction,Conductor*%
%TO.N,D30*%
G36*
X72975000Y-21675000D02*
G01*
X72975000Y-21825000D01*
X73150000Y-21925000D01*
X73901000Y-21750000D01*
X73150000Y-21575000D01*
X72975000Y-21675000D01*
G37*
%TD.AperFunction*%
%TD*%
%TA.AperFunction,Conductor*%
%TO.N,D30*%
G36*
X60475000Y-44421333D02*
G01*
X60325000Y-44421333D01*
X59693251Y-45632765D01*
X60400000Y-46106000D01*
X61106749Y-45632765D01*
X60475000Y-44421333D01*
G37*
%TD.AperFunction*%
%TD*%
%TA.AperFunction,Conductor*%
%TO.N,D22*%
G36*
X72975000Y-24675000D02*
G01*
X72975000Y-24825000D01*
X73150000Y-24925000D01*
X73901000Y-24750000D01*
X73150000Y-24575000D01*
X72975000Y-24675000D01*
G37*
%TD.AperFunction*%
%TD*%
%TA.AperFunction,Conductor*%
%TO.N,D22*%
G36*
X69487500Y-40817804D02*
G01*
X69337500Y-40817804D01*
X69167304Y-41264227D01*
X69412500Y-41314000D01*
X69657696Y-41264227D01*
X69487500Y-40817804D01*
G37*
%TD.AperFunction*%
%TD*%
%TA.AperFunction,Conductor*%
%TO.N,D33*%
G36*
X72975000Y-18675000D02*
G01*
X72975000Y-18825000D01*
X73150000Y-18925000D01*
X73901000Y-18750000D01*
X73150000Y-18575000D01*
X72975000Y-18675000D01*
G37*
%TD.AperFunction*%
%TD*%
%TA.AperFunction,Conductor*%
%TO.N,D33*%
G36*
X72032600Y-20010004D02*
G01*
X71882600Y-20010004D01*
X71712404Y-20456427D01*
X71957600Y-20506200D01*
X72202796Y-20456427D01*
X72032600Y-20010004D01*
G37*
%TD.AperFunction*%
%TD*%
%TA.AperFunction,Conductor*%
%TO.N,+3.3VA*%
G36*
X17295000Y-46961333D02*
G01*
X17145000Y-46961333D01*
X16513251Y-48172765D01*
X17220000Y-48646000D01*
X17926749Y-48172765D01*
X17295000Y-46961333D01*
G37*
%TD.AperFunction*%
%TD*%
%TA.AperFunction,Conductor*%
%TO.N,+3.3VA*%
G36*
X17145000Y-47788667D02*
G01*
X17295000Y-47788667D01*
X17926749Y-46577235D01*
X17220000Y-46104000D01*
X16513251Y-46577235D01*
X17145000Y-47788667D01*
G37*
%TD.AperFunction*%
%TD*%
%TA.AperFunction,Conductor*%
%TO.N,D31*%
G36*
X60511500Y-47643300D02*
G01*
X60511500Y-47493300D01*
X61106749Y-48172765D01*
X60399000Y-48645000D01*
X59927765Y-47938251D01*
X60511500Y-47643300D01*
G37*
%TD.AperFunction*%
%TD*%
%TA.AperFunction,Conductor*%
%TO.N,D31*%
G36*
X72975000Y-22175000D02*
G01*
X72975000Y-22325000D01*
X73150000Y-22425000D01*
X73901000Y-22250000D01*
X73150000Y-22075000D01*
X72975000Y-22175000D01*
G37*
%TD.AperFunction*%
%TD*%
%TA.AperFunction,Conductor*%
%TO.N,D14*%
G36*
X50243700Y-25518596D02*
G01*
X50393700Y-25518596D01*
X50563896Y-25072173D01*
X50318700Y-25022400D01*
X50073504Y-25072173D01*
X50243700Y-25518596D01*
G37*
%TD.AperFunction*%
%TD*%
%TA.AperFunction,Conductor*%
%TO.N,D14*%
G36*
X76075508Y-27675000D02*
G01*
X76075508Y-27825000D01*
X76540073Y-27803496D01*
X76492300Y-27558300D01*
X76283433Y-27419407D01*
X76075508Y-27675000D01*
G37*
%TD.AperFunction*%
%TD*%
%TA.AperFunction,Conductor*%
%TO.N,D14*%
G36*
X74825000Y-27825000D02*
G01*
X74825000Y-27675000D01*
X74650000Y-27575000D01*
X73899000Y-27750000D01*
X74650000Y-27925000D01*
X74825000Y-27825000D01*
G37*
%TD.AperFunction*%
%TD*%
%TA.AperFunction,Conductor*%
%TO.N,D14*%
G36*
X40562223Y-44652143D02*
G01*
X40456157Y-44546077D01*
X39373251Y-45632765D01*
X40079293Y-46105707D01*
X40913667Y-45939173D01*
X40562223Y-44652143D01*
G37*
%TD.AperFunction*%
%TD*%
%TA.AperFunction,Conductor*%
%TO.N,D38*%
G36*
X72262689Y-25706977D02*
G01*
X72156623Y-25600911D01*
X71720607Y-25796233D01*
X71858793Y-26004807D01*
X72067367Y-26142993D01*
X72262689Y-25706977D01*
G37*
%TD.AperFunction*%
%TD*%
%TA.AperFunction,Conductor*%
%TO.N,D38*%
G36*
X72975000Y-25175000D02*
G01*
X72975000Y-25325000D01*
X73150000Y-25425000D01*
X73901000Y-25250000D01*
X73150000Y-25075000D01*
X72975000Y-25175000D01*
G37*
%TD.AperFunction*%
%TD*%
%TA.AperFunction,Conductor*%
%TO.N,D38*%
G36*
X50374700Y-14236700D02*
G01*
X50374700Y-14086700D01*
X50946749Y-13557235D01*
X50239000Y-13085000D01*
X49767765Y-13791749D01*
X50374700Y-14236700D01*
G37*
%TD.AperFunction*%
%TD*%
%TA.AperFunction,Conductor*%
%TO.N,D38*%
G36*
X51856477Y-25217611D02*
G01*
X51750411Y-25323677D01*
X51945733Y-25759693D01*
X52154307Y-25621507D01*
X52292493Y-25412933D01*
X51856477Y-25217611D01*
G37*
%TD.AperFunction*%
%TD*%
%TA.AperFunction,Conductor*%
%TO.N,D46*%
G36*
X72775556Y-16825000D02*
G01*
X72775556Y-16675000D01*
X72575667Y-16400007D01*
X72366800Y-16538900D01*
X72319027Y-16784096D01*
X72775556Y-16825000D01*
G37*
%TD.AperFunction*%
%TD*%
%TA.AperFunction,Conductor*%
%TO.N,D46*%
G36*
X72975000Y-16675000D02*
G01*
X72975000Y-16825000D01*
X73150000Y-16925000D01*
X73901000Y-16750000D01*
X73150000Y-16575000D01*
X72975000Y-16675000D01*
G37*
%TD.AperFunction*%
%TD*%
%TA.AperFunction,Conductor*%
%TO.N,GND*%
G36*
X77827297Y-15124784D02*
G01*
X78074784Y-14877297D01*
X77350000Y-13197918D01*
X76499293Y-13549293D01*
X76297918Y-14550000D01*
X77827297Y-15124784D01*
G37*
%TD.AperFunction*%
%TD*%
%TA.AperFunction,Conductor*%
%TO.N,GND*%
G36*
X62083363Y-6330850D02*
G01*
X62330850Y-6083363D01*
X61500000Y-4085786D01*
X59999293Y-3999293D01*
X60085787Y-5500000D01*
X62083363Y-6330850D01*
G37*
%TD.AperFunction*%
%TD*%
%TA.AperFunction,Conductor*%
%TO.N,GND*%
G36*
X74800000Y-13375000D02*
G01*
X74800000Y-13725000D01*
X75650000Y-14400000D01*
X76501000Y-13550000D01*
X75650000Y-12700000D01*
X74800000Y-13375000D01*
G37*
%TD.AperFunction*%
%TD*%
%TA.AperFunction,Conductor*%
%TO.N,GND*%
G36*
X78074784Y-45172703D02*
G01*
X77827297Y-44925216D01*
X76311987Y-45450000D01*
X76499293Y-46450707D01*
X77350000Y-46810861D01*
X78074784Y-45172703D01*
G37*
%TD.AperFunction*%
%TD*%
%TA.AperFunction,Conductor*%
%TO.N,A13*%
G36*
X74825000Y-32325000D02*
G01*
X74825000Y-32175000D01*
X74650000Y-32075000D01*
X73899000Y-32250000D01*
X74650000Y-32425000D01*
X74825000Y-32325000D01*
G37*
%TD.AperFunction*%
%TD*%
%TA.AperFunction,Conductor*%
%TO.N,A13*%
G36*
X75721300Y-31324496D02*
G01*
X75871300Y-31324496D01*
X76041496Y-30878073D01*
X75796300Y-30828300D01*
X75551104Y-30878073D01*
X75721300Y-31324496D01*
G37*
%TD.AperFunction*%
%TD*%
%TA.AperFunction,Conductor*%
%TO.N,A10*%
G36*
X74825000Y-30825000D02*
G01*
X74825000Y-30675000D01*
X74650000Y-30575000D01*
X73899000Y-30750000D01*
X74650000Y-30925000D01*
X74825000Y-30825000D01*
G37*
%TD.AperFunction*%
%TD*%
%TA.AperFunction,Conductor*%
%TO.N,A10*%
G36*
X75272500Y-30335496D02*
G01*
X75422500Y-30335496D01*
X75592696Y-29889073D01*
X75347500Y-29839300D01*
X75102304Y-29889073D01*
X75272500Y-30335496D01*
G37*
%TD.AperFunction*%
%TD*%
%TA.AperFunction,Conductor*%
%TO.N,A9*%
G36*
X72949265Y-30262869D02*
G01*
X73055331Y-30368935D01*
X73150000Y-30425000D01*
X73900707Y-30249293D01*
X73150000Y-30129470D01*
X72949265Y-30262869D01*
G37*
%TD.AperFunction*%
%TD*%
%TA.AperFunction,Conductor*%
%TO.N,A9*%
G36*
X73017789Y-30406477D02*
G01*
X72911723Y-30300411D01*
X72475707Y-30495733D01*
X72613893Y-30704307D01*
X72822467Y-30842493D01*
X73017789Y-30406477D01*
G37*
%TD.AperFunction*%
%TD*%
%TA.AperFunction,Conductor*%
%TO.N,A8*%
G36*
X72975000Y-29675000D02*
G01*
X72975000Y-29825000D01*
X73150000Y-29925000D01*
X73901000Y-29750000D01*
X73150000Y-29575000D01*
X72975000Y-29675000D01*
G37*
%TD.AperFunction*%
%TD*%
%TA.AperFunction,Conductor*%
%TO.N,A8*%
G36*
X72764223Y-29664589D02*
G01*
X72870289Y-29558523D01*
X72674967Y-29122507D01*
X72466393Y-29260693D01*
X72328207Y-29469267D01*
X72764223Y-29664589D01*
G37*
%TD.AperFunction*%
%TD*%
%TA.AperFunction,Conductor*%
%TO.N,D36*%
G36*
X72190411Y-18547223D02*
G01*
X72296477Y-18653289D01*
X72732493Y-18457967D01*
X72594307Y-18249393D01*
X72385733Y-18111207D01*
X72190411Y-18547223D01*
G37*
%TD.AperFunction*%
%TD*%
%TA.AperFunction,Conductor*%
%TO.N,D36*%
G36*
X72943934Y-19750000D02*
G01*
X73050000Y-19856066D01*
X73150000Y-19925000D01*
X73900707Y-19749293D01*
X73150000Y-19618624D01*
X72943934Y-19750000D01*
G37*
%TD.AperFunction*%
%TD*%
%TA.AperFunction,Conductor*%
%TO.N,D44*%
G36*
X74347966Y-14454032D02*
G01*
X74454032Y-14347966D01*
X74074893Y-14120233D01*
X73935293Y-14327393D01*
X73984773Y-14573296D01*
X74347966Y-14454032D01*
G37*
%TD.AperFunction*%
%TD*%
%TA.AperFunction,Conductor*%
%TO.N,D44*%
G36*
X74825000Y-15825000D02*
G01*
X74825000Y-15675000D01*
X74650000Y-15575000D01*
X73899000Y-15750000D01*
X74650000Y-15925000D01*
X74825000Y-15825000D01*
G37*
%TD.AperFunction*%
%TD*%
M02*
