%TF.GenerationSoftware,KiCad,Pcbnew,9.0.3*%
%TF.CreationDate,2026-01-25T21:09:20+09:00*%
%TF.ProjectId,main,6d61696e-2e6b-4696-9361-645f70636258,rev?*%
%TF.SameCoordinates,Original*%
%TF.FileFunction,Legend,Top*%
%TF.FilePolarity,Positive*%
%FSLAX46Y46*%
G04 Gerber Fmt 4.6, Leading zero omitted, Abs format (unit mm)*
G04 Created by KiCad (PCBNEW 9.0.3) date 2026-01-25 21:09:20*
%MOMM*%
%LPD*%
G01*
G04 APERTURE LIST*
%ADD10C,0.400000*%
%ADD11C,0.150000*%
%ADD12C,0.120000*%
%ADD13C,1.300000*%
%ADD14C,3.200000*%
%ADD15R,3.000000X3.000000*%
%ADD16C,3.000000*%
%ADD17C,1.700000*%
%ADD18O,1.700000X1.700000*%
%ADD19R,1.700000X1.700000*%
G04 APERTURE END LIST*
D10*
X55523809Y-2999676D02*
X55333333Y-2904438D01*
X55333333Y-2904438D02*
X55047619Y-2904438D01*
X55047619Y-2904438D02*
X54761904Y-2999676D01*
X54761904Y-2999676D02*
X54571428Y-3190152D01*
X54571428Y-3190152D02*
X54476190Y-3380628D01*
X54476190Y-3380628D02*
X54380952Y-3761580D01*
X54380952Y-3761580D02*
X54380952Y-4047295D01*
X54380952Y-4047295D02*
X54476190Y-4428247D01*
X54476190Y-4428247D02*
X54571428Y-4618723D01*
X54571428Y-4618723D02*
X54761904Y-4809200D01*
X54761904Y-4809200D02*
X55047619Y-4904438D01*
X55047619Y-4904438D02*
X55238095Y-4904438D01*
X55238095Y-4904438D02*
X55523809Y-4809200D01*
X55523809Y-4809200D02*
X55619047Y-4713961D01*
X55619047Y-4713961D02*
X55619047Y-4047295D01*
X55619047Y-4047295D02*
X55238095Y-4047295D01*
X69333333Y-2904438D02*
X69999999Y-4904438D01*
X69999999Y-4904438D02*
X70666666Y-2904438D01*
D11*
X40933810Y-18504819D02*
X40933810Y-17504819D01*
X40933810Y-17504819D02*
X41267143Y-18219104D01*
X41267143Y-18219104D02*
X41600476Y-17504819D01*
X41600476Y-17504819D02*
X41600476Y-18504819D01*
X42076667Y-17981009D02*
X42410000Y-17981009D01*
X42552857Y-18504819D02*
X42076667Y-18504819D01*
X42076667Y-18504819D02*
X42076667Y-17504819D01*
X42076667Y-17504819D02*
X42552857Y-17504819D01*
X43505238Y-17552438D02*
X43410000Y-17504819D01*
X43410000Y-17504819D02*
X43267143Y-17504819D01*
X43267143Y-17504819D02*
X43124286Y-17552438D01*
X43124286Y-17552438D02*
X43029048Y-17647676D01*
X43029048Y-17647676D02*
X42981429Y-17742914D01*
X42981429Y-17742914D02*
X42933810Y-17933390D01*
X42933810Y-17933390D02*
X42933810Y-18076247D01*
X42933810Y-18076247D02*
X42981429Y-18266723D01*
X42981429Y-18266723D02*
X43029048Y-18361961D01*
X43029048Y-18361961D02*
X43124286Y-18457200D01*
X43124286Y-18457200D02*
X43267143Y-18504819D01*
X43267143Y-18504819D02*
X43362381Y-18504819D01*
X43362381Y-18504819D02*
X43505238Y-18457200D01*
X43505238Y-18457200D02*
X43552857Y-18409580D01*
X43552857Y-18409580D02*
X43552857Y-18076247D01*
X43552857Y-18076247D02*
X43362381Y-18076247D01*
X43933810Y-18219104D02*
X44410000Y-18219104D01*
X43838572Y-18504819D02*
X44171905Y-17504819D01*
X44171905Y-17504819D02*
X44505238Y-18504819D01*
X44790953Y-17600057D02*
X44838572Y-17552438D01*
X44838572Y-17552438D02*
X44933810Y-17504819D01*
X44933810Y-17504819D02*
X45171905Y-17504819D01*
X45171905Y-17504819D02*
X45267143Y-17552438D01*
X45267143Y-17552438D02*
X45314762Y-17600057D01*
X45314762Y-17600057D02*
X45362381Y-17695295D01*
X45362381Y-17695295D02*
X45362381Y-17790533D01*
X45362381Y-17790533D02*
X45314762Y-17933390D01*
X45314762Y-17933390D02*
X44743334Y-18504819D01*
X44743334Y-18504819D02*
X45362381Y-18504819D01*
X46267143Y-17504819D02*
X45790953Y-17504819D01*
X45790953Y-17504819D02*
X45743334Y-17981009D01*
X45743334Y-17981009D02*
X45790953Y-17933390D01*
X45790953Y-17933390D02*
X45886191Y-17885771D01*
X45886191Y-17885771D02*
X46124286Y-17885771D01*
X46124286Y-17885771D02*
X46219524Y-17933390D01*
X46219524Y-17933390D02*
X46267143Y-17981009D01*
X46267143Y-17981009D02*
X46314762Y-18076247D01*
X46314762Y-18076247D02*
X46314762Y-18314342D01*
X46314762Y-18314342D02*
X46267143Y-18409580D01*
X46267143Y-18409580D02*
X46219524Y-18457200D01*
X46219524Y-18457200D02*
X46124286Y-18504819D01*
X46124286Y-18504819D02*
X45886191Y-18504819D01*
X45886191Y-18504819D02*
X45790953Y-18457200D01*
X45790953Y-18457200D02*
X45743334Y-18409580D01*
X47171905Y-17504819D02*
X46981429Y-17504819D01*
X46981429Y-17504819D02*
X46886191Y-17552438D01*
X46886191Y-17552438D02*
X46838572Y-17600057D01*
X46838572Y-17600057D02*
X46743334Y-17742914D01*
X46743334Y-17742914D02*
X46695715Y-17933390D01*
X46695715Y-17933390D02*
X46695715Y-18314342D01*
X46695715Y-18314342D02*
X46743334Y-18409580D01*
X46743334Y-18409580D02*
X46790953Y-18457200D01*
X46790953Y-18457200D02*
X46886191Y-18504819D01*
X46886191Y-18504819D02*
X47076667Y-18504819D01*
X47076667Y-18504819D02*
X47171905Y-18457200D01*
X47171905Y-18457200D02*
X47219524Y-18409580D01*
X47219524Y-18409580D02*
X47267143Y-18314342D01*
X47267143Y-18314342D02*
X47267143Y-18076247D01*
X47267143Y-18076247D02*
X47219524Y-17981009D01*
X47219524Y-17981009D02*
X47171905Y-17933390D01*
X47171905Y-17933390D02*
X47076667Y-17885771D01*
X47076667Y-17885771D02*
X46886191Y-17885771D01*
X46886191Y-17885771D02*
X46790953Y-17933390D01*
X46790953Y-17933390D02*
X46743334Y-17981009D01*
X46743334Y-17981009D02*
X46695715Y-18076247D01*
X47886191Y-17504819D02*
X47981429Y-17504819D01*
X47981429Y-17504819D02*
X48076667Y-17552438D01*
X48076667Y-17552438D02*
X48124286Y-17600057D01*
X48124286Y-17600057D02*
X48171905Y-17695295D01*
X48171905Y-17695295D02*
X48219524Y-17885771D01*
X48219524Y-17885771D02*
X48219524Y-18123866D01*
X48219524Y-18123866D02*
X48171905Y-18314342D01*
X48171905Y-18314342D02*
X48124286Y-18409580D01*
X48124286Y-18409580D02*
X48076667Y-18457200D01*
X48076667Y-18457200D02*
X47981429Y-18504819D01*
X47981429Y-18504819D02*
X47886191Y-18504819D01*
X47886191Y-18504819D02*
X47790953Y-18457200D01*
X47790953Y-18457200D02*
X47743334Y-18409580D01*
X47743334Y-18409580D02*
X47695715Y-18314342D01*
X47695715Y-18314342D02*
X47648096Y-18123866D01*
X47648096Y-18123866D02*
X47648096Y-17885771D01*
X47648096Y-17885771D02*
X47695715Y-17695295D01*
X47695715Y-17695295D02*
X47743334Y-17600057D01*
X47743334Y-17600057D02*
X47790953Y-17552438D01*
X47790953Y-17552438D02*
X47886191Y-17504819D01*
X49410001Y-18504819D02*
X49410001Y-17504819D01*
X49410001Y-17504819D02*
X49790953Y-17504819D01*
X49790953Y-17504819D02*
X49886191Y-17552438D01*
X49886191Y-17552438D02*
X49933810Y-17600057D01*
X49933810Y-17600057D02*
X49981429Y-17695295D01*
X49981429Y-17695295D02*
X49981429Y-17838152D01*
X49981429Y-17838152D02*
X49933810Y-17933390D01*
X49933810Y-17933390D02*
X49886191Y-17981009D01*
X49886191Y-17981009D02*
X49790953Y-18028628D01*
X49790953Y-18028628D02*
X49410001Y-18028628D01*
X50981429Y-18504819D02*
X50648096Y-18028628D01*
X50410001Y-18504819D02*
X50410001Y-17504819D01*
X50410001Y-17504819D02*
X50790953Y-17504819D01*
X50790953Y-17504819D02*
X50886191Y-17552438D01*
X50886191Y-17552438D02*
X50933810Y-17600057D01*
X50933810Y-17600057D02*
X50981429Y-17695295D01*
X50981429Y-17695295D02*
X50981429Y-17838152D01*
X50981429Y-17838152D02*
X50933810Y-17933390D01*
X50933810Y-17933390D02*
X50886191Y-17981009D01*
X50886191Y-17981009D02*
X50790953Y-18028628D01*
X50790953Y-18028628D02*
X50410001Y-18028628D01*
X51600477Y-17504819D02*
X51790953Y-17504819D01*
X51790953Y-17504819D02*
X51886191Y-17552438D01*
X51886191Y-17552438D02*
X51981429Y-17647676D01*
X51981429Y-17647676D02*
X52029048Y-17838152D01*
X52029048Y-17838152D02*
X52029048Y-18171485D01*
X52029048Y-18171485D02*
X51981429Y-18361961D01*
X51981429Y-18361961D02*
X51886191Y-18457200D01*
X51886191Y-18457200D02*
X51790953Y-18504819D01*
X51790953Y-18504819D02*
X51600477Y-18504819D01*
X51600477Y-18504819D02*
X51505239Y-18457200D01*
X51505239Y-18457200D02*
X51410001Y-18361961D01*
X51410001Y-18361961D02*
X51362382Y-18171485D01*
X51362382Y-18171485D02*
X51362382Y-17838152D01*
X51362382Y-17838152D02*
X51410001Y-17647676D01*
X51410001Y-17647676D02*
X51505239Y-17552438D01*
X51505239Y-17552438D02*
X51600477Y-17504819D01*
X53219525Y-18504819D02*
X53219525Y-17504819D01*
X53219525Y-17504819D02*
X53552858Y-18219104D01*
X53552858Y-18219104D02*
X53886191Y-17504819D01*
X53886191Y-17504819D02*
X53886191Y-18504819D01*
X54362382Y-18504819D02*
X54362382Y-17504819D01*
X54838572Y-18504819D02*
X54838572Y-17504819D01*
X54838572Y-17504819D02*
X55410000Y-18504819D01*
X55410000Y-18504819D02*
X55410000Y-17504819D01*
X55886191Y-18504819D02*
X55886191Y-17504819D01*
D12*
%TO.C,J2*%
X57460000Y-190000D02*
X57460000Y-7810000D01*
X57460000Y-7810000D02*
X67620000Y-7810000D01*
X67620000Y-190000D02*
X57460000Y-190000D01*
X67620000Y-6540000D02*
X57460000Y-6540000D01*
X67620000Y-7810000D02*
X67620000Y-190000D01*
%TD*%
%LPC*%
D13*
%TO.C,H6*%
X73000000Y-53000000D03*
%TD*%
D14*
%TO.C,H4*%
X4000000Y-4000000D03*
%TD*%
%TO.C,H2*%
X4000000Y-56000000D03*
%TD*%
%TO.C,H3*%
X76000000Y-56000000D03*
%TD*%
D13*
%TO.C,H5*%
X7000000Y-7000000D03*
%TD*%
D14*
%TO.C,H1*%
X76000000Y-4000000D03*
%TD*%
D15*
%TO.C,J2*%
X60000000Y-4000000D03*
D16*
X65080000Y-4000000D03*
%TD*%
D13*
%TO.C,H7*%
X73000000Y-7000000D03*
%TD*%
%TO.C,H8*%
X7000000Y-53000000D03*
%TD*%
D17*
%TO.C,J1*%
X60400000Y-46105000D03*
D18*
X60400000Y-48645000D03*
X57860000Y-46105000D03*
X57860000Y-48645000D03*
X55320000Y-46105000D03*
X55320000Y-48645000D03*
X52780000Y-46105000D03*
X52780000Y-48645000D03*
X50240000Y-46105000D03*
X50240000Y-48645000D03*
X47700000Y-46105000D03*
X47700000Y-48645000D03*
X45160000Y-46105000D03*
X45160000Y-48645000D03*
X42620000Y-46105000D03*
X42620000Y-48645000D03*
X40080000Y-46105000D03*
X40080000Y-48645000D03*
X37540000Y-46105000D03*
X37540000Y-48645000D03*
X35000000Y-46105000D03*
X35000000Y-48645000D03*
X32460000Y-46105000D03*
X32460000Y-48645000D03*
X29920000Y-46105000D03*
X29920000Y-48645000D03*
X27380000Y-46105000D03*
X27380000Y-48645000D03*
X24840000Y-46105000D03*
X24840000Y-48645000D03*
X22300000Y-46105000D03*
X22300000Y-48645000D03*
X19760000Y-46105000D03*
X19760000Y-48645000D03*
X17220000Y-46105000D03*
X17220000Y-48645000D03*
X14680000Y-46105000D03*
X14680000Y-48645000D03*
D19*
X12140000Y-46105000D03*
X12140000Y-48645000D03*
D18*
X9600000Y-46105000D03*
X9600000Y-48645000D03*
D17*
X60400000Y-13085000D03*
D18*
X60400000Y-15625000D03*
X57860000Y-13085000D03*
X57860000Y-15625000D03*
X55320000Y-13085000D03*
X55320000Y-15625000D03*
X52780000Y-13085000D03*
X52780000Y-15625000D03*
X50240000Y-13085000D03*
X50240000Y-15625000D03*
X47700000Y-13085000D03*
X47700000Y-15625000D03*
X45160000Y-13085000D03*
X45160000Y-15625000D03*
X42620000Y-13085000D03*
X42620000Y-15625000D03*
X40080000Y-13085000D03*
X40080000Y-15625000D03*
X37540000Y-13085000D03*
X37540000Y-15625000D03*
X35000000Y-13085000D03*
X35000000Y-15625000D03*
X32460000Y-13085000D03*
X32460000Y-15625000D03*
X29920000Y-13085000D03*
X29920000Y-15625000D03*
X27380000Y-13085000D03*
X27380000Y-15625000D03*
X24840000Y-13085000D03*
X24840000Y-15625000D03*
X22300000Y-13085000D03*
X22300000Y-15625000D03*
D17*
X57860000Y-18165000D03*
D18*
X60400000Y-18165000D03*
X57860000Y-20705000D03*
X60400000Y-20705000D03*
X57860000Y-23245000D03*
X60400000Y-23245000D03*
%TD*%
%LPD*%
M02*
