%TF.GenerationSoftware,KiCad,Pcbnew,9.0.3*%
%TF.CreationDate,2026-01-25T21:09:20+09:00*%
%TF.ProjectId,main,6d61696e-2e6b-4696-9361-645f70636258,rev?*%
%TF.SameCoordinates,Original*%
%TF.FileFunction,Legend,Bot*%
%TF.FilePolarity,Positive*%
%FSLAX46Y46*%
G04 Gerber Fmt 4.6, Leading zero omitted, Abs format (unit mm)*
G04 Created by KiCad (PCBNEW 9.0.3) date 2026-01-25 21:09:20*
%MOMM*%
%LPD*%
G01*
G04 APERTURE LIST*
%ADD10C,0.250000*%
%ADD11C,0.400000*%
%ADD12C,1.300000*%
%ADD13C,3.200000*%
%ADD14R,3.000000X3.000000*%
%ADD15C,3.000000*%
%ADD16C,1.700000*%
%ADD17O,1.700000X1.700000*%
%ADD18R,1.700000X1.700000*%
%ADD19R,1.500000X0.350000*%
%ADD20R,1.700000X2.000000*%
G04 APERTURE END LIST*
D10*
%TO.C,U1*%
X73900000Y-12800000D02*
X73900000Y-14840000D01*
X73900000Y-12800000D02*
X75420000Y-12800000D01*
X73900000Y-45160000D02*
X73900000Y-47200000D01*
X73900000Y-47200000D02*
X75420000Y-47200000D01*
X77590000Y-12800000D02*
X79900000Y-12800000D01*
X77590000Y-47200000D02*
X79900000Y-47200000D01*
X79900000Y-12800000D02*
X79900000Y-47200000D01*
D11*
X73110000Y-14310000D02*
G75*
G02*
X72710000Y-14310000I-200000J0D01*
G01*
X72710000Y-14310000D02*
G75*
G02*
X73110000Y-14310000I200000J0D01*
G01*
%TD*%
%LPC*%
D12*
%TO.C,H6*%
X73000000Y-53000000D03*
%TD*%
D13*
%TO.C,H4*%
X4000000Y-4000000D03*
%TD*%
%TO.C,H2*%
X4000000Y-56000000D03*
%TD*%
%TO.C,H3*%
X76000000Y-56000000D03*
%TD*%
D12*
%TO.C,H5*%
X7000000Y-7000000D03*
%TD*%
D13*
%TO.C,H1*%
X76000000Y-4000000D03*
%TD*%
D14*
%TO.C,J2*%
X60000000Y-4000000D03*
D15*
X65080000Y-4000000D03*
%TD*%
D12*
%TO.C,H7*%
X73000000Y-7000000D03*
%TD*%
%TO.C,H8*%
X7000000Y-53000000D03*
%TD*%
D16*
%TO.C,J1*%
X60400000Y-46105000D03*
D17*
X60400000Y-48645000D03*
X57860000Y-46105000D03*
X57860000Y-48645000D03*
X55320000Y-46105000D03*
X55320000Y-48645000D03*
X52780000Y-46105000D03*
X52780000Y-48645000D03*
X50240000Y-46105000D03*
X50240000Y-48645000D03*
X47700000Y-46105000D03*
X47700000Y-48645000D03*
X45160000Y-46105000D03*
X45160000Y-48645000D03*
X42620000Y-46105000D03*
X42620000Y-48645000D03*
X40080000Y-46105000D03*
X40080000Y-48645000D03*
X37540000Y-46105000D03*
X37540000Y-48645000D03*
X35000000Y-46105000D03*
X35000000Y-48645000D03*
X32460000Y-46105000D03*
X32460000Y-48645000D03*
X29920000Y-46105000D03*
X29920000Y-48645000D03*
X27380000Y-46105000D03*
X27380000Y-48645000D03*
X24840000Y-46105000D03*
X24840000Y-48645000D03*
X22300000Y-46105000D03*
X22300000Y-48645000D03*
X19760000Y-46105000D03*
X19760000Y-48645000D03*
X17220000Y-46105000D03*
X17220000Y-48645000D03*
X14680000Y-46105000D03*
X14680000Y-48645000D03*
D18*
X12140000Y-46105000D03*
X12140000Y-48645000D03*
D17*
X9600000Y-46105000D03*
X9600000Y-48645000D03*
D16*
X60400000Y-13085000D03*
D17*
X60400000Y-15625000D03*
X57860000Y-13085000D03*
X57860000Y-15625000D03*
X55320000Y-13085000D03*
X55320000Y-15625000D03*
X52780000Y-13085000D03*
X52780000Y-15625000D03*
X50240000Y-13085000D03*
X50240000Y-15625000D03*
X47700000Y-13085000D03*
X47700000Y-15625000D03*
X45160000Y-13085000D03*
X45160000Y-15625000D03*
X42620000Y-13085000D03*
X42620000Y-15625000D03*
X40080000Y-13085000D03*
X40080000Y-15625000D03*
X37540000Y-13085000D03*
X37540000Y-15625000D03*
X35000000Y-13085000D03*
X35000000Y-15625000D03*
X32460000Y-13085000D03*
X32460000Y-15625000D03*
X29920000Y-13085000D03*
X29920000Y-15625000D03*
X27380000Y-13085000D03*
X27380000Y-15625000D03*
X24840000Y-13085000D03*
X24840000Y-15625000D03*
X22300000Y-13085000D03*
X22300000Y-15625000D03*
D16*
X57860000Y-18165000D03*
D17*
X60400000Y-18165000D03*
X57860000Y-20705000D03*
X60400000Y-20705000D03*
X57860000Y-23245000D03*
X60400000Y-23245000D03*
%TD*%
D19*
%TO.C,U1*%
X73900000Y-15250000D03*
X73900000Y-15750000D03*
X73900000Y-16250000D03*
X73900000Y-16750000D03*
X73900000Y-17250000D03*
X73900000Y-17750000D03*
X73900000Y-18250000D03*
X73900000Y-18750000D03*
X73900000Y-19250000D03*
X73900000Y-19750000D03*
X73900000Y-20250000D03*
X73900000Y-20750000D03*
X73900000Y-21250000D03*
X73900000Y-21750000D03*
X73900000Y-22250000D03*
X73900000Y-22750000D03*
X73900000Y-23250000D03*
X73900000Y-23750000D03*
X73900000Y-24250000D03*
X73900000Y-24750000D03*
X73900000Y-25250000D03*
X73900000Y-25750000D03*
X73900000Y-26250000D03*
X73900000Y-26750000D03*
X73900000Y-27250000D03*
X73900000Y-27750000D03*
X73900000Y-28250000D03*
X73900000Y-28750000D03*
X73900000Y-29250000D03*
X73900000Y-29750000D03*
X73900000Y-30250000D03*
X73900000Y-30750000D03*
X73900000Y-31250000D03*
X73900000Y-31750000D03*
X73900000Y-32250000D03*
X73900000Y-32750000D03*
X73900000Y-33250000D03*
X73900000Y-33750000D03*
X73900000Y-34250000D03*
X73900000Y-34750000D03*
X73900000Y-35250000D03*
X73900000Y-35750000D03*
X73900000Y-36250000D03*
X73900000Y-36750000D03*
X73900000Y-37250000D03*
X73900000Y-37750000D03*
X73900000Y-38250000D03*
X73900000Y-38750000D03*
X73900000Y-39250000D03*
X73900000Y-39750000D03*
X73900000Y-40250000D03*
X73900000Y-40750000D03*
X73900000Y-41250000D03*
X73900000Y-41750000D03*
X73900000Y-42250000D03*
X73900000Y-42750000D03*
X73900000Y-43250000D03*
X73900000Y-43750000D03*
X73900000Y-44250000D03*
X73900000Y-44750000D03*
D20*
X76500000Y-46450000D03*
X76500000Y-13550000D03*
%TD*%
%LPD*%
M02*
